<svg width="198" height="54" viewBox="0 0 198 54" fill="none" xmlns="http://www.w3.org/2000/svg">
<path d="M50.3946 19.6374C50.6692 19.4931 50.9438 19.351 51.2239 19.2291C50.9397 18.3641 50.6056 17.5166 50.2234 16.6908C50.5058 17.6573 50.4402 18.6485 50.3946 19.6374Z" fill="#2D1A0E"/>
<path d="M39.9836 26.8484C41.2387 26.1481 41.3788 24.4623 40.1992 23.5662C39.7224 23.225 39.1518 23.0417 38.5667 23.0417C37.9816 23.0417 37.411 23.225 36.9342 23.5662C35.7547 24.4612 35.8947 26.1481 37.151 26.8484C37.3252 26.9391 37.474 27.0724 37.5837 27.236C37.6934 27.3996 37.7606 27.5883 37.7791 27.7848C37.8435 28.3654 37.8002 28.9034 37.4456 29.4303C36.9331 30.1877 37.2454 30.7728 38.1482 30.86C38.4253 30.863 38.7025 30.863 38.9797 30.86C39.8846 30.7739 40.1959 30.1888 39.6845 29.4303C39.331 28.9079 39.2876 28.3654 39.351 27.7848C39.3696 27.5877 39.4373 27.3986 39.5479 27.2349C39.6585 27.0712 39.8083 26.9383 39.9836 26.8484Z" fill="#2D1A0E"/>
<path d="M43.2608 29.9684C41.8822 30.9607 40.4937 31.9395 39.1397 32.9654C38.9759 33.1027 38.7779 33.1925 38.5671 33.2249V33.7015C38.7486 33.6933 38.9234 33.6302 39.0685 33.5203C40.5526 32.4396 42.0379 31.3612 43.5153 30.2705C43.6621 30.1586 43.96 30.0098 43.781 29.7995C43.6021 29.5892 43.4164 29.8566 43.2608 29.9684Z" fill="#2D1A0E"/>
<path d="M43.1218 27.7635C43.0907 28.1528 43.0618 28.5466 43.0273 28.9303C43.014 29.0701 42.9817 29.2223 43.1307 29.2983C43.3119 29.3901 43.432 29.2536 43.5398 29.135C43.6944 28.9672 43.6999 28.7569 43.6621 28.5488C43.4031 27.1012 43.6621 25.7074 44.0723 24.3269C44.1201 24.1681 44.3047 23.9421 44.0723 23.8459C43.84 23.7497 43.8 24.0316 43.7277 24.1815C43.1963 25.3203 43.163 26.5441 43.1218 27.7635Z" fill="#2D1A0E"/>
<path d="M41.052 8.39908C41.0309 8.08809 40.7362 8.03775 40.4717 8.03775C39.8369 8.03775 39.201 8.03775 38.5662 8.03775C37.9314 8.03775 37.2977 8.03775 36.6619 8.03775C36.3973 8.03775 36.106 8.08809 36.0827 8.39908C36.0437 8.99758 35.6546 9.01436 35.2189 9.02107C33.2511 9.05127 31.2845 9.08036 29.3168 9.13294C29.0111 9.13965 28.572 9.00093 28.5542 9.56363L28.7054 9.66319C30.8387 9.66319 32.971 9.66319 35.1021 9.68109C36.0226 9.68669 36.1105 9.79296 36.1216 10.7315C36.1305 11.4464 36.1316 12.1612 36.1449 12.8761C36.1449 13.0338 36.1538 13.2352 36.3673 13.2441C36.5807 13.253 36.5952 13.0461 36.6163 12.894C36.6398 12.6875 36.6517 12.4798 36.6518 12.272C36.6585 11.396 36.6796 10.5201 36.6596 9.64306C36.643 8.95619 36.952 8.68323 37.6168 8.71231C37.9336 8.72574 38.2505 8.72686 38.5662 8.72462C38.8819 8.72238 39.201 8.72462 39.5167 8.71231C40.1837 8.68323 40.4895 8.95619 40.475 9.64306C40.4539 10.5201 40.475 11.396 40.4828 12.272C40.4809 12.4798 40.4924 12.6876 40.5172 12.894C40.5384 13.0461 40.5473 13.2542 40.7663 13.2441C40.9853 13.234 40.9886 13.0338 40.9886 12.8761C41.0008 12.1612 41.0019 11.4464 41.0108 10.7315C41.022 9.78961 41.1098 9.68669 42.0303 9.68109C43.0886 9.67513 44.1466 9.6714 45.2042 9.66991C44.993 9.46556 44.7773 9.26494 44.5572 9.06805L41.9113 9.02107C41.4778 9.01436 41.0898 8.99758 41.052 8.39908Z" fill="#2D1A0E"/>
<path d="M33.9313 23.1187C34.7696 22.8167 35.6133 22.5146 36.416 22.1309C37.1564 21.7763 37.8879 21.3814 38.3815 20.6643C38.4254 20.5906 38.4895 20.5312 38.566 20.4932C38.6431 20.5304 38.7074 20.59 38.7506 20.6643C39.2453 21.3814 39.9734 21.7763 40.7172 22.1309C41.5198 22.5146 42.3636 22.8167 43.2029 23.1187C43.4042 23.1926 43.7588 23.385 43.8477 23.0292C43.92 22.7406 43.5542 22.7507 43.3552 22.669C42.3603 22.2607 41.3242 21.9575 40.3892 21.4015C39.8334 21.0659 39.3309 20.7046 38.9963 20.1117C38.8706 19.888 38.7206 19.7604 38.566 19.728C38.4137 19.7604 38.2636 19.888 38.1369 20.1117C37.8034 20.7046 37.3042 21.0671 36.7439 21.4015C35.809 21.9609 34.7729 22.2607 33.779 22.669C33.5789 22.7507 33.2132 22.7406 33.2854 23.0292C33.3766 23.3805 33.7301 23.1926 33.9313 23.1187Z" fill="#2D1A0E"/>
<path d="M37.9936 32.9654C36.6396 31.9395 35.2511 30.9607 33.8725 29.9684C33.7169 29.8566 33.5212 29.597 33.3534 29.7995C33.1855 30.002 33.4723 30.1631 33.6191 30.2705C35.0954 31.3612 36.5807 32.4396 38.0659 33.5203C38.2114 33.6302 38.3866 33.6934 38.5684 33.7015V33.2249C38.3569 33.1928 38.1581 33.103 37.9936 32.9654Z" fill="#2D1A0E"/>
<path d="M33.4712 28.5488C33.4345 28.7569 33.439 28.9672 33.5935 29.135C33.7047 29.2536 33.8225 29.3901 34.0026 29.2983C34.1516 29.2223 34.1193 29.0746 34.1071 28.9303C34.0715 28.5421 34.0426 28.1472 34.0115 27.7635C33.9704 26.5441 33.937 25.3203 33.4101 24.1837C33.3378 24.0293 33.2922 23.7519 33.0666 23.8481C32.8409 23.9443 33.0143 24.1703 33.0666 24.3291C33.4757 25.7074 33.7302 27.1012 33.4712 28.5488Z" fill="#2D1A0E"/>
<path d="M23.2946 22.829C23.4209 22.8352 23.5471 22.8155 23.6654 22.7709C23.7838 22.7264 23.8919 22.6579 23.9831 22.5698C24.0743 22.4818 24.1466 22.3759 24.1957 22.2586C24.2448 22.1414 24.2695 22.0154 24.2685 21.8882C24.2785 21.3389 23.9138 20.9328 23.4069 20.9328C22.4386 20.9328 22.1362 21.1107 22.1407 21.6823C22.1462 22.2831 22.6787 22.8077 23.2946 22.829ZM22.7899 21.8658C22.8288 21.594 23.0445 21.4966 23.2791 21.4653C23.5136 21.434 23.5281 21.6096 23.5225 21.783C23.507 22.0694 23.3424 22.1936 23.0778 22.1768C22.8866 22.1656 22.7577 22.0627 22.7899 21.8658Z" fill="#2D1A0E"/>
<path d="M46.8194 29.2513C46.0156 29.2458 45.8244 28.9717 45.7944 28.0577C45.7699 27.3485 46.2024 27.2847 46.7305 27.2847C48.0645 27.2847 49.0962 26.8216 49.921 25.6458C50.4851 24.8552 51.3298 24.3133 52.2801 24.1322C52.2567 23.9085 52.2289 23.6848 52.1989 23.461C52.0644 23.4487 51.931 23.4353 51.7976 23.4185C51.4919 23.3805 51.4641 23.2765 51.4885 23.0371C51.536 22.4756 51.6479 21.9215 51.8221 21.3859C51.7242 20.9563 51.6131 20.5316 51.4885 20.1117C51.0806 20.3108 50.6548 20.4764 50.2379 20.6565C49.3563 21.1856 48.7237 21.9833 48.0545 22.7372C47.0362 23.8861 47.1296 24.9746 48.3213 25.9356C48.766 26.2969 48.4536 26.449 48.1601 26.5318C47.5879 26.7031 46.9909 26.775 46.3947 26.7444C46.0368 26.722 45.8111 26.5576 45.8756 26.1772C46.119 24.7844 46.268 23.3805 47.3841 22.2898C48.5881 21.1096 48.7471 18.7715 47.8755 17.3441C47.3919 16.5509 46.7305 16.0531 45.7955 16.1292C44.9929 16.1929 44.3503 16.5599 44.1713 17.4604C44.1157 17.73 43.9579 17.7267 43.8089 17.494C43.1686 16.4961 43.6344 14.9747 44.7516 14.638C45.7522 14.3393 46.7416 14.4959 47.5175 15.2242C48.4069 16.0587 49.1851 16.9861 49.065 18.3565C49.0272 18.7894 49.0828 19.2313 49.1151 19.6676C49.1284 19.8589 49.0673 20.1609 49.3585 20.1531C49.6264 20.1441 49.6009 19.8466 49.5953 19.6553C49.5897 18.7307 49.5225 17.8076 49.3941 16.8921C49.0873 16.1247 48.7071 15.3864 48.5047 14.5798C48.4569 14.3975 48.2513 14.1704 48.5047 14.0328C48.6526 13.9545 48.7649 14.0675 48.8605 14.186C48.6663 13.8728 48.4647 13.5648 48.2557 13.262C47.9831 13.1044 47.6946 12.9762 47.3953 12.8794C47.204 12.8168 46.9617 12.7161 46.8394 12.9409C46.6982 13.1893 46.9506 13.3045 47.1084 13.4231C47.4843 13.6926 47.7688 14.0718 47.9233 14.5093C47.9467 14.6022 47.95 14.6715 47.8266 14.5944C46.9784 14.2364 46.1279 13.8639 45.1763 13.9891C44.2869 14.101 43.4476 14.4679 43.1863 15.3472C42.8973 16.3261 42.944 17.372 43.7144 18.2099C43.9256 18.4337 44.2047 18.5847 44.5204 18.4896C44.8917 18.3777 44.7716 18.0533 44.7583 17.7871C44.7249 17.1763 45.0473 16.8507 45.6032 16.702C46.248 16.5308 46.845 16.8138 47.3363 17.409C48.4347 18.7402 47.86 21.4083 46.6471 22.3905C46.3614 22.6198 46.1212 22.6679 45.8689 22.3905C44.8506 21.2371 43.5199 20.7695 42.0491 20.5536C41.1386 20.4205 41.0408 20.2504 40.9963 19.323C40.9896 19.1631 40.9829 19.0008 40.9652 18.8398C40.9518 18.7178 40.8962 18.616 40.7573 18.616C40.6183 18.616 40.5738 18.7391 40.5594 18.8543C40.5394 18.9897 40.5416 19.1295 40.5327 19.2671C40.5216 19.4752 40.5327 19.7146 40.3181 19.8141C40.0658 19.926 39.8857 19.7291 39.7245 19.5658C39.2067 19.0336 38.878 18.3442 38.7896 17.6047C38.7684 17.4436 38.7451 17.2456 38.5672 17.2065C38.3871 17.2456 38.3649 17.4436 38.3449 17.6047C38.2585 18.3446 37.93 19.0345 37.411 19.5658C37.251 19.7291 37.0709 19.9249 36.8174 19.8141C36.5951 19.7168 36.614 19.4785 36.6028 19.2671C36.5951 19.1295 36.5951 18.9897 36.5762 18.8543C36.5606 18.7424 36.5228 18.6171 36.3794 18.616C36.236 18.6149 36.1837 18.7279 36.1715 18.8398C36.1537 19.0008 36.147 19.1631 36.1381 19.323C36.0959 20.2459 35.9981 20.416 35.0876 20.5536C33.6146 20.7695 32.285 21.2371 31.2667 22.3905C31.0199 22.6724 30.7797 22.6243 30.494 22.3905C29.28 21.4083 28.7064 18.7402 29.8048 17.409C30.295 16.8149 30.892 16.5308 31.5368 16.702C32.0926 16.8507 32.4162 17.1763 32.3828 17.7871C32.3684 18.0533 32.2483 18.3777 32.6196 18.4896C32.9364 18.5847 33.2144 18.437 33.4256 18.2099C34.1971 17.372 34.2438 16.3261 33.9536 15.3472C33.6935 14.4679 32.8486 14.1032 31.9637 13.9891C31.0121 13.8639 30.1627 14.2364 29.3145 14.5944C29.1911 14.6715 29.1933 14.6022 29.2178 14.5093C29.3705 14.0726 29.6531 13.6938 30.0271 13.4242C30.1816 13.3056 30.4373 13.1904 30.2972 12.9421C30.1705 12.7183 29.9271 12.8179 29.7414 12.8805C28.2962 13.3493 27.3824 14.4165 26.7331 15.7298C26.3996 16.4156 26.2996 17.1841 26.2329 17.9437C26.1895 18.4381 26.0505 18.6317 25.5036 18.5142C24.025 18.1965 24.0517 18.2413 24.9044 16.9794C26.1095 15.1951 27.0778 13.2877 27.4224 11.132C27.5658 10.2371 28.1272 9.41149 27.9182 8.44718C27.6792 7.85316 27.3279 7.40457 26.612 7.41576C25.0767 7.44149 23.5403 7.47393 22.0062 7.47952C21.3792 7.47952 21.2046 7.75472 21.3136 8.3465C21.4781 9.24145 21.3903 10.1151 21.2024 11.0146C20.8066 12.8693 19.8339 14.4254 18.86 15.986C17.7139 17.8262 16.6822 19.7224 15.8951 21.7461C15.5094 22.7361 15.1169 23.7217 14.3387 24.4846C13.3616 25.4411 12.8935 26.6381 12.6601 27.9649C12.4166 29.3722 12.6478 29.7749 14.0241 29.9986C14.58 30.087 14.8301 30.3488 14.9013 30.8779C14.9908 31.5414 15.1923 32.1845 15.4971 32.7797C16.9722 35.7053 18.8939 38.3801 21.1924 40.7067C21.9461 41.464 22.6832 42.2896 22.4019 43.5291C22.4012 43.5745 22.4102 43.6196 22.4282 43.6613C22.4462 43.703 22.4729 43.7403 22.5064 43.7707C22.8399 44.0985 22.7232 44.4419 22.5565 44.7899C22.3652 45.1848 22.1551 45.5729 21.9617 45.9622C21.6671 46.5607 21.7594 46.7006 22.4064 46.6961C24.3111 46.6849 26.214 46.6789 28.115 46.6782C28.321 46.666 28.5276 46.6902 28.7253 46.7498C29.1533 46.9098 29.3734 46.7196 29.5302 46.3527C29.7903 45.7363 30.0616 45.1221 30.3184 44.5091C30.4996 44.0728 30.8109 43.8826 31.2811 43.8826C33.7135 43.8826 36.1456 43.8848 38.5772 43.8893L44.9795 43.8837C45.2108 43.6667 45.4372 43.4456 45.6588 43.2204H42.9885C41.5158 43.2204 40.0417 43.2204 38.5661 43.2204C37.0905 43.2204 35.6168 43.2204 34.1449 43.2204C32.1749 43.2204 30.2061 43.2204 28.2362 43.2204C27.3223 43.2204 27.2212 43.1085 27.2078 42.1755C27.1834 40.5545 27.1834 40.5545 28.8131 40.5545H47.9144C48.0723 40.3375 48.2257 40.1182 48.3769 39.8956C46.8094 39.8956 45.2419 39.8777 43.6755 39.9035C43.0185 39.9146 42.5304 39.6898 42.1325 39.1819C41.2231 38.0263 40.6872 36.7566 40.6872 35.2464C40.6872 34.621 40.894 34.2877 41.4432 34.0259C42.8473 33.3547 42.835 33.3357 43.3764 34.8996C43.6733 35.7576 44.0802 36.5429 44.7816 37.1526C46.1246 38.3194 47.572 38.853 49.1395 38.6841C49.2629 38.4749 49.383 38.2646 49.5008 38.0509C47.3108 38.4906 44.7839 37.0933 44.3147 35.5596C44.9817 35.8762 45.5721 36.1939 46.1913 36.4545C46.8583 36.7331 47.5776 36.7118 48.288 36.6783C48.5803 36.6291 48.8716 36.5351 49.164 36.5385C49.5646 36.5414 49.9631 36.4802 50.3446 36.3572C50.4558 36.1044 50.5669 35.8482 50.6781 35.5909C50.5792 35.6368 50.4791 35.6815 50.3724 35.7218L50.3668 35.733L50.3279 35.7453L50.3457 35.7352L50.3624 35.7252H50.3724C50.4691 35.4365 50.6926 35.2329 50.8638 34.9947C50.9038 34.9399 50.9405 34.8828 50.9749 34.8224C51.1187 34.4331 51.2514 34.0397 51.3729 33.6422C51.4763 32.9631 51.4007 32.2651 51.1217 31.8377C50.6514 31.1173 49.2251 30.6072 48.2157 30.8041C47.5742 30.9294 47.2785 31.3254 47.4375 31.8556C47.6187 32.4821 47.8822 32.6063 48.557 32.3848C49.2318 32.1633 49.7309 32.4362 49.911 33.1276C50.1634 34.093 49.6231 34.8884 48.6359 35.0047C47.3475 35.1558 45.4498 33.886 45.0885 32.6398C44.8017 31.6588 45.8022 30.2157 46.825 30.1978C48.2446 30.172 49.6654 30.1978 51.0839 30.1877C51.2834 30.1745 51.4825 30.2204 51.6563 30.3198C51.8302 30.4192 51.9713 30.5678 52.0622 30.747C52.1474 30.2526 52.2178 29.7536 52.2734 29.2502C50.4547 29.2558 48.637 29.2637 46.8194 29.2513ZM47.8822 24.2877C47.8749 24.0101 47.9594 23.7378 48.1223 23.5136C48.7782 22.6589 49.4341 21.7976 50.3735 21.2226C50.5058 21.142 50.647 20.972 50.7993 21.0671C51.005 21.1935 50.8393 21.4027 50.8238 21.5705C50.8037 21.821 50.7026 22.094 50.7659 22.3211C51.0995 23.5002 50.6214 24.2922 49.702 24.978C49.3396 25.2476 49.0673 25.6011 48.577 25.402C48.0623 25.1939 47.9344 24.7229 47.8822 24.2877ZM48.2902 31.9261C48.0967 31.9787 47.9111 32.0313 47.8655 31.7684C47.8199 31.5055 47.9978 31.4026 48.2101 31.331C48.8483 31.1162 50.1289 31.4059 50.5103 31.9037C51.0172 32.5682 50.9549 33.2976 50.5436 34.036C50.5236 33.8592 50.5002 33.6824 50.488 33.5046C50.3846 32.1443 49.592 31.5704 48.2902 31.9261ZM26.7387 19.6374C26.6931 18.6306 26.6275 17.6126 26.9343 16.6248C27.0822 15.6996 27.6014 14.9758 28.1883 14.2878C28.2995 14.1514 28.434 13.9332 28.6264 14.0339C28.8832 14.1715 28.6764 14.3986 28.6319 14.5809C28.4274 15.3875 28.0472 16.1258 27.7426 16.8932C27.6113 17.8063 27.5415 18.7272 27.5336 19.6497C27.528 19.841 27.5024 20.1385 27.7715 20.1475C28.0605 20.1553 28.0005 19.8533 28.0138 19.662C28.046 19.2257 28.1027 18.7838 28.0649 18.3509C27.9471 16.9816 28.722 16.0542 29.6113 15.2186C30.3895 14.4903 31.3812 14.3337 32.3784 14.6324C33.4901 14.968 33.9614 16.4905 33.3211 17.4884C33.171 17.7211 33.0131 17.7244 32.9576 17.4548C32.7741 16.5599 32.136 16.1874 31.3345 16.1236C30.3995 16.0475 29.7358 16.5453 29.2545 17.3385C28.3829 18.7659 28.5396 21.104 29.7458 22.2842C30.8575 23.3771 31.011 24.7788 31.2533 26.1716C31.3189 26.552 31.0932 26.7164 30.7341 26.7388C30.1376 26.7694 29.5402 26.6975 28.9677 26.5262C28.6753 26.4434 28.3607 26.2913 28.8076 25.93C29.9993 24.9668 30.0927 23.8805 29.0744 22.7317C28.4074 21.9777 27.7737 21.18 26.891 20.6509C25.876 20.2124 24.811 19.8678 24.0773 18.9069C25.0633 18.7704 25.9027 19.1989 26.7387 19.6374ZM32.8808 32.0548C33.2733 32.1375 33.6991 32.4396 33.659 32.9721C33.5957 33.8033 33.3144 34.5304 32.5874 35.0305C31.4234 35.8337 30.1839 36.336 28.7364 36.1201C28.2984 36.0552 27.9004 35.9422 27.6425 35.4679C29.0966 35.8505 30.2461 35.2307 31.3545 34.4521C31.9837 34.0102 32.3261 33.3793 32.5951 32.6779C32.6841 32.4553 32.4817 31.9664 32.8808 32.0525V32.0548ZM27.9705 36.5329C28.2628 36.5329 28.5552 36.6235 28.8476 36.6727C29.558 36.7051 30.2739 36.7264 30.9431 36.449C31.5624 36.1928 32.1582 35.8751 32.8186 35.554C32.255 37.4021 28.7053 39.0499 26.354 37.5318C24.3029 36.4132 23.5892 34.5852 23.6526 32.359C23.6737 31.5558 23.9239 30.8287 24.5686 30.2996C24.4908 30.8947 24.204 31.4126 24.1073 32.0022C23.7237 34.357 25.5947 36.5619 27.9705 36.5329ZM32.0504 32.6342C31.6902 33.8849 29.7936 35.1502 28.503 34.9991C27.5158 34.8873 26.9766 34.0874 27.2301 33.122C27.4102 32.4306 27.9104 32.1566 28.5841 32.3792C29.2578 32.6018 29.5202 32.4765 29.7036 31.85C29.8581 31.3198 29.5635 30.9238 28.9254 30.7985C27.916 30.605 26.4897 31.1117 26.0205 31.8321C25.5358 32.575 25.6614 34.1299 26.2796 34.9891C26.4496 35.2274 26.6731 35.4365 26.7709 35.7196H26.7798L26.7976 35.7296L26.8143 35.7397L26.7743 35.7274V35.7162C24.5408 34.8683 24.0706 32.6466 25.0611 30.7828C25.1477 30.5938 25.289 30.4355 25.4666 30.3286C25.6441 30.2218 25.8496 30.1715 26.0561 30.1843C27.4757 30.1944 28.8965 30.1687 30.3161 30.1944C31.3278 30.2157 32.335 31.6588 32.0504 32.6342ZM31.3389 28.0577C31.3089 28.9717 31.1166 29.2458 30.315 29.2513C28.4385 29.2637 26.5619 29.2513 24.6865 29.2513V29.2334C22.8344 29.2334 20.9823 29.2446 19.128 29.2334C18.2886 29.2245 18.1274 28.9761 18.4932 28.2166C18.9145 27.3462 19.4037 26.5273 20.2719 25.9881C20.6688 25.7387 20.9512 25.3113 21.318 25.0037C23.0834 23.5293 25.8982 23.7731 27.21 25.6458C28.0349 26.8216 29.0633 27.2825 30.4006 27.2847C30.9309 27.2847 31.3623 27.3485 31.3389 28.0577ZM23.0423 33.4889C23.0523 33.6645 23.1657 33.9118 22.9811 33.9946C22.7532 34.0986 22.6476 33.8268 22.5242 33.6824C21.889 32.9649 21.4406 32.1001 21.2191 31.1654C21.0301 30.3342 21.0868 30.2257 21.9139 30.2067C22.0351 30.2067 22.1574 30.2067 22.2785 30.2067H22.582C23.4314 30.2145 23.4714 30.2693 23.1612 31.0759C22.8511 31.8825 22.9989 32.679 23.0423 33.4889ZM20.8711 23.5136C20.8732 23.1664 20.9411 22.8228 21.0712 22.5012C21.3658 21.6924 21.8583 20.9899 22.333 20.2873C22.5698 19.9338 22.9244 19.6251 23.3591 19.6788C24.0939 19.662 24.5509 20.0144 24.8988 20.5413C25.3935 21.2953 25.5492 22.1555 25.6459 23.0326C25.6714 23.272 25.6459 23.376 25.3368 23.4141C24.0495 23.5763 22.7265 23.498 21.4881 24.0148C21.1079 24.1725 20.8833 23.9186 20.8711 23.5136ZM26.3085 21.5705C26.2951 21.3982 26.1306 21.1935 26.334 21.0671C26.4874 20.972 26.6286 21.142 26.7609 21.2226C27.6992 21.7976 28.3551 22.6589 29.0132 23.5136C29.175 23.7383 29.2586 24.0104 29.2511 24.2877C29.1989 24.7251 29.071 25.1939 28.5574 25.4064C28.0672 25.6056 27.7926 25.2521 27.4313 24.9824C26.5119 24.2967 26.035 23.5047 26.3674 22.3256C26.4319 22.094 26.3307 21.821 26.3085 21.5705ZM24.035 8.03439C24.7654 8.02208 25.4969 8.07354 26.2273 7.96503C26.9955 7.85316 27.269 8.12053 27.249 9.12175C26.8365 11.7249 26.1373 14.412 24.3874 16.7355C23.4258 18.0108 22.1229 19.0176 21.4181 20.4954C21.3792 20.5748 21.3069 20.6822 21.238 20.6957C20.2919 20.8847 19.4259 21.3098 18.5154 21.6018C18.2664 21.6823 18.1919 21.472 18.2297 21.2662C18.2653 21.0391 18.3268 20.8168 18.4131 20.6039C19.0023 19.2314 19.6958 17.9066 20.4876 16.6415C21.9217 14.3605 22.9044 11.8938 22.9189 9.12734C22.9244 8.12165 23.0123 8.04558 24.035 8.0288V8.03439ZM16.342 22.1902C16.4377 21.8579 16.5581 21.5333 16.7022 21.2192C17.6883 19.1899 18.6688 17.1584 19.9117 15.2667C20.8544 13.8303 21.5404 12.2764 21.8628 10.576C21.9124 10.2425 21.9429 9.90632 21.9539 9.56922C21.925 9.15531 21.9005 8.89801 21.8917 8.64743C21.8839 8.44047 21.8716 8.1787 22.1373 8.15185C22.4531 8.12165 22.4831 8.40915 22.4909 8.63624C22.5064 9.05127 22.542 9.47302 22.482 9.8791C22.1429 12.1914 21.3858 14.3717 20.1129 16.3149C19.0424 17.9504 18.1374 19.6374 17.6372 21.5257C17.4926 22.0739 17.1402 22.3245 16.6833 22.5146C16.3487 22.65 16.2442 22.5012 16.342 22.1902ZM14.5944 29.4471C13.7295 29.559 13.2748 29.1428 13.3215 28.3721C13.3315 26.345 14.5099 24.9903 15.9107 23.762C17.2258 22.6086 18.9001 22.179 20.4453 21.4933C20.8055 21.3333 20.9178 21.5302 20.7677 21.8725C20.323 22.8793 20.1618 23.9488 20.0284 25.0261C20.0083 25.2588 19.9029 25.4757 19.7327 25.6346C18.8256 26.4546 18.2153 27.4805 17.7483 28.5947C17.5193 29.1417 17.1647 29.3688 16.5833 29.3442C15.9182 29.3209 15.2525 29.3553 14.5933 29.4471H14.5944ZM18.6121 36.9166C17.2481 35.1267 16.3798 33.113 15.5338 31.0782C15.2703 30.4405 15.4449 30.2268 16.1208 30.2022C16.5544 30.1854 16.9902 30.2101 17.4259 30.2157C17.5582 30.2157 17.6894 30.2156 17.8217 30.2212C18.2408 30.2212 18.6577 30.2212 19.0746 30.2212C20.3197 30.172 20.3553 30.1955 20.5143 31.1397C20.6528 31.3389 20.7301 31.5746 20.7366 31.8176C21.0123 33.0661 21.9317 33.9532 22.5153 35.0293C22.5808 35.0497 22.6403 35.0858 22.6887 35.1345C22.7377 35.184 22.7757 35.2435 22.7999 35.309V35.2922C23.5625 35.7688 24.0784 36.459 24.473 37.2544C24.5097 37.2947 24.5453 37.3361 24.5842 37.3763C25.7559 38.8116 26.5441 40.4259 26.8332 42.2706C26.9288 42.8791 26.6386 43.1857 26.0339 43.2047C25.8115 43.2125 25.5747 43.1957 25.3468 43.2181C24.6476 43.2819 24.3107 43.0089 24.2285 42.2661C24.1173 41.2436 23.5125 40.4483 22.8444 39.6931C21.2769 37.92 19.6449 36.1939 18.521 34.0762C17.7928 33.2048 17.4037 32.1521 16.9924 30.9965C16.6455 31.4496 16.8234 31.793 16.9512 32.1051C17.795 34.1713 19.0312 35.9948 20.4409 37.7041C21.2446 38.6785 22.0973 39.6137 22.9122 40.5791C23.3999 41.1384 23.6817 41.8493 23.7104 42.5928C23.7171 42.8064 23.7104 43.0291 23.4569 43.0995C23.2346 43.1622 23.0856 43.0067 23.0334 42.8322C22.2674 40.3263 20.104 38.8675 18.6121 36.9166ZM29.0488 43.8871C29.439 43.8871 29.7436 43.8546 29.4246 44.4218C29.1711 44.876 29.0621 45.413 28.8987 45.9153C28.8009 46.2162 28.6908 46.4153 28.3151 46.2274C27.9393 46.0394 27.5058 46.1155 27.0922 46.1077C25.8115 46.0965 24.5353 46.0931 23.2524 46.0875C22.8144 46.0875 22.6587 45.8985 22.8488 45.4767C22.9911 45.1624 23.1646 44.857 23.2568 44.5292C23.3858 44.0817 23.657 43.8871 24.1073 43.8972C24.4953 43.9039 24.8855 43.8972 25.2735 43.8972C26.5352 43.999 27.7926 43.8759 29.0488 43.8837V43.8871ZM33.4623 39.9012C31.7225 39.8721 29.9826 39.8956 28.2428 39.8934C26.6197 39.8934 26.5908 39.8609 26.2162 38.2221L26.1528 38.1583L26.0806 38.0856L26.0906 38.0755C26.1361 38.1214 26.1806 38.1661 26.2251 38.2131C26.9608 38.5336 27.7525 38.7036 28.5541 38.7132C29.9059 38.7132 31.1666 38.1762 32.3483 37.147C33.0498 36.5373 33.46 35.752 33.7535 34.894C34.2949 33.3278 34.2816 33.3502 35.6868 34.0203C36.236 34.2821 36.4394 34.6154 36.4439 35.2408C36.4516 36.751 35.9102 38.0207 34.9986 39.1763C34.6084 39.6875 34.1204 39.9124 33.4623 39.9012ZM41.5777 39.2904C41.9112 39.7379 41.7256 39.8945 41.2442 39.8934C40.3548 39.8934 39.4599 39.8934 38.5661 39.8934C37.6723 39.8934 36.7807 39.8934 35.8891 39.8934C35.4066 39.8934 35.2221 39.7401 35.5556 39.2904C36.4261 38.137 36.9252 36.8494 36.953 35.3884C36.9619 34.9577 37.1754 34.7676 37.5722 35.017C37.8604 35.23 38.2086 35.3449 38.5661 35.3449C38.9236 35.3449 39.2718 35.23 39.56 35.017C39.9568 34.7676 40.1714 34.9577 40.1803 35.3884C40.207 36.8494 40.7084 38.137 41.5777 39.2904ZM45.7788 34.4555C46.8905 35.2385 48.0367 35.8538 49.4919 35.4712C49.234 35.9455 48.836 36.0585 48.398 36.1234C46.9528 36.3393 45.7099 35.837 44.5448 35.0338C43.8189 34.5338 43.5388 33.8033 43.4754 32.9754C43.4343 32.4429 43.86 32.1409 44.2536 32.0581C44.6471 31.9753 44.4559 32.4608 44.5393 32.6812C44.8072 33.3771 45.1496 34.008 45.7788 34.4555ZM45.6254 24.0349C45.4275 24.1949 45.2819 24.4656 45.3253 24.7061C45.5265 25.8416 44.9595 26.958 45.2719 28.0957C45.3568 28.4651 45.4232 28.8384 45.4709 29.2144C45.3175 29.6239 45.4898 30.0534 45.114 30.3969C43.6588 31.7259 42.1914 33.0012 40.466 34.008C39.799 34.3917 39.1842 34.6311 38.5683 34.6647C37.9547 34.6311 37.3343 34.3917 36.6718 34.008C34.9431 33.0012 33.4756 31.7259 32.0171 30.3969C31.6413 30.0534 31.8125 29.6239 31.6591 29.2144C31.7202 28.862 31.7558 28.4683 31.8581 28.0957C32.1705 26.958 31.6035 25.8416 31.8036 24.7061C31.8481 24.4611 31.7036 24.1904 31.5057 24.0349C30.9876 23.6177 31.2033 23.2395 31.5346 22.8648C32.2661 22.0314 33.1477 21.4396 34.2516 21.227C34.7474 21.1308 35.2388 21.0257 35.7313 20.9205C36.8063 20.6901 37.7045 20.1867 38.2882 19.2168C38.3466 19.096 38.4426 18.9978 38.5617 18.9371C38.6813 18.9973 38.7778 19.0956 38.8362 19.2168C39.421 20.1867 40.3204 20.6901 41.3932 20.9205C41.8857 21.0257 42.3781 21.1308 42.8728 21.227C43.9779 21.4396 44.8572 22.0314 45.591 22.8648C45.9256 23.2339 46.1435 23.6121 45.6254 24.0293V24.0349Z" fill="#2D1A0E"/>
<path d="M58.5335 40.6709V40.3946C59.3754 40.3946 59.9213 40.2353 60.1711 39.9169C60.4208 39.5984 60.5457 39.0525 60.5457 38.2791V16.0912C60.5457 15.3081 60.4479 14.7387 60.2533 14.3896C60.0588 14.0406 59.4751 13.8527 58.4968 13.8303V13.554H65.7229V13.8303C65.0514 13.8303 64.5816 13.9164 64.3133 14.0887C64.0747 14.2267 63.8882 14.4403 63.783 14.6962C63.6977 14.9288 63.6551 15.4565 63.6551 16.2791V35.3135C63.6551 36.9453 64.045 38.096 64.8246 38.7658C65.6043 39.4355 66.9384 39.7711 68.8268 39.7726H72.1152C73.6983 39.7726 74.8585 39.3799 75.5959 38.5946C76.3334 37.8093 76.7443 36.33 76.8288 34.1568H77.1034V40.6742L58.5335 40.6709Z" fill="#2D1A0E"/>
<path d="M89.979 17.1953C92.6627 17.1953 94.8568 18.0157 96.5614 19.6564C98.266 21.2971 99.1183 23.3462 99.1183 25.8036C99.1183 28.9665 98.1315 31.6278 96.1579 33.7876C94.1842 35.9474 91.5658 37.0288 88.3026 37.0318C85.6545 37.0318 83.4863 36.1607 81.798 34.4186C80.1097 32.6764 79.2651 30.5848 79.2644 28.1439C79.2644 26.4972 79.672 24.8072 80.4873 23.074C81.2978 21.345 82.5703 19.877 84.1626 18.8342C85.7983 17.7408 87.7371 17.1945 89.979 17.1953ZM89.9012 36.0093C91.2167 36.0093 92.5137 35.6543 93.7922 34.9443C95.0463 34.2609 96.0919 33.2469 96.8171 32.0111C97.5531 30.7664 97.921 29.4859 97.921 28.1696C97.9381 26.3644 97.4203 24.5951 96.4336 23.0874C95.4681 21.5868 94.142 20.3556 92.5782 19.5076C90.9988 18.6455 89.538 18.2144 88.1958 18.2144C86.3008 18.2144 84.5802 18.933 83.0342 20.3701C81.4882 21.8073 80.717 23.5938 80.7207 25.7297C80.7207 28.4556 81.6646 30.8511 83.5522 32.9162C85.4399 34.9813 87.5562 36.0123 89.9012 36.0093Z" fill="#2D1A0E"/>
<path d="M111.597 17.1953C114.281 17.1953 116.475 18.0157 118.181 19.6564C119.886 21.2971 120.738 23.3462 120.738 25.8036C120.738 28.9665 119.751 31.6278 117.777 33.7876C115.803 35.9474 113.185 37.0288 109.922 37.0318C107.273 37.0318 105.104 36.1607 103.416 34.4186C101.728 32.6764 100.884 30.5859 100.885 28.1472C100.885 26.5005 101.292 24.8105 102.108 23.0773C102.916 21.3489 104.186 19.8808 105.776 18.8375C107.415 17.742 109.355 17.1945 111.597 17.1953ZM111.519 36.0093C112.836 36.0093 114.133 35.6543 115.41 34.9443C116.664 34.2609 117.71 33.2469 118.435 32.0111C119.171 30.7664 119.539 29.4859 119.539 28.1696C119.559 26.3656 119.045 24.5965 118.063 23.0874C117.097 21.587 115.77 20.3558 114.206 19.5076C112.626 18.6455 111.165 18.2144 109.824 18.2144C107.928 18.2144 106.208 18.933 104.663 20.3701C103.119 21.8073 102.344 23.5938 102.34 25.7297C102.34 28.4556 103.283 30.8511 105.17 32.9162C107.057 34.9813 109.174 36.0123 111.519 36.0093Z" fill="#2D1A0E"/>
<path d="M137.358 17.1561L136.449 19.4819H136.254C136.293 19.2981 136.31 19.1104 136.306 18.9225C136.306 18.7223 136.235 18.5948 136.093 18.5377C135.872 18.4699 135.642 18.4411 135.412 18.4527H130.424V34.913C130.424 35.5924 130.478 36.0559 130.586 36.3035C130.623 36.409 130.682 36.5054 130.759 36.5866C130.835 36.6677 130.928 36.7317 131.031 36.7745C131.325 36.8526 131.63 36.8854 131.934 36.8718V37.0676H126.753V36.8718C127.402 36.8278 127.81 36.7014 127.976 36.4926C128.142 36.2838 128.224 35.8486 128.223 35.1871V18.4493H123.442C122.959 18.4493 122.644 18.4777 122.496 18.5344C122.35 18.5914 122.274 18.7324 122.274 18.9583C122.286 19.1366 122.321 19.3126 122.377 19.4819H122.176L121.267 17.1561H121.463C121.617 17.4694 121.77 17.6588 121.922 17.7244C122.073 17.7901 122.399 17.8225 122.901 17.8218H135.594C135.958 17.8358 136.322 17.8031 136.677 17.7244C136.9 17.6588 137.062 17.4694 137.163 17.1561H137.358Z" fill="#2D1A0E"/>
<path d="M138.868 13.8281V13.5517H145.872C147.922 13.5517 149.374 13.6379 150.227 13.8102C151.096 13.9885 151.926 14.3219 152.679 14.7946C153.459 15.2801 154.124 15.98 154.673 16.8944C155.23 17.8376 155.514 18.9178 155.496 20.0144C155.496 22.3099 154.374 24.1203 152.13 25.4456C154.069 25.7767 155.532 26.5837 156.521 27.8664C157.51 29.1492 158.004 30.7049 158.003 32.5336C158.02 34.1754 157.58 35.7892 156.731 37.1918C155.883 38.5916 154.914 39.5212 153.822 39.9807C152.73 40.4401 151.203 40.6701 149.239 40.6709H138.828V40.3946C139.658 40.3946 140.188 40.226 140.42 39.8889C140.652 39.5518 140.768 38.6901 140.768 37.3036V16.8821C140.768 15.9013 140.741 15.2331 140.686 14.8774C140.665 14.7117 140.605 14.5534 140.511 14.4158C140.417 14.2782 140.292 14.1653 140.146 14.0865C139.843 13.9142 139.418 13.8281 138.868 13.8281ZM143.882 14.1234V26.0351H147.157C149.376 26.0351 150.849 25.3967 151.575 24.1199C152.301 22.8432 152.664 21.5727 152.664 20.3086C152.664 18.946 152.383 17.808 151.822 16.8944C151.261 15.9808 150.441 15.2902 149.362 14.8226C148.282 14.3564 146.693 14.1234 144.595 14.1234H143.882ZM145.986 26.6057H143.882V35.2027C143.882 36.396 143.928 37.1694 144.019 37.5229C144.143 37.9369 144.356 38.3187 144.641 38.6416C144.964 39.0346 145.485 39.3505 146.206 39.5891C146.926 39.8278 147.964 39.9475 149.318 39.9482C151.417 39.9482 152.899 39.4605 153.765 38.485C154.632 37.5095 155.064 36.0641 155.064 34.149C155.064 32.1607 154.679 30.5408 153.911 29.2894C153.142 28.038 152.273 27.2784 151.303 27.0106C150.332 26.7406 148.559 26.6057 145.986 26.6057Z" fill="#2D1A0E"/>
<path d="M170.772 17.1953C173.454 17.1953 175.648 18.0157 177.354 19.6564C179.061 21.2971 179.913 23.3462 179.911 25.8036C179.911 28.9665 178.925 31.6278 176.951 33.7876C174.977 35.9474 172.359 37.0288 169.096 37.0318C166.448 37.0318 164.279 36.1607 162.591 34.4186C160.903 32.6764 160.059 30.5859 160.059 28.1472C160.059 26.5005 160.466 24.8105 161.281 23.0773C162.09 21.3494 163.361 19.8815 164.95 18.8375C166.589 17.742 168.53 17.1945 170.772 17.1953ZM170.694 36.0093C172.009 36.0093 173.306 35.6543 174.585 34.9443C175.839 34.2609 176.885 33.2469 177.61 32.0111C178.346 30.7664 178.714 29.4859 178.714 28.1696C178.731 26.3644 178.213 24.5951 177.227 23.0874C176.261 21.5871 174.935 20.3559 173.371 19.5076C171.79 18.6455 170.33 18.2144 168.989 18.2144C167.093 18.2144 165.373 18.933 163.827 20.3701C162.282 21.8073 161.511 23.5938 161.514 25.7297C161.514 28.4556 162.457 30.8511 164.344 32.9162C166.231 34.9813 168.348 36.0123 170.694 36.0093Z" fill="#2D1A0E"/>
<path d="M196.403 17.4884V17.6853C195.865 17.6234 195.389 17.8889 194.974 18.4818C194.965 18.4818 194.953 18.4941 194.935 18.5209C194.927 18.5453 194.914 18.5675 194.896 18.5858L194.793 18.729C194.749 18.7816 194.727 18.8163 194.727 18.8342L194.598 18.9639L189.731 25.8472L195.559 34.319C196.199 35.2945 196.688 35.9146 197.026 36.1794C197.364 36.4441 197.689 36.5638 198 36.5385V36.7342H193.248V36.5385C193.652 36.5642 193.856 36.421 193.856 36.1078C193.856 35.8564 193.721 35.535 193.453 35.1435L188.369 27.7736L183.256 34.998C183.256 35.007 183.154 35.1543 182.952 35.4399C182.719 35.7196 182.602 35.9683 182.602 36.1861C182.602 36.4471 182.819 36.5646 183.253 36.5385V36.7342H180.396V36.5385C180.601 36.5387 180.804 36.4959 180.992 36.4127C181.18 36.3294 181.348 36.2077 181.487 36.0552L181.709 35.8203L187.912 27.1046L182.189 18.8073C182.189 18.6865 182.025 18.4594 181.696 18.1294C181.367 17.7994 180.999 17.6506 180.592 17.6819V17.485H185.41V17.6819C184.889 17.6819 184.632 17.8251 184.632 18.1126C184.632 18.3218 184.791 18.6574 185.112 19.1194L189.282 25.1816L193.793 18.8364C193.802 18.8286 193.869 18.7055 193.995 18.4695C194.082 18.3318 194.146 18.1806 194.184 18.022C194.184 17.8732 194.138 17.7804 194.047 17.7401C193.874 17.6905 193.694 17.6709 193.514 17.6819V17.485L196.403 17.4884Z" fill="#2D1A0E"/>
<path d="M40.7774 4.66939C45.2138 7.6339 48.5348 11.4658 50.7405 16.165C52.9461 20.8642 54.0493 25.446 54.05 29.9103C54.05 36.5232 51.7617 42.1912 47.1852 46.9143C42.6087 51.6373 36.7293 53.9993 29.5469 54C20.7 54 13.6007 51.0713 8.24891 45.2139C2.89717 39.3564 0.221671 32.1417 0.222412 23.5696C0.222412 16.9089 2.53401 11.3528 7.15722 6.90116C11.7804 2.44954 17.7303 0.223737 25.0067 0.223737C31.0885 0.223737 36.3454 1.70562 40.7774 4.66939ZM42.4327 42.8456C47.5465 37.2477 50.1034 30.753 50.1034 23.3615C50.1034 17.5749 48.0086 12.7332 43.819 8.83649C39.6293 4.93974 34.9661 2.98987 29.8293 2.98689C26.1918 2.98689 22.2312 4.15591 17.9474 6.49396C13.7088 8.79449 10.1148 12.1329 7.4974 16.2008C4.80708 20.3332 3.46155 24.9265 3.46081 29.9807C3.46081 33.5471 4.45837 37.0188 6.45351 40.3957C8.44865 43.7726 11.1831 46.4239 14.6568 48.3495C18.1297 50.2737 21.6501 51.2357 25.218 51.2357C31.5784 51.2357 37.3166 48.439 42.4327 42.8456Z" fill="#2D1A0E"/>
<path d="M50.1724 19.4136C50.447 19.2693 50.7216 19.1273 51.0017 19.0053C50.7175 18.1404 50.3834 17.2929 50.0012 16.467C50.2836 17.4336 50.218 18.4247 50.1724 19.4136Z" fill="#2D1A0E"/>
<path d="M39.7612 26.6247C41.0163 25.9244 41.1564 24.2385 39.9768 23.3425C39.5 23.0013 38.9294 22.8179 38.3443 22.8179C37.7592 22.8179 37.1886 23.0013 36.7118 23.3425C35.5322 24.2374 35.6723 25.9244 36.9285 26.6247C37.1028 26.7154 37.2516 26.8486 37.3613 27.0122C37.471 27.1758 37.5382 27.3645 37.5567 27.561C37.6211 28.1416 37.5778 28.6797 37.2231 29.2066C36.7106 29.964 37.023 30.549 37.9257 30.6363C38.2029 30.6393 38.4801 30.6393 38.7573 30.6363C39.6622 30.5501 39.9735 29.9651 39.4621 29.2066C39.1086 28.6842 39.0652 28.1416 39.1286 27.561C39.1472 27.364 39.2149 27.1749 39.3255 27.0112C39.4361 26.8475 39.5859 26.7146 39.7612 26.6247Z" fill="#2D1A0E"/>
<path d="M43.0386 29.7447C41.6601 30.737 40.2715 31.7158 38.9175 32.7416C38.7537 32.879 38.5557 32.9687 38.345 33.0012V33.4777C38.5264 33.4696 38.7012 33.4064 38.8463 33.2965C40.3305 32.2159 41.8157 31.1375 43.2932 30.0467C43.4399 29.9349 43.7378 29.7861 43.5588 29.5758C43.3799 29.3655 43.1942 29.6328 43.0386 29.7447Z" fill="#2D1A0E"/>
<path d="M42.8997 27.5398C42.8685 27.9291 42.8396 28.3228 42.8052 28.7066C42.7918 28.8464 42.7596 28.9985 42.9085 29.0746C43.0898 29.1663 43.2098 29.0299 43.3177 28.9113C43.4722 28.7435 43.4777 28.5332 43.4399 28.3251C43.1809 26.8775 43.4399 25.4836 43.8502 24.1032C43.898 23.9443 44.0825 23.7183 43.8502 23.6221C43.6178 23.5259 43.5778 23.8078 43.5055 23.9577C42.9741 25.0966 42.9408 26.3204 42.8997 27.5398Z" fill="#2D1A0E"/>
<path d="M40.8296 8.17534C40.8084 7.86435 40.5138 7.81401 40.2493 7.81401C39.6145 7.81401 38.9786 7.81401 38.3438 7.81401C37.709 7.81401 37.0753 7.81401 36.4394 7.81401C36.1749 7.81401 35.8836 7.86435 35.8602 8.17534C35.8213 8.77384 35.4322 8.79062 34.9964 8.79733C33.0287 8.82754 31.0621 8.85662 29.0944 8.9092C28.7887 8.91591 28.3496 8.7772 28.3318 9.33989L28.483 9.43946C30.6163 9.43946 32.7486 9.43946 34.8797 9.45736C35.8002 9.46295 35.888 9.56922 35.8992 10.5078C35.9081 11.2226 35.9092 11.9375 35.9225 12.6523C35.9225 12.8101 35.9314 13.0114 36.1448 13.0204C36.3583 13.0293 36.3727 12.8224 36.3939 12.6702C36.4174 12.4637 36.4293 12.2561 36.4294 12.0482C36.4361 11.1723 36.4572 10.2964 36.4372 9.41932C36.4205 8.73245 36.7296 8.45949 37.3944 8.48858C37.7112 8.502 38.0281 8.50312 38.3438 8.50088C38.6595 8.49864 38.9786 8.50088 39.2943 8.48858C39.9613 8.45949 40.267 8.73245 40.2526 9.41932C40.2315 10.2964 40.2526 11.1723 40.2604 12.0482C40.2585 12.2561 40.27 12.4639 40.2948 12.6702C40.316 12.8224 40.3248 13.0304 40.5439 13.0204C40.7629 13.0103 40.7662 12.8101 40.7662 12.6523C40.7784 11.9375 40.7795 11.2226 40.7884 10.5078C40.7995 9.56587 40.8874 9.46295 41.8079 9.45736C42.8662 9.45139 43.9242 9.44766 44.9818 9.44617C44.7706 9.24182 44.5549 9.04121 44.3348 8.84432L41.6889 8.79733C41.2553 8.79062 40.8674 8.77384 40.8296 8.17534Z" fill="#2D1A0E"/>
<path d="M33.7092 22.895C34.5474 22.5929 35.3912 22.2909 36.1938 21.9072C36.9342 21.5526 37.6657 21.1577 38.1593 20.4406C38.2032 20.3669 38.2673 20.3075 38.3439 20.2694C38.4209 20.3067 38.4852 20.3663 38.5284 20.4406C39.0231 21.1577 39.7513 21.5526 40.495 21.9072C41.2977 22.2909 42.1414 22.5929 42.9808 22.895C43.182 22.9688 43.5366 23.1612 43.6256 22.8055C43.6978 22.5169 43.3321 22.5269 43.1331 22.4453C42.1381 22.037 41.102 21.7338 40.1671 21.1778C39.6112 20.8422 39.1087 20.4809 38.7741 19.888C38.6485 19.6642 38.4984 19.5367 38.3439 19.5043C38.1916 19.5367 38.0415 19.6642 37.9147 19.888C37.5812 20.4809 37.0821 20.8433 36.5218 21.1778C35.5868 21.7372 34.5507 22.037 33.5569 22.4453C33.3568 22.5269 32.991 22.5169 33.0633 22.8055C33.1544 23.1568 33.5079 22.9688 33.7092 22.895Z" fill="#2D1A0E"/>
<path d="M37.7712 32.7416C36.4172 31.7158 35.0286 30.737 33.6501 29.7447C33.4945 29.6328 33.2988 29.3733 33.131 29.5758C32.9631 29.7783 33.2499 29.9393 33.3967 30.0467C34.873 31.1375 36.3582 32.2159 37.8435 33.2965C37.989 33.4065 38.1642 33.4696 38.346 33.4777V33.0012C38.1345 32.969 37.9357 32.8793 37.7712 32.7416Z" fill="#2D1A0E"/>
<path d="M33.2488 28.3251C33.2121 28.5332 33.2166 28.7435 33.3711 28.9113C33.4823 29.0298 33.6001 29.1663 33.7802 29.0746C33.9292 28.9985 33.8969 28.8509 33.8847 28.7065C33.8491 28.3184 33.8202 27.9235 33.7891 27.5398C33.748 26.3204 33.7146 25.0966 33.1877 23.96C33.1154 23.8056 33.0698 23.5282 32.8442 23.6244C32.6185 23.7206 32.7919 23.9465 32.8442 24.1054C33.2533 25.4836 33.5078 26.8775 33.2488 28.3251Z" fill="#2D1A0E"/>
<path d="M23.0722 22.6053C23.1985 22.6115 23.3246 22.5917 23.443 22.5472C23.5614 22.5026 23.6695 22.4342 23.7607 22.3461C23.8519 22.258 23.9242 22.1521 23.9733 22.0349C24.0224 21.9177 24.0471 21.7916 24.0461 21.6644C24.0561 21.1152 23.6914 20.7091 23.1845 20.7091C22.2162 20.7091 21.9138 20.887 21.9183 21.4586C21.9238 22.0593 22.4563 22.584 23.0722 22.6053ZM22.5675 21.6421C22.6064 21.3702 22.8221 21.2729 23.0566 21.2416C23.2912 21.2103 23.3057 21.3859 23.3001 21.5593C23.2845 21.8457 23.12 21.9698 22.8554 21.9531C22.6642 21.9419 22.5353 21.839 22.5675 21.6421Z" fill="#2D1A0E"/>
<path d="M46.597 29.0276C45.7932 29.022 45.602 28.7479 45.572 27.834C45.5475 27.1247 45.98 27.061 46.508 27.061C47.8421 27.061 48.8737 26.5978 49.6986 25.4221C50.2627 24.6315 51.1074 24.0895 52.0577 23.9085C52.0343 23.6848 52.0065 23.461 51.9765 23.2373C51.842 23.225 51.7086 23.2116 51.5752 23.1948C51.2695 23.1568 51.2417 23.0527 51.2661 22.8133C51.3136 22.2518 51.4255 21.6977 51.5996 21.1621C51.5018 20.7326 51.3906 20.3078 51.2661 19.888C50.8581 20.0871 50.4324 20.2527 50.0155 20.4328C49.1339 20.9619 48.5013 21.7595 47.8321 22.5135C46.8138 23.6624 46.9071 24.7509 48.0989 25.7118C48.5436 26.0732 48.2312 26.2253 47.9377 26.3081C47.3655 26.4794 46.7685 26.5513 46.1723 26.5206C45.8143 26.4983 45.5887 26.3338 45.6531 25.9535C45.8966 24.5607 46.0456 23.1568 47.1617 22.066C48.3657 20.8858 48.5247 18.5478 47.6531 17.1203C47.1695 16.3272 46.508 15.8294 45.5731 15.9054C44.7705 15.9692 44.1279 16.3361 43.9489 17.2367C43.8933 17.5063 43.7355 17.5029 43.5865 17.2702C42.9461 16.2724 43.4119 14.751 44.5292 14.4142C45.5297 14.1156 46.5192 14.2722 47.2951 15.0004C48.1845 15.835 48.9627 16.7624 48.8426 18.1327C48.8048 18.5657 48.8604 19.0076 48.8926 19.4438C48.906 19.6351 48.8448 19.9372 49.1361 19.9294C49.404 19.9204 49.3785 19.6228 49.3729 19.4315C49.3673 18.507 49.3001 17.5839 49.1717 16.6684C48.8649 15.901 48.4847 15.1626 48.2823 14.3561C48.2345 14.1737 48.0289 13.9466 48.2823 13.809C48.4302 13.7307 48.5425 13.8437 48.6381 13.9623C48.4439 13.6491 48.2423 13.3411 48.0333 13.0383C47.7606 12.8807 47.4722 12.7524 47.1728 12.6557C46.9816 12.593 46.7393 12.4923 46.617 12.7172C46.4758 12.9655 46.7282 13.0808 46.886 13.1994C47.2619 13.4688 47.5463 13.848 47.7009 14.2856C47.7242 14.3784 47.7276 14.4478 47.6042 14.3706C46.756 14.0126 45.9055 13.6401 44.9539 13.7654C44.0645 13.8773 43.2252 14.2442 42.9639 15.1235C42.6749 16.1023 42.7216 17.1483 43.492 17.9862C43.7032 18.2099 43.9823 18.361 44.298 18.2659C44.6693 18.154 44.5492 17.8296 44.5359 17.5633C44.5025 16.9525 44.8249 16.627 45.3808 16.4782C46.0256 16.3071 46.6225 16.5901 47.1139 17.1852C48.2123 18.5165 47.6375 21.1845 46.4247 22.1667C46.139 22.3961 45.8988 22.4442 45.6465 22.1667C44.6282 21.0134 43.2974 20.5457 41.8267 20.3298C40.9162 20.1967 40.8183 20.0267 40.7739 19.0993C40.7672 18.9393 40.7605 18.7771 40.7427 18.616C40.7294 18.4941 40.6738 18.3923 40.5349 18.3923C40.3959 18.3923 40.3514 18.5153 40.337 18.6306C40.317 18.7659 40.3192 18.9058 40.3103 19.0434C40.2992 19.2514 40.3103 19.4908 40.0957 19.5904C39.8434 19.7023 39.6633 19.5054 39.5021 19.342C38.9843 18.8098 38.6556 18.1205 38.5671 17.381C38.546 17.2199 38.5227 17.0219 38.3448 16.9827C38.1647 17.0219 38.1425 17.2199 38.1225 17.381C38.0361 18.1209 37.7076 18.8108 37.1886 19.342C37.0285 19.5054 36.8484 19.7011 36.595 19.5904C36.3726 19.4931 36.3915 19.2548 36.3804 19.0434C36.3726 18.9058 36.3726 18.7659 36.3537 18.6306C36.3382 18.5187 36.3004 18.3934 36.157 18.3923C36.0136 18.3912 35.9613 18.5042 35.9491 18.616C35.9313 18.7771 35.9246 18.9393 35.9157 19.0993C35.8735 20.0222 35.7757 20.1922 34.8652 20.3298C33.3922 20.5457 32.0626 21.0134 31.0442 22.1667C30.7974 22.4486 30.5573 22.4005 30.2716 22.1667C29.0576 21.1845 28.484 18.5165 29.5824 17.1852C30.0726 16.5912 30.6696 16.3071 31.3144 16.4782C31.8702 16.627 32.1937 16.9525 32.1604 17.5633C32.1459 17.8296 32.0259 18.154 32.3972 18.2659C32.714 18.361 32.9919 18.2133 33.2032 17.9862C33.9747 17.1483 34.0214 16.1023 33.7312 15.1235C33.4711 14.2442 32.6262 13.8795 31.7413 13.7654C30.7897 13.6401 29.9403 14.0126 29.0921 14.3706C28.9687 14.4478 28.9709 14.3784 28.9954 14.2856C29.1481 13.8489 29.4307 13.4701 29.8047 13.2005C29.9592 13.0819 30.2149 12.9667 30.0748 12.7183C29.9481 12.4946 29.7046 12.5941 29.519 12.6568C28.0738 13.1255 27.1599 14.1927 26.5107 15.5061C26.1772 16.1918 26.0771 16.9604 26.0104 17.72C25.9671 18.2144 25.8281 18.4079 25.2812 18.2905C23.8026 17.9728 23.8293 18.0175 24.682 16.7556C25.887 14.9713 26.8553 13.064 27.2 10.9083C27.3434 10.0133 27.9048 9.18775 27.6958 8.22345C27.4568 7.62942 27.1055 7.18083 26.3895 7.19202C24.8543 7.21775 23.3179 7.25019 21.7837 7.25578C21.1567 7.25578 20.9822 7.53098 21.0912 8.12276C21.2557 9.01771 21.1679 9.8914 20.98 10.7908C20.5842 12.6456 19.6115 14.2017 18.6376 15.7623C17.4915 17.6025 16.4598 19.4987 15.6727 21.5224C15.287 22.5124 14.8945 23.498 14.1163 24.2609C13.1391 25.2174 12.6711 26.4144 12.4377 27.7411C12.1942 29.1484 12.4254 29.5512 13.8017 29.7749C14.3576 29.8633 14.6077 30.125 14.6788 30.6542C14.7683 31.3176 14.9699 31.9608 15.2747 32.5559C16.7498 35.4816 18.6715 38.1564 20.97 40.4829C21.7237 41.2403 22.4608 42.0659 22.1795 43.3054C22.1788 43.3508 22.1878 43.3959 22.2058 43.4376C22.2238 43.4792 22.2505 43.5166 22.284 43.547C22.6175 43.8748 22.5008 44.2182 22.334 44.5661C22.1428 44.961 21.9327 45.3492 21.7393 45.7385C21.4447 46.337 21.537 46.4768 22.184 46.4724C24.0887 46.4612 25.9915 46.4552 27.8926 46.4545C28.0986 46.4422 28.3052 46.4665 28.5029 46.5261C28.9309 46.686 29.151 46.4959 29.3078 46.1289C29.5679 45.5125 29.8392 44.8984 30.096 44.2853C30.2772 43.8491 30.5884 43.6589 31.0587 43.6589C33.4911 43.6589 35.9231 43.6611 38.3548 43.6656L44.7571 43.66C44.9883 43.443 45.2148 43.2218 45.4364 42.9966H42.766C41.2934 42.9966 39.8193 42.9966 38.3437 42.9966C36.8681 42.9966 35.3943 42.9966 33.9224 42.9966C31.9525 42.9966 29.9837 42.9966 28.0137 42.9966C27.0999 42.9966 26.9988 42.8848 26.9854 41.9518C26.961 40.3308 26.961 40.3308 28.5907 40.3308H47.692C47.8499 40.1138 48.0033 39.8945 48.1545 39.6719C46.587 39.6719 45.0195 39.654 43.4531 39.6797C42.7961 39.6909 42.308 39.466 41.91 38.9582C41.0007 37.8026 40.4648 36.5329 40.4648 35.0226C40.4648 34.3973 40.6716 34.0639 41.2208 33.8022C42.6249 33.1309 42.6126 33.1119 43.154 34.6758C43.4509 35.5339 43.8577 36.3192 44.5592 36.9289C45.9022 38.0957 47.3496 38.6293 48.9171 38.4604C49.0405 38.2512 49.1606 38.0408 49.2784 37.8272C47.0884 38.2668 44.5615 36.8696 44.0923 35.3359C44.7593 35.6525 45.3496 35.9702 45.9689 36.2308C46.6359 36.5094 47.3552 36.4881 48.0655 36.4546C48.3579 36.4053 48.6492 36.3114 48.9416 36.3147C49.3422 36.3176 49.7407 36.2565 50.1222 36.1335C50.2334 35.8807 50.3445 35.6245 50.4557 35.3672C50.3568 35.4131 50.2567 35.4578 50.15 35.4981L50.1444 35.5093L50.1055 35.5216L50.1233 35.5115L50.14 35.5014H50.15C50.2467 35.2128 50.4702 35.0092 50.6414 34.7709C50.6814 34.7161 50.7181 34.6591 50.7525 34.5987C50.8963 34.2094 51.029 33.816 51.1505 33.4184C51.2539 32.7394 51.1783 32.0413 50.8993 31.614C50.429 30.8936 49.0027 30.3835 47.9933 30.5803C47.3518 30.7056 47.0561 31.1017 47.2151 31.6319C47.3963 32.2584 47.6598 32.3825 48.3346 32.161C49.0094 31.9395 49.5085 32.2125 49.6886 32.9039C49.941 33.8693 49.4007 34.6647 48.4135 34.781C47.125 34.932 45.2274 33.6623 44.8661 32.4161C44.5792 31.435 45.5798 29.9919 46.6025 29.974C48.0222 29.9483 49.4429 29.974 50.8615 29.9639C51.061 29.9507 51.2601 29.9967 51.4339 30.0961C51.6078 30.1955 51.7489 30.344 51.8398 30.5233C51.925 30.0288 51.9954 29.5299 52.051 29.0265C50.2323 29.0321 48.4146 29.0399 46.597 29.0276ZM47.6598 24.064C47.6525 23.7863 47.7369 23.5141 47.8999 23.2899C48.5558 22.4352 49.2117 21.5738 50.1511 20.9988C50.2834 20.9183 50.4246 20.7482 50.5769 20.8433C50.7825 20.9697 50.6169 21.1789 50.6013 21.3467C50.5813 21.5973 50.4802 21.8703 50.5435 22.0974C50.877 23.2765 50.399 24.0685 49.4796 24.7542C49.1172 25.0238 48.8448 25.3773 48.3546 25.1782C47.8399 24.9701 47.712 24.4992 47.6598 24.064ZM48.0678 31.7024C47.8743 31.755 47.6887 31.8075 47.6431 31.5447C47.5975 31.2818 47.7754 31.1788 47.9877 31.1072C48.6258 30.8925 49.9065 31.1822 50.2878 31.68C50.7948 32.3445 50.7325 33.0739 50.3212 33.8122C50.3012 33.6355 50.2778 33.4587 50.2656 33.2808C50.1622 31.9205 49.3696 31.3466 48.0678 31.7024ZM26.5163 19.4136C26.4707 18.4068 26.4051 17.3888 26.7119 16.401C26.8598 15.4759 27.379 14.7521 27.9659 14.0641C28.0771 13.9276 28.2116 13.7095 28.4039 13.8102C28.6607 13.9478 28.454 14.1748 28.4095 14.3572C28.205 15.1638 27.8247 15.9021 27.5201 16.6695C27.3889 17.5825 27.3191 18.5034 27.3111 19.4259C27.3056 19.6172 27.28 19.9148 27.549 19.9238C27.8381 19.9316 27.7781 19.6295 27.7914 19.4383C27.8236 19.002 27.8803 18.5601 27.8425 18.1272C27.7247 16.7579 28.4995 15.8305 29.3889 14.9948C30.1671 14.2666 31.1587 14.11 32.1559 14.4086C33.2676 14.7443 33.739 16.2668 33.0987 17.2646C32.9486 17.4973 32.7907 17.5007 32.7351 17.2311C32.5517 16.3361 31.9136 15.9636 31.1121 15.8999C30.1771 15.8238 29.5134 16.3216 29.0321 17.1147C28.1605 18.5422 28.3172 20.8802 29.5234 22.0604C30.6351 23.1534 30.7885 24.5551 31.0309 25.9479C31.0965 26.3282 30.8708 26.4927 30.5117 26.515C29.9152 26.5456 29.3178 26.4738 28.7452 26.3025C28.4529 26.2197 28.1382 26.0676 28.5852 25.7062C29.7769 24.743 29.8703 23.6568 28.852 22.5079C28.1849 21.7539 27.5513 20.9563 26.6686 20.4272C25.6536 19.9886 24.5886 19.6441 23.8549 18.6831C24.8409 18.5467 25.6803 18.9751 26.5163 19.4136ZM32.6584 31.831C33.0509 31.9138 33.4766 32.2159 33.4366 32.7484C33.3733 33.5795 33.092 34.3067 32.3649 34.8067C31.201 35.6099 29.9614 36.1122 28.514 35.8963C28.076 35.8314 27.678 35.7185 27.4201 35.2441C28.8742 35.6267 30.0237 35.007 31.1321 34.2284C31.7613 33.7865 32.1037 33.1556 32.3727 32.4541C32.4617 32.2315 32.2593 31.7427 32.6584 31.8288V31.831ZM27.748 36.3091C28.0404 36.3091 28.3328 36.3997 28.6252 36.449C29.3356 36.4814 30.0515 36.5027 30.7207 36.2252C31.34 35.969 31.9358 35.6513 32.5962 35.3303C32.0325 37.1783 28.4829 38.8262 26.1316 37.3081C24.0805 36.1894 23.3668 34.3615 23.4302 32.1353C23.4513 31.3321 23.7014 30.605 24.3462 30.0758C24.2684 30.671 23.9816 31.1889 23.8849 31.7785C23.5013 34.1333 25.3723 36.3382 27.748 36.3091ZM31.828 32.4105C31.4678 33.6612 29.5712 34.9264 28.2805 34.7754C27.2934 34.6635 26.7542 33.8637 27.0076 32.8983C27.1877 32.2069 27.688 31.9328 28.3617 32.1555C29.0354 32.3781 29.2978 32.2528 29.4812 31.6263C29.6357 31.0961 29.3411 30.7 28.703 30.5748C27.6936 30.3812 26.2673 30.888 25.7981 31.6084C25.3134 32.3512 25.439 33.9062 26.0571 34.7653C26.2272 35.0036 26.4507 35.2128 26.5485 35.4958H26.5574L26.5752 35.5059L26.5919 35.516L26.5518 35.5037V35.4925C24.3184 34.6445 23.8482 32.4228 24.8387 30.5591C24.9253 30.37 25.0666 30.2117 25.2442 30.1049C25.4217 29.9981 25.6272 29.9478 25.8337 29.9606C27.2533 29.9707 28.6741 29.9449 30.0937 29.9707C31.1054 29.9919 32.1126 31.435 31.828 32.4105ZM31.1165 27.834C31.0865 28.7479 30.8942 29.022 30.0926 29.0276C28.2161 29.0399 26.3395 29.0276 24.4641 29.0276V29.0097C22.612 29.0097 20.7599 29.0209 18.9055 29.0097C18.0662 29.0008 17.905 28.7524 18.2708 27.9928C18.6921 27.1225 19.1813 26.3036 20.0495 25.7644C20.4464 25.5149 20.7287 25.0876 21.0956 24.78C22.861 23.3055 25.6758 23.5494 26.9876 25.4221C27.8125 26.5978 28.8408 27.0587 30.1782 27.061C30.7085 27.061 31.1398 27.1247 31.1165 27.834ZM22.8199 33.2652C22.8299 33.4408 22.9433 33.688 22.7587 33.7708C22.5308 33.8749 22.4252 33.603 22.3018 33.4587C21.6666 32.7412 21.2182 31.8764 20.9967 30.9417C20.8077 30.1105 20.8644 30.002 21.6915 29.983C21.8127 29.983 21.9349 29.983 22.0561 29.983H22.3596C23.209 29.9908 23.249 30.0456 22.9388 30.8522C22.6286 31.6588 22.7765 32.4553 22.8199 33.2652ZM20.6487 23.2899C20.6508 22.9427 20.7187 22.599 20.8488 22.2775C21.1434 21.4687 21.6359 20.7661 22.1106 20.0636C22.3474 19.7101 22.702 19.4013 23.1367 19.455C23.8715 19.4383 24.3284 19.7906 24.6764 20.3175C25.1711 21.0715 25.3267 21.9318 25.4235 22.8088C25.449 23.0482 25.4235 23.1523 25.1144 23.1903C23.8271 23.3525 22.5041 23.2742 21.2657 23.791C20.8855 23.9488 20.6609 23.6948 20.6487 23.2899ZM26.086 21.3467C26.0727 21.1745 25.9082 20.9697 26.1116 20.8433C26.265 20.7482 26.4062 20.9183 26.5385 20.9988C27.4768 21.5738 28.1327 22.4352 28.7908 23.2899C28.9526 23.5146 29.0362 23.7867 29.0287 24.064C28.9765 24.5014 28.8486 24.9701 28.335 25.1827C27.8448 25.3818 27.5702 25.0283 27.2089 24.7587C26.2895 24.073 25.8126 23.2809 26.145 22.1018C26.2094 21.8703 26.1083 21.5973 26.086 21.3467ZM23.8126 7.81065C24.543 7.79835 25.2745 7.8498 26.0049 7.74129C26.7731 7.62942 27.0466 7.89679 27.0265 8.89801C26.6141 11.5012 25.9148 14.1883 24.165 16.5118C23.2034 17.7871 21.9005 18.7939 21.1957 20.2717C21.1567 20.3511 21.0845 20.4585 21.0156 20.4719C20.0695 20.661 19.2035 21.0861 18.293 21.3781C18.044 21.4586 17.9695 21.2483 18.0073 21.0424C18.0429 20.8153 18.1044 20.5931 18.1907 20.3802C18.7798 19.0076 19.4734 17.6829 20.2652 16.4178C21.6993 14.1368 22.682 11.6701 22.6965 8.90361C22.702 7.89791 22.7898 7.82184 23.8126 7.80506V7.81065ZM16.1196 21.9665C16.2153 21.6342 16.3357 21.3096 16.4798 20.9955C17.4659 18.9662 18.4464 16.9346 19.6893 15.0429C20.632 13.6066 21.3179 12.0527 21.6403 10.3523C21.69 10.0187 21.7204 9.68258 21.7315 9.34549C21.7026 8.93157 21.6781 8.67428 21.6692 8.42369C21.6615 8.21673 21.6492 7.95496 21.9149 7.92811C22.2307 7.89791 22.2607 8.18541 22.2685 8.4125C22.284 8.82753 22.3196 9.24928 22.2596 9.65536C21.9205 11.9677 21.1634 14.148 19.8905 16.0911C18.8199 17.7267 17.915 19.4136 17.4148 21.302C17.2702 21.8501 16.9178 22.1007 16.4609 22.2909C16.1263 22.4263 16.0218 22.2775 16.1196 21.9665ZM14.372 29.2234C13.5071 29.3353 13.0524 28.9191 13.0991 28.1483C13.1091 26.1213 14.2875 24.7665 15.6883 23.5382C17.0034 22.3849 18.6776 21.9553 20.2229 21.2695C20.5831 21.1096 20.6954 21.3065 20.5453 21.6488C20.1006 22.6556 19.9394 23.725 19.806 24.8023C19.7859 25.0351 19.6805 25.252 19.5103 25.4109C18.6032 26.2309 17.9928 27.2567 17.5259 28.3709C17.2969 28.918 16.9423 29.1451 16.3609 29.1205C15.6958 29.0972 15.0301 29.1316 14.3709 29.2234H14.372ZM18.3897 36.6928C17.0257 34.9029 16.1574 32.8893 15.3114 30.8544C15.0479 30.2168 15.2225 30.0031 15.8984 29.9785C16.332 29.9617 16.7677 29.9863 17.2035 29.9919C17.3358 29.9919 17.467 29.9919 17.5993 29.9975C18.0184 29.9975 18.4353 29.9975 18.8522 29.9975C20.0973 29.9483 20.1329 29.9718 20.2918 30.9159C20.4304 31.1151 20.5077 31.3509 20.5142 31.5939C20.7899 32.8423 21.7093 33.7294 22.2929 34.8056C22.3584 34.8259 22.4179 34.862 22.4663 34.9108C22.5153 34.9603 22.5532 35.0198 22.5775 35.0853V35.0685C23.3401 35.5451 23.856 36.2353 24.2506 37.0307C24.2873 37.0709 24.3229 37.1123 24.3618 37.1526C25.5335 38.5879 26.3217 40.2021 26.6108 42.0469C26.7064 42.6554 26.4162 42.9619 25.8115 42.981C25.5891 42.9888 25.3523 42.972 25.1244 42.9944C24.4252 43.0581 24.0883 42.7852 24.006 42.0424C23.8949 41.0199 23.2901 40.2245 22.622 39.4694C21.0545 37.6963 19.4225 35.9702 18.2986 33.8525C17.5704 32.981 17.1813 31.9284 16.77 30.7728C16.4231 31.2258 16.601 31.5693 16.7288 31.8814C17.5726 33.9476 18.8088 35.771 20.2185 37.4804C21.0222 38.4548 21.8749 39.39 22.6898 40.3554C23.1774 40.9146 23.4593 41.6256 23.488 42.369C23.4947 42.5827 23.488 42.8053 23.2345 42.8758C23.0122 42.9384 22.8632 42.7829 22.811 42.6084C22.045 40.1026 19.8816 38.6438 18.3897 36.6928ZM28.8264 43.6634C29.2166 43.6634 29.5212 43.6309 29.2021 44.1981C28.9487 44.6523 28.8397 45.1892 28.6763 45.6915C28.5785 45.9925 28.4684 46.1916 28.0927 46.0036C27.7169 45.8157 27.2833 45.8918 26.8698 45.8839C25.5891 45.8728 24.3129 45.8694 23.03 45.8638C22.592 45.8638 22.4363 45.6747 22.6264 45.253C22.7687 44.9387 22.9421 44.6333 23.0344 44.3055C23.1634 43.858 23.4346 43.6634 23.8849 43.6734C24.2729 43.6801 24.6631 43.6734 25.051 43.6734C26.3128 43.7752 27.5702 43.6522 28.8264 43.66V43.6634ZM33.2399 39.6775C31.5 39.6484 29.7602 39.6719 28.0204 39.6697C26.3973 39.6697 26.3684 39.6372 25.9938 37.9983L25.9304 37.9346L25.8581 37.8619L25.8681 37.8518C25.9137 37.8977 25.9582 37.9424 26.0027 37.9894C26.7384 38.3099 27.5301 38.4799 28.3317 38.4894C29.6835 38.4894 30.9442 37.9525 32.1259 36.9233C32.8274 36.3136 33.2376 35.5283 33.5311 34.6703C34.0725 33.1041 34.0592 33.1265 35.4644 33.7966C36.0136 34.0583 36.217 34.3917 36.2214 35.017C36.2292 36.5273 35.6878 37.797 34.7762 38.9526C34.386 39.4638 33.898 39.6887 33.2399 39.6775ZM41.3553 39.0667C41.6888 39.5142 41.5032 39.6708 41.0218 39.6697C40.1324 39.6697 39.2375 39.6697 38.3437 39.6697C37.4499 39.6697 36.5583 39.6697 35.6667 39.6697C35.1842 39.6697 34.9997 39.5164 35.3332 39.0667C36.2037 37.9133 36.7028 36.6257 36.7306 35.1647C36.7395 34.734 36.9529 34.5438 37.3498 34.7933C37.638 35.0063 37.9862 35.1212 38.3437 35.1212C38.7012 35.1212 39.0494 35.0063 39.3376 34.7933C39.7344 34.5438 39.949 34.734 39.9579 35.1647C39.9846 36.6257 40.4859 37.9133 41.3553 39.0667ZM45.5564 34.2317C46.6681 35.0148 47.8143 35.6301 49.2695 35.2475C49.0116 35.7218 48.6136 35.8348 48.1756 35.8997C46.7304 36.1156 45.4875 35.6133 44.3224 34.8101C43.5965 34.31 43.3163 33.5795 43.253 32.7517C43.2118 32.2192 43.6376 31.9172 44.0312 31.8344C44.4247 31.7516 44.2335 32.2371 44.3169 32.4575C44.5848 33.1533 44.9272 33.7843 45.5564 34.2317ZM45.403 23.8112C45.2051 23.9712 45.0595 24.2419 45.1028 24.4824C45.3041 25.6179 44.7371 26.7343 45.0495 27.872C45.1344 28.2413 45.2008 28.6147 45.2485 28.9907C45.0951 29.4001 45.2674 29.8297 44.8916 30.1731C43.4364 31.5021 41.969 32.7774 40.2436 33.7843C39.5766 34.168 38.9618 34.4074 38.3459 34.4409C37.7323 34.4074 37.1119 34.168 36.4493 33.7843C34.7206 32.7774 33.2532 31.5021 31.7946 30.1731C31.4189 29.8297 31.5901 29.4001 31.4367 28.9907C31.4978 28.6383 31.5334 28.2445 31.6357 27.872C31.9481 26.7343 31.3811 25.6179 31.5812 24.4824C31.6257 24.2374 31.4811 23.9667 31.2833 23.8112C30.7652 23.3939 30.9809 23.0158 31.3122 22.641C32.0437 21.8076 32.9252 21.2158 34.0292 21.0033C34.525 20.9071 35.0164 20.8019 35.5088 20.6968C36.5839 20.4663 37.4821 19.9629 38.0658 18.993C38.1241 18.8723 38.2202 18.774 38.3392 18.7133C38.4589 18.7736 38.5554 18.8719 38.6138 18.993C39.1986 19.9629 40.098 20.4663 41.1708 20.6968C41.6632 20.8019 42.1557 20.9071 42.6504 21.0033C43.7555 21.2158 44.6348 21.8076 45.3685 22.641C45.7032 23.0102 45.9211 23.3883 45.403 23.8056V23.8112Z" fill="#2D1A0E"/>
<path d="M58.3111 40.4471V40.1708C59.153 40.1708 59.6989 40.0116 59.9486 39.6931C60.1984 39.3747 60.3233 38.8288 60.3233 38.0554V15.8674C60.3233 15.0843 60.2255 14.5149 60.0309 14.1659C59.8364 13.8169 59.2527 13.6289 58.2744 13.6066V13.3302H65.5005V13.6066C64.829 13.6066 64.3591 13.6927 64.0908 13.865C63.8523 14.003 63.6658 14.2166 63.5606 14.4724C63.4753 14.7051 63.4327 15.2327 63.4327 16.0554V35.0898C63.4327 36.7215 63.8226 37.8723 64.6022 38.542C65.3819 39.2117 66.7159 39.5473 68.6044 39.5488H71.8928C73.4758 39.5488 74.6361 39.1562 75.3735 38.3709C76.1109 37.5855 76.5219 36.1063 76.6064 33.933H76.881V40.4505L58.3111 40.4471Z" fill="#2D1A0E"/>
<path d="M89.7568 16.9716C92.4405 16.9716 94.6346 17.7919 96.3393 19.4327C98.0439 21.0734 98.8962 23.1225 98.8962 25.5798C98.8962 28.7427 97.9093 31.4041 95.9357 33.5639C93.9621 35.7237 91.3436 36.8051 88.0804 36.8081C85.4323 36.8081 83.2641 35.937 81.5758 34.1948C79.8875 32.4527 79.043 30.3611 79.0422 27.9201C79.0422 26.2734 79.4499 24.5835 80.2651 22.8502C81.0756 21.1213 82.3482 19.6533 83.9404 18.6104C85.5761 17.5171 87.5149 16.9708 89.7568 16.9716ZM89.679 35.7856C90.9945 35.7856 92.2915 35.4306 93.57 34.7206C94.8241 34.0371 95.8698 33.0232 96.5949 31.7874C97.3309 30.5427 97.6989 29.2622 97.6989 27.9458C97.716 26.1407 97.1981 24.3713 96.2114 22.8637C95.2459 21.3631 93.9199 20.1319 92.356 19.2839C90.7766 18.4217 89.3159 17.9907 87.9737 17.9907C86.0786 17.9907 84.358 18.7092 82.812 20.1464C81.266 21.5835 80.4949 23.3701 80.4986 25.506C80.4986 28.2319 81.4424 30.6273 83.3301 32.6924C85.2178 34.7575 87.3341 35.7886 89.679 35.7856Z" fill="#2D1A0E"/>
<path d="M111.375 16.9716C114.059 16.9716 116.253 17.7919 117.958 19.4327C119.664 21.0734 120.516 23.1225 120.515 25.5798C120.515 28.7427 119.529 31.4041 117.555 33.5639C115.581 35.7237 112.963 36.8051 109.7 36.8081C107.051 36.8081 104.882 35.937 103.194 34.1948C101.506 32.4527 100.662 30.3622 100.663 27.9235C100.663 26.2768 101.07 24.5868 101.885 22.8536C102.694 21.1251 103.964 19.6571 105.554 18.6138C107.193 17.5182 109.133 16.9708 111.375 16.9716ZM111.297 35.7856C112.613 35.7856 113.91 35.4306 115.188 34.7206C116.442 34.0371 117.488 33.0232 118.213 31.7874C118.949 30.5427 119.317 29.2622 119.317 27.9458C119.337 26.1419 118.823 24.3728 117.841 22.8637C116.874 21.3633 115.548 20.1321 113.984 19.2839C112.404 18.4217 110.943 17.9907 109.602 17.9907C107.706 17.9907 105.986 18.7092 104.441 20.1464C102.897 21.5835 102.122 23.3701 102.118 25.506C102.118 28.2319 103.061 30.6273 104.948 32.6924C106.835 34.7575 108.951 35.7886 111.297 35.7856Z" fill="#2D1A0E"/>
<path d="M137.135 16.9324L136.227 19.2581H136.031C136.07 19.0744 136.088 18.8867 136.084 18.6988C136.084 18.4986 136.012 18.371 135.87 18.314C135.65 18.2462 135.42 18.2174 135.19 18.229H130.202V34.6893C130.202 35.3687 130.256 35.8322 130.364 36.0798C130.401 36.1853 130.46 36.2817 130.536 36.3628C130.613 36.444 130.706 36.508 130.809 36.5508C131.103 36.6288 131.407 36.6616 131.711 36.6481V36.8439H126.531V36.6481C127.18 36.6041 127.588 36.4777 127.754 36.2689C127.92 36.06 128.002 35.6249 128 34.9634V18.2256H123.22C122.737 18.2256 122.421 18.2539 122.274 18.3106C122.127 18.3677 122.052 18.5086 122.052 18.7346C122.064 18.9129 122.098 19.0888 122.155 19.2581H121.954L121.044 16.9324H121.24C121.395 17.2456 121.548 17.4351 121.699 17.5007C121.85 17.5663 122.177 17.5988 122.679 17.598H135.372C135.736 17.6121 136.1 17.5794 136.455 17.5007C136.677 17.4351 136.839 17.2456 136.941 16.9324H137.135Z" fill="#2D1A0E"/>
<path d="M138.646 13.6043V13.328H145.65C147.7 13.328 149.151 13.4141 150.004 13.5864C150.874 13.7648 151.704 14.0982 152.457 14.5709C153.237 15.0564 153.902 15.7563 154.451 16.6706C155.007 17.6139 155.292 18.694 155.274 19.7906C155.274 22.0862 154.152 23.8966 151.908 25.2219C153.847 25.553 155.31 26.3599 156.299 27.6427C157.288 28.9254 157.782 30.4812 157.781 32.3098C157.798 33.9517 157.357 35.5655 156.509 36.968C155.661 38.3679 154.691 39.2975 153.6 39.7569C152.508 40.2163 150.981 40.4464 149.017 40.4471H138.606V40.1708C139.436 40.1708 139.966 40.0023 140.198 39.6652C140.43 39.3281 140.546 38.4663 140.546 37.0799V16.6583C140.546 15.6776 140.519 15.0094 140.464 14.6536C140.443 14.488 140.383 14.3297 140.289 14.1921C140.195 14.0545 140.07 13.9415 139.924 13.8627C139.621 13.6905 139.195 13.6043 138.646 13.6043ZM143.66 13.8997V25.8114H146.935C149.154 25.8114 150.627 25.173 151.353 23.8962C152.079 22.6194 152.442 21.349 152.441 20.0849C152.441 18.7223 152.161 17.5842 151.6 16.6706C151.039 15.757 150.219 15.0664 149.14 14.5988C148.06 14.1327 146.471 13.8997 144.373 13.8997H143.66ZM145.763 26.3819H143.66V34.979C143.66 36.1723 143.706 36.9457 143.797 37.2992C143.921 37.7132 144.133 38.0949 144.419 38.4178C144.742 38.8109 145.263 39.1267 145.983 39.3654C146.704 39.604 147.741 39.7237 149.096 39.7245C151.194 39.7245 152.677 39.2367 153.543 38.2612C154.409 37.2857 154.842 35.8404 154.841 33.9252C154.841 31.9369 154.457 30.3171 153.689 29.0656C152.92 27.8142 152.051 27.0546 151.081 26.7869C150.11 26.5169 148.337 26.3819 145.763 26.3819Z" fill="#2D1A0E"/>
<path d="M170.55 16.9716C173.232 16.9716 175.426 17.7919 177.132 19.4327C178.838 21.0734 179.691 23.1225 179.689 25.5798C179.689 28.7427 178.702 31.4041 176.729 33.5639C174.755 35.7237 172.137 36.8051 168.873 36.8081C166.225 36.8081 164.057 35.937 162.369 34.1948C160.681 32.4527 159.836 30.3622 159.836 27.9235C159.836 26.2768 160.244 24.5868 161.059 22.8536C161.868 21.1256 163.138 19.6578 164.728 18.6138C166.367 17.5182 168.308 16.9708 170.55 16.9716ZM170.472 35.7856C171.787 35.7856 173.084 35.4306 174.363 34.7206C175.617 34.0371 176.663 33.0232 177.388 31.7874C178.124 30.5427 178.492 29.2622 178.492 27.9458C178.509 26.1407 177.991 24.3713 177.004 22.8637C176.039 21.3634 174.713 20.1322 173.149 19.2839C171.568 18.4217 170.107 17.9907 168.767 17.9907C166.871 17.9907 165.15 18.7092 163.605 20.1464C162.06 21.5835 161.289 23.3701 161.292 25.506C161.292 28.2319 162.235 30.6273 164.122 32.6924C166.009 34.7575 168.126 35.7886 170.472 35.7856Z" fill="#2D1A0E"/>
<path d="M196.18 17.2647V17.4615C195.643 17.3996 195.167 17.6651 194.752 18.258C194.743 18.258 194.73 18.2703 194.713 18.2972C194.705 18.3216 194.692 18.3438 194.674 18.3621L194.57 18.5053C194.527 18.5579 194.505 18.5925 194.505 18.6104L194.376 18.7402L189.509 25.6235L195.336 34.0953C195.977 35.0707 196.466 35.6909 196.804 35.9556C197.142 36.2204 197.466 36.3401 197.778 36.3147V36.5105H193.025V36.3147C193.43 36.3405 193.633 36.1973 193.633 35.884C193.633 35.6327 193.499 35.3113 193.231 34.9197L188.147 27.5498L183.033 34.7743C183.033 34.7832 182.932 34.9305 182.73 35.2162C182.496 35.4958 182.379 35.7446 182.379 35.9623C182.379 36.2234 182.597 36.3408 183.031 36.3147V36.5105H180.174V36.3147C180.379 36.315 180.582 36.2721 180.77 36.1889C180.958 36.1057 181.126 35.9839 181.264 35.8315L181.487 35.5965L187.69 26.8809L181.967 18.5836C181.967 18.4628 181.802 18.2357 181.473 17.9057C181.144 17.5756 180.776 17.4269 180.369 17.4582V17.2613H185.188V17.4582C184.666 17.4582 184.409 17.6014 184.409 17.8889C184.409 18.0981 184.568 18.4337 184.89 18.8957L189.06 24.9578L193.571 18.6127C193.58 18.6048 193.647 18.4818 193.772 18.2457C193.859 18.1081 193.923 17.9569 193.961 17.7983C193.961 17.6495 193.916 17.5566 193.824 17.5164C193.651 17.4668 193.471 17.4471 193.292 17.4582V17.2613L196.18 17.2647Z" fill="#2D1A0E"/>
<path d="M40.555 4.44565C44.9914 7.41016 48.3124 11.242 50.518 15.9412C52.7237 20.6405 53.8268 25.2222 53.8276 29.6865C53.8276 36.2994 51.5393 41.9674 46.9628 46.6905C42.3863 51.4136 36.5069 53.7755 29.3245 53.7763C20.4776 53.7763 13.3782 50.8475 8.0265 44.9901C2.67476 39.1327 -0.000740982 31.9179 1.53933e-07 23.3458C1.53933e-07 16.6852 2.3116 11.129 6.93481 6.67743C11.558 2.22581 17.5079 0 24.7843 0C30.8661 0 36.123 1.48188 40.555 4.44565ZM42.2103 42.6219C47.3241 37.024 49.881 30.5293 49.881 23.1377C49.881 17.3512 47.7862 12.5095 43.5966 8.61275C39.4069 4.716 34.7437 2.76613 29.6069 2.76315C25.9694 2.76315 22.0088 3.93217 17.725 6.27022C13.4864 8.57075 9.89237 11.9092 7.27499 15.977C4.58467 20.1095 3.23913 24.7028 3.23839 29.757C3.23839 33.3234 4.23596 36.795 6.2311 40.1719C8.22624 43.5489 10.9607 46.2002 14.4344 48.1258C17.9073 50.0499 21.4277 51.012 24.9955 51.012C31.356 51.012 37.0942 48.2153 42.2103 42.6219Z" fill="#2D1A0E"/>
</svg>
