<svg width="35" height="35" viewBox="0 0 35 35" fill="none" xmlns="http://www.w3.org/2000/svg">
<rect width="35" height="35" fill="#E5E5E5"/>
<g id="35-Lootbox">
<g clip-path="url(#clip0_245_551)">
<rect width="35" height="35" rx="17.5" fill="#582D6C"/>
<g id="Group 2">
<path id="Vector" d="M34.7545 11.7913L34.7465 11.9659L34.901 11.8844C35.1165 11.7708 35.3291 11.6605 35.5452 11.5662L35.6285 11.5298L35.6002 11.4434C35.3759 10.759 35.1124 10.0883 34.8108 9.43475L34.624 9.50461C34.8288 10.2075 34.7949 10.9287 34.7602 11.669C34.7583 11.7097 34.7564 11.7505 34.7545 11.7913Z" fill="#FBC44C" stroke="#FBC44C" stroke-width="0.2"/>
<path id="Vector_2" d="M34.5801 11.6152L34.5721 11.7897L34.7266 11.7083C34.9421 11.5947 35.1547 11.4844 35.3708 11.3901L35.4541 11.3537L35.4258 11.2673C35.2015 10.5828 34.938 9.91215 34.6364 9.25863L34.4496 9.32849C34.6544 10.0314 34.6205 10.7526 34.5858 11.4929C34.5839 11.5336 34.582 11.5744 34.5801 11.6152Z" fill="#FBC44C" stroke="#FBC44C" stroke-width="0.2"/>
<path id="Vector_3" d="M26.5552 17.3845L26.5552 17.3846L26.5583 17.3829C27.6059 16.7966 27.7224 15.3817 26.7393 14.6326L26.7393 14.6326L26.737 14.6309C26.3459 14.3502 25.8777 14.1993 25.3975 14.1993C24.9174 14.1993 24.4492 14.3502 24.058 14.6309L24.058 14.6309L24.0558 14.6326C23.0726 15.3808 23.1892 16.7967 24.2377 17.3829L24.2376 17.3829L24.2402 17.3843C24.362 17.4479 24.4661 17.5414 24.543 17.6563C24.6198 17.7712 24.6669 17.9038 24.6798 18.0419L24.6798 18.0419L24.68 18.0436C24.7292 18.4879 24.6948 18.8844 24.4347 19.272C24.2238 19.5846 24.1648 19.889 24.2875 20.1332C24.4093 20.3756 24.6893 20.5168 25.0594 20.5527L25.0594 20.5531L25.068 20.5532C25.2862 20.5555 25.5045 20.5555 25.7227 20.5532L25.7227 20.5535L25.7311 20.5527C26.102 20.5173 26.3824 20.3764 26.5044 20.1339C26.6272 19.8896 26.5682 19.5851 26.3578 19.2721L26.3577 19.2719C26.0986 18.888 26.0641 18.4882 26.1125 18.0434L26.1126 18.042C26.1256 17.9035 26.1731 17.7706 26.2505 17.6557C26.3279 17.5408 26.4327 17.4476 26.5552 17.3845Z" fill="#FBC44C" stroke="#FBC44C" stroke-width="0.2"/>
<path id="Vector_4" d="M29.0229 19.6703L29.0229 19.6703C28.7818 19.8443 28.5402 20.018 28.2985 20.1916C27.4566 20.7966 26.6134 21.4026 25.7868 22.0307L25.7867 22.0306L25.7829 22.0338C25.6683 22.1301 25.5299 22.193 25.3827 22.2157L25.298 22.2288V22.3146V22.6897V22.7943L25.4024 22.7896C25.5649 22.7823 25.7213 22.7256 25.8511 22.6273C26.0196 22.5042 26.1881 22.3812 26.3566 22.2582C27.3526 21.5311 28.3489 20.8038 29.3407 20.0695L29.3407 20.0695L29.3419 20.0686C29.358 20.0563 29.374 20.0452 29.3924 20.0324C29.4066 20.0226 29.4223 20.0117 29.4407 19.9984C29.4779 19.9715 29.5205 19.9385 29.5554 19.9C29.5899 19.8619 29.6247 19.81 29.632 19.7449C29.6397 19.6757 29.6145 19.6109 29.566 19.5537C29.5179 19.4971 29.4589 19.4614 29.39 19.4572C29.325 19.4532 29.2687 19.4784 29.226 19.5048C29.1831 19.5314 29.1431 19.5663 29.1103 19.5956C29.1052 19.6002 29.1002 19.6047 29.0954 19.609C29.067 19.6345 29.0444 19.6548 29.0229 19.6703Z" fill="#FBC44C" stroke="#FBC44C" stroke-width="0.2"/>
<path id="Vector_5" d="M28.8983 18.9342L28.7987 18.9248C28.798 18.9323 28.7971 18.9406 28.7961 18.9496C28.7912 18.9947 28.7845 19.0562 28.792 19.1114C28.8026 19.1889 28.8412 19.2655 28.9338 19.3129L28.9341 19.3131L29.3741 19.163C29.3742 19.1629 29.3743 19.1628 29.3744 19.1628C29.5273 18.996 29.5264 18.7906 29.4949 18.6164C29.2956 17.4997 29.494 16.4203 29.8143 15.3393L29.7184 15.3109L29.8142 15.3397C29.8207 15.3178 29.8322 15.2924 29.8479 15.2576C29.8489 15.2554 29.8499 15.2531 29.851 15.2508C29.8666 15.2162 29.8861 15.1725 29.8976 15.1283C29.909 15.0843 29.9162 15.0268 29.8937 14.9693C29.8697 14.9083 29.8201 14.8663 29.7567 14.8399C29.6936 14.8137 29.6294 14.808 29.5695 14.8324C29.5124 14.8556 29.4755 14.8997 29.4511 14.939C29.4267 14.9783 29.4089 15.0227 29.395 15.0592C29.3914 15.0686 29.3881 15.0774 29.385 15.0857C29.3749 15.1128 29.3668 15.1344 29.3578 15.1531L29.3578 15.1531L29.3572 15.1543C28.938 16.0553 28.9057 17.0204 28.8743 17.9595C28.8737 17.9764 28.8731 17.9933 28.8726 18.0102C28.8656 18.0983 28.8587 18.1864 28.8518 18.2745C28.8348 18.4931 28.8179 18.711 28.7987 18.9253L28.8983 18.9342ZM28.8983 18.9342C28.8973 18.9444 28.8962 18.9546 28.8951 18.9649M28.8983 18.9342L28.8951 18.9649M28.8951 18.9649C28.8844 19.0659 28.8733 19.1696 28.9794 19.2239L28.8951 18.9649Z" fill="#FBC44C" stroke="#FBC44C" stroke-width="0.2"/>
<path id="Vector_6" d="M27.4476 2.76738L27.4477 2.76785C27.4544 2.87545 27.4765 2.94879 27.505 2.99957C27.5328 3.04894 27.5693 3.08156 27.6143 3.10464C27.7119 3.15478 27.8476 3.16098 28.0238 3.16372L28.024 3.16372L30.1005 3.2007L30.1377 3.20136L30.1655 3.22625C30.3392 3.38209 30.5094 3.54088 30.6761 3.70264L30.8528 3.87406L30.6066 3.8744C29.7768 3.87558 28.9466 3.87851 28.1162 3.88321C27.9356 3.88431 27.8038 3.89031 27.7051 3.90836C27.6075 3.92621 27.5542 3.95388 27.5202 3.98939C27.4857 4.02547 27.4587 4.08255 27.4413 4.18538C27.4238 4.2887 27.4178 4.42562 27.4156 4.61119V4.61125C27.4127 4.84186 27.4109 5.07324 27.409 5.30488C27.4064 5.63615 27.4038 5.96796 27.3981 6.29878V6.30126C27.3982 6.35931 27.3982 6.44784 27.3683 6.52321C27.352 6.56439 27.3254 6.60583 27.2824 6.63727C27.2392 6.66882 27.1868 6.68485 27.1283 6.68755C27.0689 6.69029 27.0147 6.67837 26.9689 6.64892C26.9235 6.61978 26.8951 6.57913 26.8769 6.53958C26.8483 6.47747 26.8387 6.40086 26.8322 6.34906C26.8311 6.34057 26.8301 6.33275 26.8292 6.32577L26.8289 6.32399L26.8289 6.32399C26.8089 6.15759 26.7997 5.99006 26.8012 5.82246M27.4476 2.76738L26.9012 5.82249M27.4476 2.76738C27.4424 2.6901 27.4196 2.62338 27.3803 2.56829C27.3412 2.51356 27.2895 2.47568 27.2345 2.4497C27.1277 2.3993 26.9992 2.38973 26.8924 2.38973H26.8895H26.8866H26.8837H26.8808H26.8779H26.8749H26.872H26.8691H26.8662H26.8633H26.8603H26.8574H26.8545H26.8516H26.8487H26.8457H26.8428H26.8399H26.837H26.8341H26.8311H26.8282H26.8253H26.8224H26.8195H26.8166H26.8136H26.8107H26.8078H26.8049H26.802H26.799H26.7961H26.7932H26.7903H26.7874H26.7844H26.7815H26.7786H26.7757H26.7728H26.7698H26.7669H26.764H26.7611H26.7582H26.7552H26.7523H26.7494H26.7465H26.7436H26.7406H26.7377H26.7348H26.7319H26.729H26.726H26.7231H26.7202H26.7173H26.7144H26.7114H26.7085H26.7056H26.7027H26.6998H26.6968H26.6939H26.691H26.6881H26.6852H26.6822H26.6793H26.6764H26.6735H26.6706H26.6676H26.6647H26.6618H26.6589H26.656H26.653H26.6501H26.6472H26.6443H26.6414H26.6384H26.6355H26.6326H26.6297H26.6268H26.6238H26.6209H26.618H26.6151H26.6122H26.6092H26.6063H26.6034H26.6005H26.5975H26.5946H26.5917H26.5888H26.5859H26.5829H26.58H26.5771H26.5742H26.5713H26.5683H26.5654H26.5625H26.5596H26.5567H26.5537H26.5508H26.5479H26.545H26.5421H26.5391H26.5362H26.5333H26.5304H26.5275H26.5245H26.5216H26.5187H26.5158H26.5128H26.5099H26.507H26.5041H26.5012H26.4982H26.4953H26.4924H26.4895H26.4866H26.4836H26.4807H26.4778H26.4749H26.472H26.469H26.4661H26.4632H26.4603H26.4573H26.4544H26.4515H26.4486H26.4457H26.4427H26.4398H26.4369H26.434H26.4311H26.4281H26.4252H26.4223H26.4194H26.4165H26.4135H26.4106H26.4077H26.4048H26.4018H26.3989H26.396H26.3931H26.3902H26.3872H26.3843H26.3814H26.3785H26.3756H26.3726H26.3697H26.3668H26.3639H26.3609H26.358H26.3551H26.3522H26.3493H26.3463H26.3434H26.3405H26.3376H26.3347H26.3317H26.3288H26.3259H26.323H26.3201H26.3171H26.3142H26.3113H26.3084H26.3054H26.3025H26.2996H26.2967H26.2938H26.2908H26.2879H26.285H26.2821H26.2792H26.2762H26.2733H26.2704H26.2675H26.2645H26.2616H26.2587H26.2558H26.2529H26.2499H26.247H26.2441H26.2412H26.2383H26.2353H26.2324H26.2295H26.2266H26.2236H26.2207H26.2178H26.2149H26.212H26.209H26.2061H26.2032H26.2003H26.1973H26.1944H26.1915H26.1886H26.1857H26.1827H26.1798H26.1769H26.174H26.1711H26.1681H26.1652H26.1623H26.1594H26.1564H26.1535H26.1506H26.1477H26.1448H26.1418H26.1389H26.136H26.1331H26.1302H26.1272H26.1243H26.1214H26.1185H26.1155H26.1126H26.1097H26.1068H26.1039H26.1009H26.098H26.0951H26.0922H26.0893H26.0863H26.0834H26.0805H26.0776H26.0746H26.0717H26.0688H26.0659H26.063H26.06H26.0571H26.0542H26.0513H26.0484H26.0454H26.0425H26.0396H26.0367H26.0337H26.0308H26.0279H26.025H26.0221H26.0191H26.0162H26.0133H26.0104H26.0075H26.0045H26.0016H25.9987H25.9958H25.9928H25.9899H25.987H25.9841H25.9812H25.9782H25.9753H25.9724H25.9695H25.9666H25.9636H25.9607H25.9578H25.9549H25.9519H25.949H25.9461H25.9432H25.9403H25.9373H25.9344H25.9315H25.9286H25.9257H25.9227H25.9198H25.9169H25.914H25.911H25.9081H25.9052H25.9023H25.8994H25.8964H25.8935H25.8906H25.8877H25.8848H25.8818H25.8789H25.876H25.8731H25.8702H25.8672H25.8643H25.8614H25.8585H25.8555H25.8526H25.8497H25.8468H25.8439H25.8409H25.838H25.8351H25.8322H25.8293H25.8263H25.8234H25.8205H25.8176H25.8147H25.8117H25.8088H25.8059H25.803H25.8H25.7971H25.7942H25.7913H25.7884H25.7854H25.7825H25.7796H25.7767H25.7738H25.7708H25.7679H25.765H25.7621H25.7592H25.7562H25.7533H25.7504H25.7475H25.7446H25.7416H25.7387H25.7358H25.7329H25.7299H25.727H25.7241H25.7212H25.7183H25.7153H25.7124H25.7095H25.7066H25.7037H25.7007H25.6978H25.6949H25.692H25.6891H25.6861H25.6832H25.6803H25.6774H25.6745H25.6715H25.6686H25.6657H25.6628H25.6599H25.6569H25.654H25.6511H25.6482H25.6453H25.6423H25.6394H25.6365H25.6336H25.6306H25.6277H25.6248H25.6219H25.619H25.616H25.6131H25.6102H25.6073H25.6044H25.6014H25.5985H25.5956H25.5927H25.5898H25.5868H25.5839H25.581H25.5781H25.5752H25.5722H25.5693H25.5664H25.5635H25.5606H25.5576H25.5547H25.5518H25.5489H25.546H25.543H25.5401H25.5372H25.5343H25.5314H25.5284H25.5255H25.5226H25.5197H25.5168H25.5138H25.5109H25.508H25.5051H25.5022H25.4993H25.4963H25.4934H25.4905H25.4876H25.4847H25.4817H25.4788H25.4759H25.473H25.4701H25.4671H25.4642H25.4613H25.4584H25.4555H25.4525H25.4496H25.4467H25.4438H25.4409H25.4379H25.435H25.4321H25.4292H25.4263H25.4233H25.4204H25.4175H25.4146H25.4117H25.4088H25.4058H25.4029H25.4H25.3971H25.3942H25.3912H25.3883H25.3854H25.3825H25.3796H25.3766H25.3737H25.3708H25.3679H25.365H25.3621H25.3591H25.3562H25.3533H25.3504H25.3475H25.3445H25.3416H25.3387H25.3358H25.3329H25.3299H25.327H25.3241H25.3212H25.3183H25.3154H25.3124H25.3095H25.3066H25.3037H25.3008H25.2978H25.2949H25.292H25.2891H25.2862H25.2833H25.2803H25.2774H25.2745H25.2716H25.2687H25.2657H25.2628H25.2599H25.257H25.2541H25.2512H25.2482H25.2453H25.2424H25.2395H25.2366H25.2336H25.2307H25.2278H25.2249H25.222H25.2191H25.2161H25.2132H25.2103H25.2074H25.2045H25.2015H25.1986H25.1957H25.1928H25.1899H25.187H25.184H25.1811H25.1782H25.1753H25.1724H25.1695H25.1665H25.1636H25.1607H25.1578H25.1549H25.1519H25.149H25.1461H25.1432H25.1403H25.1374H25.1344H25.1315H25.1286H25.1257H25.1228H25.1199H25.1169H25.114H25.1111H25.1082H25.1053H25.1023H25.0994H25.0965H25.0936H25.0907H25.0878H25.0848H25.0819H25.079H25.0761H25.0732H25.0703H25.0673H25.0644H25.0615H25.0586H25.0557H25.0527H25.0498H25.0469H25.044H25.0411H25.0382H25.0352H25.0323H25.0294H25.0265H25.0236H25.0207H25.0177H25.0148H25.0119H25.009H25.0061H25.0032H25.0002H24.9973H24.9944H24.9915H24.9886H24.9856H24.9827H24.9798H24.9769H24.974H24.9711H24.9681H24.9652H24.9623H24.9594H24.9565H24.9536H24.9506H24.9477H24.9448H24.9419H24.939H24.9361H24.9331H24.9302H24.9273H24.9244H24.9215H24.9186H24.9156H24.9127H24.9098H24.9069H24.904H24.901H24.8981H24.8952H24.8923H24.8894H24.8865H24.8835H24.8806H24.8777H24.8748H24.8719H24.869H24.866H24.8631H24.8602H24.8573H24.8544H24.8515H24.8485H24.8456H24.8427H24.8398H24.8369H24.834H24.831H24.8281H24.8252H24.8223H24.8194H24.8164H24.8135H24.8106H24.8077H24.8048H24.8019H24.7989H24.796H24.7931H24.7902H24.7873H24.7844H24.7814H24.7785H24.7756H24.7727H24.7698H24.7669H24.7639H24.761H24.7581H24.7552H24.7523H24.7493H24.7464H24.7435H24.7406H24.7377H24.7348H24.7318H24.7289H24.726H24.7231H24.7202H24.7173H24.7143H24.7114H24.7085H24.7056H24.7027H24.6998H24.6968H24.6939H24.691H24.6881H24.6852H24.6822H24.6793H24.6764H24.6735H24.6706H24.6677H24.6647H24.6618H24.6589H24.656H24.6531H24.6502H24.6472H24.6443H24.6414H24.6385H24.6356H24.6326H24.6297H24.6268H24.6239H24.621H24.6181H24.6151H24.6122H24.6093H24.6064H24.6035H24.6006H24.5976H24.5947H24.5918H24.5889H24.586H24.583H24.5801H24.5772H24.5743H24.5714H24.5685H24.5655H24.5626H24.5597H24.5568H24.5539H24.5509H24.548H24.5451H24.5422H24.5393H24.5364H24.5334H24.5305H24.5276H24.5247H24.5218H24.5188H24.5159H24.513H24.5101H24.5072H24.5043H24.5013H24.4984H24.4955H24.4926H24.4897H24.4867H24.4838H24.4809H24.478H24.4751H24.4722H24.4692H24.4663H24.4634H24.4605H24.4576H24.4546H24.4517H24.4488H24.4459H24.443H24.44H24.4371H24.4342H24.4313H24.4284H24.4255H24.4225H24.4196H24.4167H24.4138H24.4109H24.4079H24.405H24.4021H24.3992H24.3963H24.3933H24.3904H24.3875H24.3846H24.3817H24.3788H24.3758H24.3729H24.37H24.3671H24.3642H24.3612H24.3583H24.3554H24.3525H24.3496H24.3466H24.3437H24.3408H24.3379H24.335H24.332H24.3291H24.3262H24.3233H24.3204H24.3174H24.3145H24.3116H24.3087H24.3058H24.3028H24.2999H24.297H24.2941H24.2912H24.2882H24.2853H24.2824H24.2795H24.2766H24.2736H24.2707H24.2678H24.2649H24.262H24.259H24.2561H24.2532H24.2503H24.2474H24.2444H24.2415H24.2386H24.2357H24.2328H24.2298H24.2269H24.224H24.2211H24.2182H24.2152H24.2123H24.2094H24.2065H24.2036H24.2006H24.1977H24.1948H24.1919H24.189H24.186H24.1831H24.1802H24.1773H24.1744H24.1714H24.1685H24.1656H24.1627H24.1598H24.1568H24.1539H24.151H24.1481H24.1451H24.1422H24.1393H24.1364H24.1335H24.1305H24.1276H24.1247H24.1218H24.1189H24.1159H24.113H24.1101H24.1072H24.1042H24.1013H24.0984H24.0955H24.0926H24.0896H24.0867H24.0838H24.0809H24.078H24.075H24.0721H24.0692H24.0663H24.0633H24.0604H24.0575H24.0546H24.0517H24.0487H24.0458H24.0429H24.04H24.037H24.0341H24.0312H24.0283H24.0254H24.0224H24.0195H24.0166H24.0137H24.0107H24.0078H24.0049H24.002H23.999H23.9961H23.9932H23.9903H23.9874H23.9844H23.9815H23.9786H23.9757H23.9727H23.9698H23.9669H23.964H23.961H23.9581H23.9552H23.9523H23.9494H23.9464H23.9435H23.9406H23.9377H23.9347H23.9318H23.9289H23.926H23.923H23.9201H23.9172H23.9143H23.9113H23.9084H23.9055H23.9026C23.7958 2.38973 23.6679 2.39929 23.5615 2.44979C23.5066 2.47581 23.4552 2.5137 23.4162 2.56829C23.377 2.62318 23.3541 2.68965 23.3483 2.76667L23.3482 2.76767C23.3413 2.87523 23.3191 2.94856 23.2903 2.99934C23.2623 3.04873 23.2256 3.08142 23.1804 3.10456C23.0821 3.15479 22.9457 3.16098 22.7686 3.16371M27.4476 2.76738L18.1359 3.25178M26.8012 5.82246C26.8012 5.82216 26.8012 5.82187 26.8012 5.82157L26.9012 5.82249M26.8012 5.82246C26.8012 5.82276 26.8012 5.82307 26.8012 5.82337L26.9012 5.82249M26.8012 5.82246C26.7997 5.65816 26.7977 5.49357 26.7956 5.32876C26.789 4.80439 26.7824 4.27777 26.7951 3.75117M26.9012 5.82249C26.8997 5.65706 26.8976 5.49162 26.8956 5.32618C26.889 4.80213 26.8825 4.27795 26.8951 3.75327M26.7951 3.75117L26.8951 3.75327M26.7951 3.75117C26.8005 3.49287 26.745 3.33819 26.6505 3.24797C26.5555 3.15724 26.3982 3.10962 26.1474 3.12058L26.1469 3.1206C25.9556 3.12808 25.7622 3.12881 25.5718 3.12952C25.5135 3.12974 25.4554 3.12995 25.3978 3.13036C25.1494 3.13213 24.8989 3.13126 24.6478 3.12059L24.6476 3.12058C24.3978 3.10962 24.2401 3.15721 24.1449 3.24803C24.0503 3.33824 23.9946 3.49285 24.0008 3.75085L24.0008 3.751C24.0125 4.26376 24.0064 4.77668 24.0003 5.28746C23.9982 5.46624 23.9961 5.64475 23.9947 5.8229M26.7951 3.75117C26.7951 3.75107 26.7951 3.75097 26.7951 3.75087L26.8951 3.75327M26.8951 3.75327L23.9947 5.8229M23.9947 5.8229C23.9947 5.82278 23.9947 5.82267 23.9947 5.82255L23.8947 5.82249M23.9947 5.8229L26.143 3.02068C25.9536 3.02808 25.7627 3.0288 25.5726 3.02951C25.514 3.02973 25.4555 3.02995 25.3971 3.03037C25.1493 3.03213 24.9007 3.03125 24.652 3.02068C24.1303 2.99779 23.8877 3.21263 23.9008 3.75327C23.9125 4.26415 23.9064 4.77455 23.9003 5.28482C23.8982 5.46405 23.8961 5.64327 23.8947 5.82249M23.9947 5.8229C23.9946 5.99013 23.9851 6.15722 23.9662 6.32336L23.9659 6.32577L23.9659 6.32577C23.965 6.33177 23.9642 6.33832 23.9633 6.3453C23.9564 6.39811 23.9462 6.47621 23.9161 6.54006C23.8977 6.57917 23.8693 6.61931 23.8247 6.64828C23.7794 6.67767 23.7259 6.69004 23.6672 6.68757C23.609 6.68513 23.5571 6.66898 23.5142 6.63747C23.4717 6.60621 23.4451 6.56506 23.4286 6.52426C23.3977 6.44789 23.3969 6.35846 23.3969 6.29891M23.9947 5.8229C23.9947 5.82302 23.9947 5.82313 23.9947 5.82325L23.8947 5.82249M23.8947 5.82249L23.3969 6.29891M27.3156 4.61001C27.3127 4.84168 27.3109 5.07334 27.309 5.30501C27.3064 5.636 27.3038 5.96698 27.2981 6.29797C27.2981 6.42212 27.2955 6.57973 27.1236 6.58766C26.9647 6.59498 26.9468 6.45555 26.9319 6.33983C26.9307 6.33038 26.9295 6.32109 26.9282 6.31206L27.3156 4.61001ZM27.3156 4.61001C27.3243 3.86862 27.3932 3.78761 28.1156 3.78321C28.8982 3.77878 29.6806 3.77592 30.4626 3.77462M27.3156 4.61001L30.4626 3.77462M30.4626 3.77462C30.4874 3.79841 30.5122 3.82226 30.5368 3.84617L30.6065 3.7744M30.4626 3.77462L30.6065 3.7744M30.6065 3.7744L30.6063 3.6744C30.5718 3.67445 30.5372 3.6745 30.5027 3.67456M30.6065 3.7744L30.5027 3.67456M30.5027 3.67456C30.3702 3.54809 30.2356 3.42347 30.0987 3.30068L28.0223 3.2637C27.682 3.25842 27.3775 3.24521 27.3479 2.77414C27.3313 2.52935 27.1001 2.48973 26.8924 2.48973H25.3971H23.9026C23.6949 2.48973 23.4664 2.52935 23.448 2.77414L30.5027 3.67456ZM23.4969 6.29797C23.4969 6.42212 23.5039 6.58061 23.6714 6.58766C23.8292 6.59429 23.8484 6.45009 23.8639 6.33323C23.8649 6.32606 23.8658 6.31898 23.8668 6.31206L22.6785 3.78321C23.4009 3.78761 23.4698 3.87126 23.4786 4.61001C23.4813 4.82884 23.4831 5.04767 23.4849 5.2665C23.4877 5.61032 23.4905 5.95414 23.4969 6.29797ZM23.4969 6.29797H23.3969C23.3969 6.29828 23.3969 6.29859 23.3969 6.29891M23.4969 6.29797L23.3969 6.29983C23.3969 6.29952 23.3969 6.29921 23.3969 6.29891M23.3969 6.29891C23.3905 5.95507 23.3877 5.61042 23.3849 5.26637C23.3831 5.04763 23.3813 4.82913 23.3786 4.61126L23.3786 4.6112C23.3764 4.42629 23.3704 4.28971 23.3529 4.18652C23.3354 4.08382 23.3085 4.02657 23.2738 3.99027C23.2398 3.95457 23.1864 3.92672 23.0889 3.9087C22.9903 3.89047 22.8584 3.88431 22.6779 3.88321L22.6777 3.88321C21.0057 3.86912 19.3328 3.86912 17.6585 3.86912H17.6284L17.6034 3.85256L17.4847 3.7742L17.4381 3.74342L17.4399 3.6876C17.4437 3.56486 17.4708 3.46661 17.5247 3.39275C17.5799 3.31703 17.6548 3.27847 17.7307 3.25999C17.8039 3.24214 17.8816 3.24211 17.9494 3.24474C17.9747 3.24573 17.9981 3.24701 18.0202 3.24823C18.062 3.25054 18.0991 3.25258 18.1359 3.25178M23.3969 6.29891L18.1359 3.25178M18.1359 3.25178C19.6114 3.21224 21.0861 3.18958 22.5608 3.16691C22.6301 3.16585 22.6993 3.16478 22.7686 3.16371M22.7686 3.16371L22.7701 3.2637M22.7686 3.16371C22.7686 3.16371 22.7686 3.16371 22.7686 3.16371L22.7701 3.2637M22.7701 3.2637C22.7009 3.26477 22.6317 3.26583 22.5625 3.2669C21.0876 3.28957 19.6133 3.31223 18.1383 3.35175L22.7701 3.2637Z" fill="#FBC44C" stroke="#FBC44C" stroke-width="0.2"/>
<path id="Vector_7" d="M21.6403 14.006L21.6024 13.9135C21.5714 13.9262 21.532 13.936 21.4817 13.9484L21.4802 13.9488C21.4339 13.9602 21.3783 13.9738 21.3287 13.9941C21.279 14.0144 21.2218 14.0465 21.1842 14.1031C21.1438 14.164 21.1366 14.2365 21.1559 14.3138L21.1559 14.3138L21.1561 14.3146C21.1786 14.4014 21.2213 14.469 21.2871 14.5101C21.3512 14.5502 21.4224 14.5558 21.4838 14.5498C21.5452 14.5437 21.606 14.5251 21.6579 14.5065C21.6843 14.497 21.7097 14.487 21.7326 14.4779C21.7354 14.4768 21.7381 14.4757 21.7408 14.4746C21.7608 14.4667 21.7783 14.4597 21.7944 14.4538L21.7599 14.36L21.7938 14.454C21.8079 14.449 21.8219 14.4439 21.8359 14.4388C22.4791 14.2064 23.1313 13.9707 23.753 13.6727L23.7531 13.6726C24.3346 13.3933 24.931 13.073 25.3347 12.4847L25.3349 12.4848L25.3382 12.4792C25.3539 12.4529 25.374 12.4299 25.3975 12.4111L21.6403 14.006ZM21.6403 14.006L21.6022 13.9136C21.8386 13.8161 22.0752 13.7274 22.3099 13.6394C22.8631 13.432 23.4064 13.2282 23.9157 12.9226L23.9158 12.9226C24.3514 12.6617 24.7245 12.3875 24.9731 11.9442L24.9732 11.944C25.0796 11.7557 25.217 11.6274 25.3762 11.5933L25.3969 11.5889L25.4177 11.5933C25.5788 11.6272 25.7163 11.7556 25.822 11.9443L25.7347 11.9932L21.253 14.2895C21.2102 14.1182 21.3629 14.0806 21.508 14.0449C21.5553 14.0333 21.6017 14.0218 21.6403 14.006Z" fill="#FBC44C" stroke="#FBC44C" stroke-width="0.2"/>
<path id="Vector_8" d="M25.012 22.0337L25.0121 22.0336L25.0082 22.0307C24.1816 21.4026 23.3384 20.7966 22.4965 20.1916C22.2548 20.0179 22.0132 19.8443 21.7721 19.6703L21.772 19.6703C21.7511 19.6551 21.729 19.636 21.702 19.6125C21.6957 19.607 21.6892 19.6013 21.6823 19.5954C21.6486 19.5663 21.6081 19.5324 21.565 19.5064C21.5224 19.4808 21.4664 19.4563 21.4028 19.4597C21.3344 19.4634 21.2758 19.4982 21.2291 19.5547C21.1819 19.6117 21.1594 19.6763 21.1677 19.7439C21.1755 19.8073 21.2087 19.8589 21.2424 19.8975C21.2938 19.9565 21.3699 20.0097 21.4223 20.0462C21.4349 20.055 21.4461 20.0629 21.4553 20.0696C22.4909 20.837 23.532 21.5966 24.5734 22.3563C24.6972 22.4467 24.821 22.537 24.9448 22.6273C25.075 22.7257 25.2316 22.7823 25.3943 22.7896L25.4988 22.7943V22.6897V22.3146V22.2287L25.4139 22.2157C25.2661 22.1932 25.1271 22.1303 25.012 22.0337Z" fill="#FBC44C" stroke="#FBC44C" stroke-width="0.2"/>
<path id="Vector_9" d="M21.3002 18.6164L21.3001 18.6167C21.2696 18.7901 21.2675 18.9959 21.4209 19.163L21.4209 19.163L21.4215 19.1637C21.4249 19.1673 21.4284 19.171 21.432 19.175C21.4706 19.2166 21.5232 19.2731 21.5853 19.3086C21.6216 19.3293 21.6645 19.3451 21.7135 19.3473C21.763 19.3496 21.8124 19.3379 21.8611 19.313L21.8612 19.3129C21.9041 19.291 21.9382 19.2615 21.9626 19.2245C21.9867 19.188 21.9981 19.1491 22.0031 19.1131C22.0106 19.0594 22.0045 18.9987 21.9999 18.9532C21.9989 18.9433 21.998 18.9341 21.9973 18.9258L21.9972 18.9251C21.9778 18.7123 21.9609 18.4973 21.9442 18.2838C21.937 18.1922 21.9298 18.1009 21.9225 18.0102C21.9219 17.9932 21.9214 17.9762 21.9208 17.9592C21.8893 17.0202 21.857 16.0554 21.4414 15.1563L21.4414 15.1563L21.4413 15.1559C21.4324 15.137 21.4245 15.1162 21.4149 15.0909C21.4112 15.0809 21.4072 15.0703 21.4027 15.0589C21.3884 15.022 21.3702 14.9777 21.3455 14.9387C21.3209 14.8998 21.2838 14.8563 21.2272 14.8335C21.1675 14.8095 21.1039 14.8155 21.0417 14.8421C20.9793 14.8688 20.9311 14.911 20.9075 14.971C20.8853 15.0276 20.8913 15.0844 20.9021 15.1286C20.913 15.1731 20.9318 15.2168 20.9475 15.252C20.9503 15.2584 20.953 15.2644 20.9556 15.2702C20.9686 15.2993 20.9787 15.322 20.9856 15.3426C21.3047 16.421 21.4994 17.5 21.3002 18.6164Z" fill="#FBC44C" stroke="#FBC44C" stroke-width="0.2"/>
<path id="Vector_10" d="M12.4067 13.2303L12.4067 13.2302C12.4058 13.1098 12.4207 13.0012 12.4621 12.9071C12.5045 12.8108 12.5722 12.7355 12.6663 12.6797C12.8462 12.573 13.1212 12.5395 13.5004 12.5395C13.9621 12.5395 14.2846 12.913 14.2766 13.3919C14.2765 13.3924 14.2765 13.3928 14.2765 13.3932L14.1765 13.3914C14.1774 13.4915 14.1579 13.5908 14.1194 13.683C14.0809 13.7753 14.0242 13.8586 13.9526 13.928C13.881 13.9973 13.7962 14.0512 13.7033 14.0862C13.6104 14.1213 13.5114 14.1369 13.4123 14.1319L12.4067 13.2303ZM12.4067 13.2303C12.4116 13.7593 12.8745 14.213 13.4081 14.2318L12.4067 13.2303ZM13.1149 13.3899L13.1149 13.3899L13.1152 13.3879C13.1266 13.3083 13.1615 13.26 13.2084 13.2268C13.2588 13.191 13.3291 13.169 13.4133 13.1577C13.4478 13.1531 13.4634 13.1576 13.4685 13.1598C13.4716 13.1612 13.4741 13.1628 13.4776 13.1694C13.4822 13.1782 13.4869 13.1936 13.4896 13.2189C13.4921 13.2435 13.4922 13.2719 13.4912 13.3043C13.4859 13.3986 13.4575 13.4493 13.425 13.477C13.3917 13.5055 13.3366 13.5244 13.2485 13.5188L13.248 13.5188C13.1875 13.5152 13.1516 13.4977 13.134 13.4802C13.12 13.4662 13.1064 13.4417 13.1149 13.3899Z" fill="#FBC44C" stroke="#FBC44C" stroke-width="0.2"/>
<g id="Vector_11">
<mask id="path-12-outside-1_245_551" maskUnits="userSpaceOnUse" x="4" y="1" width="33" height="33" fill="black">
<rect fill="white" x="4" y="1" width="33" height="33"/>
<path d="M31.8741 19.187C31.2433 19.1826 31.0932 18.9669 31.0697 18.2475C31.0505 17.6892 31.3899 17.639 31.8043 17.639C32.8512 17.639 33.6609 17.2745 34.3082 16.3491C34.7509 15.7268 35.4138 15.3002 36.1595 15.1577C36.1412 14.9816 36.1194 14.8055 36.0959 14.6294C35.9903 14.6197 35.8856 14.6092 35.7809 14.596C35.541 14.566 35.5192 14.4841 35.5384 14.2957C35.5756 13.8537 35.6634 13.4176 35.8001 12.9961C35.7233 12.6579 35.6361 12.3236 35.5384 11.9932C35.2182 12.1499 34.884 12.2802 34.5569 12.422C33.865 12.8385 33.3686 13.4663 32.8434 14.0597C32.0442 14.964 32.1175 15.8208 33.0528 16.5771C33.4017 16.8615 33.1566 16.9813 32.9263 17.0464C32.4772 17.1813 32.0087 17.2379 31.5408 17.2137C31.2599 17.1961 31.0828 17.0667 31.1334 16.7673C31.3244 15.6711 31.4414 14.566 32.3173 13.7075C33.2621 12.7786 33.3869 10.9383 32.7029 9.81475C32.3234 9.19047 31.8043 8.79864 31.0706 8.85851C30.4407 8.9087 29.9364 9.19751 29.7959 9.90633C29.7523 10.1185 29.6284 10.1159 29.5115 9.93274C29.009 9.14732 29.3745 7.94982 30.2513 7.68478C31.0365 7.44968 31.813 7.57296 32.422 8.14617C33.1199 8.80304 33.7307 9.53299 33.6364 10.6116C33.6068 10.9524 33.6504 11.3002 33.6757 11.6436C33.6862 11.7942 33.6382 12.0319 33.8668 12.0257C34.077 12.0187 34.0569 11.7845 34.0526 11.6339C34.0482 10.9062 33.9954 10.1796 33.8947 9.45902C33.6539 8.85499 33.3555 8.27385 33.1967 7.639C33.1592 7.49547 32.9978 7.31673 33.1967 7.20842C33.3127 7.14679 33.4009 7.23572 33.4759 7.32905C33.3235 7.08251 33.7673 6.74612 33.6033 6.50779C33.3893 6.38374 33.163 6.2828 32.928 6.20665C32.7779 6.15735 32.5877 6.0781 32.4918 6.25508C32.381 6.45056 32.579 6.54125 32.7029 6.63459C32.9979 6.84669 32.8886 7.2347 33.0099 7.57911C33.0283 7.65219 32.7614 7.7112 32.6645 7.65044C31.9988 7.36868 31.3314 7.07546 30.5846 7.17408C29.8867 7.26213 29.228 7.55094 29.0229 8.24303C28.7961 9.01348 28.8327 9.83677 29.4373 10.4963C29.6031 10.6724 29.8221 10.7912 30.0699 10.7164C30.3613 10.6284 30.267 10.373 30.2566 10.1634C30.2304 9.68268 30.4834 9.42645 30.9196 9.30934C31.4256 9.17462 31.8942 9.39739 32.2798 9.86582C33.1418 10.9136 32.6907 13.0137 31.7389 13.7868C31.5146 13.9673 31.3262 14.0051 31.1281 13.7868C30.329 12.879 29.2847 12.5109 28.1304 12.341C27.4159 12.2362 27.3391 12.1023 27.3042 11.3724C27.299 11.2465 27.2937 11.1188 27.2798 10.992C27.2693 10.896 27.2257 10.8159 27.1166 10.8159C27.0076 10.8159 26.9727 10.9128 26.9613 11.0035C26.9456 11.11 26.9474 11.2201 26.9404 11.3284C26.9317 11.4921 26.9404 11.6806 26.772 11.7589C26.574 11.847 26.4326 11.692 26.3061 11.5635C25.8998 11.1446 25.6418 10.602 25.5724 10.0199C25.5558 9.89312 25.5375 9.73727 25.3979 9.70645C25.2566 9.73727 25.2391 9.89312 25.2234 10.0199C25.1556 10.6023 24.8978 11.1453 24.4906 11.5635C24.3649 11.692 24.2236 11.8461 24.0247 11.7589C23.8502 11.6823 23.865 11.4948 23.8563 11.3284C23.8502 11.2201 23.8502 11.11 23.8354 11.0035C23.8231 10.9154 23.7935 10.8168 23.6809 10.8159C23.5684 10.815 23.5274 10.904 23.5178 10.992C23.5038 11.1188 23.4986 11.2465 23.4916 11.3724C23.4585 12.0988 23.3817 12.2327 22.6672 12.341C21.5112 12.5109 20.4677 12.879 19.6686 13.7868C19.4749 14.0087 19.2864 13.9708 19.0622 13.7868C18.1095 13.0137 17.6593 10.9136 18.5213 9.86582C18.906 9.39827 19.3745 9.17462 19.8806 9.30934C20.3168 9.42645 20.5707 9.68268 20.5445 10.1634C20.5332 10.373 20.4389 10.6284 20.7303 10.7164C20.979 10.7912 21.1971 10.675 21.3628 10.4963C21.9683 9.83677 22.005 9.01348 21.7773 8.24303C21.5731 7.55094 20.91 7.26389 20.2156 7.17408C19.4688 7.07546 18.8022 7.36868 18.1365 7.65044C18.0397 7.7112 18.0414 7.6566 18.0606 7.58352C18.1805 7.2398 18.4023 6.94162 18.6958 6.72942C18.817 6.63609 19.0177 6.54539 18.9078 6.34992C18.8083 6.17381 18.6173 6.25218 18.4716 6.30149C17.3374 6.67043 16.6202 7.51044 16.1107 8.54417C15.849 9.08392 15.7705 9.68884 15.7181 10.2867C15.6841 10.6759 15.575 10.8282 15.1458 10.7358C13.9854 10.4857 14.0064 10.5209 14.6755 9.5277C15.6213 8.12328 16.3812 6.622 16.6516 4.92524C16.7642 4.22083 17.2048 3.571 17.0407 2.812C16.8532 2.34444 16.5775 1.99136 16.0156 2.00016C14.8108 2.02041 13.6051 2.04595 12.4011 2.05035C11.909 2.05035 11.772 2.26696 11.8575 2.73275C11.9867 3.43717 11.9177 4.12485 11.7703 4.83279C11.4597 6.29268 10.6963 7.51748 9.93205 8.7458C9.03256 10.1943 8.22293 11.6867 7.60523 13.2796C7.30249 14.0588 6.99452 14.8346 6.38381 15.4351C5.61693 16.1879 5.24963 17.1301 5.06641 18.1744C4.87535 19.2821 5.05682 19.5991 6.13691 19.7752C6.57313 19.8447 6.76943 20.0508 6.82527 20.4673C6.8955 20.9895 7.05365 21.4957 7.2929 21.9641C8.45049 24.2669 9.95866 26.3722 11.7624 28.2035C12.354 28.7996 12.9324 29.4494 12.7117 30.425C12.7111 30.4608 12.7181 30.4963 12.7323 30.5291C12.7464 30.5619 12.7674 30.5912 12.7937 30.6152C13.0554 30.8732 12.9638 31.1435 12.8329 31.4174C12.6829 31.7282 12.518 32.0337 12.3662 32.3401C12.135 32.8112 12.2074 32.9213 12.7152 32.9178C14.2099 32.909 15.7033 32.9043 17.1952 32.9037C17.3569 32.894 17.519 32.9131 17.6741 32.96C18.01 33.0859 18.1828 32.9363 18.3058 32.6475C18.5099 32.1623 18.7228 31.6789 18.9244 31.1964C19.0666 30.853 19.3109 30.7033 19.6799 30.7033C21.5888 30.7033 23.4974 30.705 25.4058 30.7086L30.4302 30.7041C30.6117 30.5333 30.7893 30.3593 30.9632 30.182H28.8676C27.7119 30.182 26.5551 30.182 25.397 30.182C24.239 30.182 23.0824 30.182 21.9273 30.182C20.3813 30.182 18.8362 30.182 17.2903 30.182C16.5731 30.182 16.4937 30.094 16.4833 29.3596C16.4641 28.0837 16.4641 28.0837 17.7431 28.0837H32.7334C32.8573 27.9129 32.9777 27.7403 33.0964 27.5651C31.8662 27.5651 30.6361 27.551 29.4068 27.5713C28.8912 27.5801 28.5082 27.4031 28.1959 27.0033C27.4822 26.0938 27.0617 25.0944 27.0617 23.9057C27.0617 23.4135 27.2239 23.1511 27.6549 22.945C28.7568 22.4167 28.7472 22.4018 29.1721 23.6327C29.4051 24.3081 29.7244 24.9262 30.2749 25.4061C31.3288 26.3245 32.4647 26.7445 33.6949 26.6115C33.7917 26.4468 33.8859 26.2813 33.9784 26.1131C32.2597 26.4592 30.2766 25.3594 29.9085 24.1522C30.4319 24.4014 30.8952 24.6515 31.3812 24.8566C31.9046 25.0759 32.4691 25.0592 33.0266 25.0327C33.256 24.994 33.4846 24.92 33.7141 24.9227C34.0285 24.925 34.3412 24.8768 34.6406 24.78C34.7279 24.581 34.8151 24.3794 34.9023 24.1769C34.8247 24.213 34.7462 24.2482 34.6624 24.2799L34.6581 24.2887L34.6275 24.2984L34.6415 24.2905L34.6546 24.2825H34.6624C34.7383 24.0554 34.9137 23.8951 35.048 23.7076C35.0795 23.6644 35.1082 23.6195 35.1353 23.572C35.2481 23.2655 35.3522 22.9559 35.4476 22.643C35.5288 22.1085 35.4694 21.5591 35.2505 21.2227C34.8814 20.6557 33.7621 20.2542 32.9699 20.4091C32.4665 20.5078 32.2344 20.8195 32.3592 21.2368C32.5014 21.7299 32.7081 21.8277 33.2377 21.6533C33.7673 21.479 34.159 21.6938 34.3004 22.238C34.4984 22.9979 34.0744 23.6239 33.2997 23.7155C32.2885 23.8344 30.7992 22.835 30.5157 21.8541C30.2906 21.0819 31.0758 19.946 31.8784 19.9319C32.9926 19.9116 34.1075 19.9319 35.2208 19.924C35.3774 19.9136 35.5336 19.9497 35.67 20.028C35.8065 20.1062 35.9172 20.2231 35.9885 20.3642C36.0554 19.975 36.1107 19.5823 36.1543 19.1861C34.727 19.1905 33.3005 19.1967 31.8741 19.187ZM32.7081 15.2801C32.7024 15.0616 32.7687 14.8473 32.8966 14.6708C33.4113 13.9981 33.9261 13.3201 34.6633 12.8675C34.7671 12.8041 34.8779 12.6703 34.9974 12.7451C35.1588 12.8446 35.0289 13.0093 35.0166 13.1413C35.0009 13.3386 34.9215 13.5534 34.9713 13.7322C35.233 14.6602 34.8579 15.2836 34.1363 15.8234C33.8519 16.0356 33.6382 16.3139 33.2534 16.1571C32.8495 15.9933 32.7491 15.6226 32.7081 15.2801ZM33.0283 21.2923C32.8765 21.3337 32.7308 21.3751 32.6951 21.1681C32.6593 20.9612 32.7989 20.8802 32.9655 20.8239C33.4663 20.6548 34.4714 20.8829 34.7706 21.2747C35.1684 21.7977 35.1196 22.3718 34.7968 22.953C34.7811 22.8138 34.7628 22.6747 34.7532 22.5347C34.672 21.464 34.05 21.0123 33.0283 21.2923ZM16.1151 11.6198C16.0793 10.8273 16.0278 10.0261 16.2686 9.24858C16.3847 8.52039 16.7921 7.9507 17.2527 7.40918C17.34 7.30176 17.4456 7.13006 17.5965 7.2093C17.798 7.31761 17.6358 7.49635 17.6009 7.63987C17.4403 8.27473 17.1419 8.85587 16.9029 9.4599C16.7999 10.1786 16.7451 10.9034 16.7389 11.6295C16.7345 11.7801 16.7144 12.0143 16.9256 12.0213C17.1524 12.0275 17.1053 11.7898 17.1158 11.6392C17.1411 11.2958 17.1856 10.948 17.1559 10.6072C17.0634 9.52947 17.6715 8.79952 18.3695 8.14177C18.9802 7.56855 19.7584 7.44528 20.541 7.68038C21.4134 7.94453 21.7834 9.14292 21.2808 9.92834C21.1631 10.1115 21.0392 10.1141 20.9955 9.90192C20.8516 9.19751 20.3508 8.9043 19.7218 8.85411C18.988 8.79423 18.4672 9.18606 18.0894 9.81035C17.4054 10.9339 17.5284 12.7742 18.475 13.7031C19.3475 14.5634 19.4679 15.6667 19.6581 16.7629C19.7096 17.0623 19.5325 17.1917 19.2507 17.2093C18.7825 17.2334 18.3137 17.1768 17.8643 17.042C17.6349 16.9769 17.388 16.8571 17.7387 16.5727C18.674 15.8146 18.7473 14.9596 17.9481 14.0553C17.4246 13.4619 16.9273 12.834 16.2346 12.4176C15.4381 12.0724 14.6023 11.8012 14.0264 11.0448C14.8003 10.9374 15.459 11.2747 16.1151 11.6198ZM20.9353 21.3936C21.2433 21.4587 21.5775 21.6965 21.5461 22.1156C21.4963 22.7698 21.2756 23.3421 20.705 23.7357C19.7916 24.3679 18.8188 24.7633 17.6829 24.5934C17.3391 24.5423 17.0268 24.4534 16.8244 24.08C17.9655 24.3812 18.8677 23.8933 19.7375 23.2805C20.2313 22.9327 20.5 22.4361 20.7111 21.884C20.7809 21.7088 20.6221 21.324 20.9353 21.3918V21.3936ZM17.0817 24.9183C17.3112 24.9183 17.5407 24.9896 17.7701 25.0283C18.3276 25.0539 18.8895 25.0706 19.4147 24.8522C19.9006 24.6506 20.3683 24.4005 20.8865 24.1478C20.4442 25.6024 17.6584 26.8994 15.8132 25.7046C14.2035 24.8241 13.6434 23.3853 13.6932 21.6331C13.7097 21.0008 13.906 20.4285 14.4121 20.012C14.351 20.4805 14.1259 20.8881 14.05 21.3522C13.749 23.2057 15.2173 24.9412 17.0817 24.9183ZM20.2836 21.8497C20.001 22.8341 18.5126 23.8299 17.4997 23.7111C16.7249 23.623 16.3018 22.9935 16.5007 22.2336C16.642 21.6894 17.0346 21.4737 17.5633 21.6489C18.092 21.8241 18.2979 21.7255 18.4419 21.2324C18.5632 20.8151 18.332 20.5034 17.8312 20.4047C17.039 20.2524 15.9197 20.6513 15.5515 21.2183C15.1711 21.803 15.2697 23.0269 15.7548 23.7032C15.8882 23.8907 16.0636 24.0554 16.1404 24.2781H16.1474L16.1613 24.2861L16.1744 24.294L16.143 24.2843V24.2755C14.3903 23.6081 14.0212 21.8594 14.7986 20.3924C14.8665 20.2436 14.9774 20.119 15.1168 20.0349C15.2561 19.9509 15.4174 19.9113 15.5794 19.9213C16.6935 19.9293 17.8085 19.909 18.9226 19.9293C19.7165 19.946 20.507 21.0819 20.2836 21.8497ZM19.7253 18.2475C19.7017 18.9669 19.5508 19.1826 18.9217 19.187C17.449 19.1967 15.9764 19.187 14.5045 19.187V19.1729C13.051 19.1729 11.5976 19.1817 10.1423 19.1729C9.48361 19.1658 9.35711 18.9704 9.64414 18.3725C9.9748 17.6875 10.3587 17.0429 11.0401 16.6185C11.3515 16.4222 11.5731 16.0858 11.861 15.8437C13.2465 14.6831 15.4555 14.8751 16.485 16.3491C17.1324 17.2745 17.9394 17.6373 18.9889 17.639C19.4051 17.639 19.7436 17.6892 19.7253 18.2475ZM13.2142 22.5224C13.222 22.6606 13.311 22.8552 13.1662 22.9204C12.9874 23.0023 12.9045 22.7883 12.8076 22.6747C12.3092 22.11 11.9572 21.4293 11.7834 20.6935C11.6351 20.0393 11.6796 19.9539 12.3287 19.9389C12.4238 19.9389 12.5197 19.9389 12.6148 19.9389H12.853C13.5196 19.9451 13.551 19.9883 13.3075 20.6231C13.0641 21.258 13.1802 21.8849 13.2142 22.5224ZM11.5103 14.6708C11.5119 14.3975 11.5652 14.1271 11.6673 13.8739C11.8985 13.2373 12.285 12.6844 12.6576 12.1314C12.8434 11.8532 13.1217 11.6101 13.4628 11.6524C14.0395 11.6392 14.3981 11.9165 14.6712 12.3313C15.0594 12.9247 15.1816 13.6019 15.2575 14.2922C15.2775 14.4806 15.2575 14.5625 15.0149 14.5924C14.0046 14.7201 12.9664 14.6585 11.9945 15.0653C11.6961 15.1894 11.5199 14.9896 11.5103 14.6708ZM15.7774 13.1413C15.767 13.0057 15.6379 12.8446 15.7975 12.7451C15.9179 12.6703 16.0287 12.8041 16.1325 12.8675C16.8689 13.3201 17.3836 13.9981 17.9001 14.6708C18.0271 14.8476 18.0927 15.0618 18.0868 15.2801C18.0458 15.6244 17.9455 15.9933 17.5424 16.1606C17.1577 16.3174 16.9422 16.0391 16.6586 15.8269C15.9371 15.2872 15.5628 14.6638 15.8237 13.7357C15.8743 13.5534 15.7949 13.3386 15.7774 13.1413ZM13.9933 2.48709C14.5665 2.4774 15.1406 2.51791 15.7138 2.43249C16.3166 2.34444 16.5312 2.55489 16.5155 3.34295C16.1919 5.39191 15.6431 7.50692 14.2699 9.33575C13.5152 10.3395 12.4927 11.132 11.9395 12.2952C11.909 12.3577 11.8523 12.4422 11.7982 12.4528C11.0558 12.6016 10.3761 12.9362 9.66159 13.166C9.46616 13.2294 9.40771 13.0639 9.43737 12.9018C9.46529 12.7231 9.51359 12.5482 9.58133 12.3806C10.0437 11.3003 10.5879 10.2576 11.2093 9.26179C12.3348 7.46641 13.106 5.52487 13.1174 3.34735C13.1217 2.55577 13.1906 2.49589 13.9933 2.48268V2.48709ZM7.95596 13.6292C8.03101 13.3676 8.12551 13.1121 8.23863 12.8649C9.01249 11.2676 9.78199 9.66859 10.7574 8.17963C11.4972 7.04905 12.0355 5.82601 12.2885 4.48762C12.3275 4.22508 12.3514 3.96048 12.3601 3.69516C12.3374 3.36937 12.3182 3.16685 12.3112 2.96961C12.3051 2.80672 12.2955 2.60067 12.504 2.57954C12.7518 2.55577 12.7754 2.78206 12.7815 2.96081C12.7937 3.28748 12.8216 3.61943 12.7745 3.93906C12.5084 5.75909 11.9142 7.47522 10.9153 9.00468C10.0751 10.292 9.36496 11.6198 8.97236 13.1061C8.85894 13.5376 8.58238 13.7348 8.2238 13.8845C7.96119 13.991 7.87918 13.8739 7.95596 13.6292ZM6.58447 19.3411C5.90571 19.4291 5.54888 19.1016 5.58552 18.4949C5.59337 16.8994 6.51817 15.8331 7.61745 14.8663C8.64955 13.9585 9.96346 13.6204 11.1762 13.0806C11.4588 12.9547 11.5469 13.1096 11.4292 13.3791C11.0802 14.1716 10.9537 15.0133 10.849 15.8613C10.8332 16.0445 10.7505 16.2152 10.6169 16.3403C9.905 16.9857 9.42603 17.7931 9.0596 18.6701C8.87988 19.1007 8.60157 19.2794 8.14528 19.2601C7.62338 19.2417 7.10089 19.2688 6.5836 19.3411H6.58447ZM9.73749 25.2203C8.667 23.8115 7.98562 22.2265 7.32169 20.6249C7.11492 20.123 7.25189 19.9548 7.78234 19.9354C8.12259 19.9222 8.46459 19.9416 8.80659 19.946C8.91041 19.946 9.01336 19.946 9.11718 19.9504C9.4461 19.9504 9.77326 19.9504 10.1004 19.9504C11.0776 19.9116 11.1055 19.9301 11.2303 20.6733C11.339 20.8301 11.3996 21.0156 11.4047 21.2069C11.6211 22.1895 12.3426 22.8878 12.8007 23.7349C12.852 23.7508 12.8988 23.7793 12.9368 23.8176C12.9752 23.8566 13.005 23.9034 13.024 23.955V23.9418C13.6225 24.3169 14.0273 24.8602 14.337 25.4862C14.3658 25.5179 14.3937 25.5505 14.4243 25.5822C15.3438 26.7119 15.9624 27.9825 16.1892 29.4344C16.2643 29.9134 16.0366 30.1547 15.5619 30.1697C15.3875 30.1758 15.2016 30.1626 15.0228 30.1802C14.474 30.2304 14.2097 30.0156 14.1451 29.4309C14.0578 28.6261 13.5832 28.0001 13.0589 27.4057C11.8287 26.0101 10.548 24.6515 9.66595 22.9847C9.0945 22.2987 8.78914 21.4702 8.46634 20.5606C8.19414 20.9172 8.33373 21.1875 8.43406 21.4332C9.09625 23.0595 10.0664 24.4947 11.1727 25.8402C11.8034 26.6071 12.4726 27.3432 13.1121 28.1031C13.4948 28.5433 13.716 29.1029 13.7385 29.688C13.7438 29.8562 13.7385 30.0314 13.5396 30.0869C13.3651 30.1362 13.2482 30.0138 13.2072 29.8765C12.6061 27.9041 10.9083 26.7559 9.73749 25.2203ZM17.928 30.7068C18.2343 30.7068 18.4733 30.6813 18.2229 31.1277C18.024 31.4852 17.9385 31.9078 17.8102 32.3032C17.7335 32.54 17.6471 32.6968 17.3522 32.5488C17.0573 32.4009 16.7171 32.4608 16.3925 32.4546C15.3875 32.4458 14.3859 32.4432 13.3791 32.4388C13.0353 32.4388 12.9132 32.29 13.0624 31.958C13.1741 31.7106 13.3102 31.4702 13.3826 31.2122C13.4838 30.86 13.6967 30.7068 14.05 30.7147C14.3545 30.72 14.6607 30.7147 14.9652 30.7147C15.9554 30.7948 16.9422 30.698 17.928 30.7041V30.7068ZM21.3916 27.5695C20.0263 27.5466 18.6609 27.5651 17.2955 27.5633C16.0217 27.5633 15.999 27.5378 15.705 26.2479L15.6553 26.1977L15.5986 26.1404L15.6064 26.1325C15.6422 26.1686 15.6771 26.2038 15.712 26.2408C16.2894 26.4931 16.9107 26.6269 17.5398 26.6344C18.6007 26.6344 19.59 26.2117 20.5174 25.4017C21.068 24.9218 21.3899 24.3037 21.6202 23.6283C22.0451 22.3956 22.0346 22.4132 23.1374 22.9406C23.5684 23.1467 23.728 23.4091 23.7315 23.9013C23.7376 25.09 23.3128 26.0894 22.5974 26.9989C22.2911 27.4013 21.9081 27.5783 21.3916 27.5695ZM27.7605 27.0887C28.0222 27.441 27.8765 27.5642 27.4988 27.5633C26.8008 27.5633 26.0985 27.5633 25.397 27.5633C24.6956 27.5633 23.9959 27.5633 23.2962 27.5633C22.9175 27.5633 22.7727 27.4427 23.0345 27.0887C23.7176 26.1809 24.1093 25.1675 24.1311 24.0175C24.1381 23.6785 24.3056 23.5288 24.6171 23.7252C24.8432 23.8928 25.1165 23.9832 25.397 23.9832C25.6776 23.9832 25.9509 23.8928 26.177 23.7252C26.4885 23.5288 26.6569 23.6785 26.6638 24.0175C26.6848 25.1675 27.0782 26.1809 27.7605 27.0887ZM31.0575 23.2831C31.9299 23.8995 32.8294 24.3838 33.9714 24.0827C33.769 24.456 33.4567 24.5449 33.113 24.596C31.9788 24.7659 31.0034 24.3706 30.0891 23.7384C29.5194 23.3448 29.2995 22.7698 29.2498 22.1182C29.2175 21.6991 29.5516 21.4614 29.8605 21.3962C30.1693 21.331 30.0193 21.7132 30.0847 21.8866C30.295 22.4343 30.5637 22.9309 31.0575 23.2831ZM30.9371 15.0811C30.7818 15.207 30.6675 15.4201 30.7015 15.6094C30.8594 16.5032 30.4145 17.3819 30.6596 18.2774C30.7263 18.5681 30.7784 18.862 30.8158 19.1579C30.6954 19.4802 30.8306 19.8183 30.5358 20.0886C29.3937 21.1347 28.2421 22.1385 26.8881 22.9309C26.3646 23.233 25.8821 23.4214 25.3988 23.4478C24.9172 23.4214 24.4304 23.233 23.9104 22.9309C22.5537 22.1385 21.4021 21.1347 20.2575 20.0886C19.9626 19.8183 20.0969 19.4802 19.9765 19.1579C20.0245 18.8806 20.0524 18.5706 20.1327 18.2774C20.3779 17.3819 19.9329 16.5032 20.0899 15.6094C20.1248 15.4166 20.0114 15.2035 19.8561 15.0811C19.4496 14.7527 19.6188 14.4551 19.8788 14.1601C20.4529 13.5041 21.1447 13.0383 22.0111 12.871C22.4002 12.7953 22.7858 12.7125 23.1723 12.6298C24.016 12.4484 24.7209 12.0521 25.1789 11.2887C25.2247 11.1937 25.3001 11.1164 25.3935 11.0686C25.4875 11.116 25.5632 11.1934 25.609 11.2887C26.068 12.0521 26.7738 12.4484 27.6157 12.6298C28.0022 12.7125 28.3887 12.7953 28.7769 12.871C29.6441 13.0383 30.3342 13.5041 30.91 14.1601C31.1726 14.4507 31.3436 14.7483 30.9371 15.0767V15.0811Z"/>
</mask>
<path d="M31.8741 19.187C31.2433 19.1826 31.0932 18.9669 31.0697 18.2475C31.0505 17.6892 31.3899 17.639 31.8043 17.639C32.8512 17.639 33.6609 17.2745 34.3082 16.3491C34.7509 15.7268 35.4138 15.3002 36.1595 15.1577C36.1412 14.9816 36.1194 14.8055 36.0959 14.6294C35.9903 14.6197 35.8856 14.6092 35.7809 14.596C35.541 14.566 35.5192 14.4841 35.5384 14.2957C35.5756 13.8537 35.6634 13.4176 35.8001 12.9961C35.7233 12.6579 35.6361 12.3236 35.5384 11.9932C35.2182 12.1499 34.884 12.2802 34.5569 12.422C33.865 12.8385 33.3686 13.4663 32.8434 14.0597C32.0442 14.964 32.1175 15.8208 33.0528 16.5771C33.4017 16.8615 33.1566 16.9813 32.9263 17.0464C32.4772 17.1813 32.0087 17.2379 31.5408 17.2137C31.2599 17.1961 31.0828 17.0667 31.1334 16.7673C31.3244 15.6711 31.4414 14.566 32.3173 13.7075C33.2621 12.7786 33.3869 10.9383 32.7029 9.81475C32.3234 9.19047 31.8043 8.79864 31.0706 8.85851C30.4407 8.9087 29.9364 9.19751 29.7959 9.90633C29.7523 10.1185 29.6284 10.1159 29.5115 9.93274C29.009 9.14732 29.3745 7.94982 30.2513 7.68478C31.0365 7.44968 31.813 7.57296 32.422 8.14617C33.1199 8.80304 33.7307 9.53299 33.6364 10.6116C33.6068 10.9524 33.6504 11.3002 33.6757 11.6436C33.6862 11.7942 33.6382 12.0319 33.8668 12.0257C34.077 12.0187 34.0569 11.7845 34.0526 11.6339C34.0482 10.9062 33.9954 10.1796 33.8947 9.45902C33.6539 8.85499 33.3555 8.27385 33.1967 7.639C33.1592 7.49547 32.9978 7.31673 33.1967 7.20842C33.3127 7.14679 33.4009 7.23572 33.4759 7.32905C33.3235 7.08251 33.7673 6.74612 33.6033 6.50779C33.3893 6.38374 33.163 6.2828 32.928 6.20665C32.7779 6.15735 32.5877 6.0781 32.4918 6.25508C32.381 6.45056 32.579 6.54125 32.7029 6.63459C32.9979 6.84669 32.8886 7.2347 33.0099 7.57911C33.0283 7.65219 32.7614 7.7112 32.6645 7.65044C31.9988 7.36868 31.3314 7.07546 30.5846 7.17408C29.8867 7.26213 29.228 7.55094 29.0229 8.24303C28.7961 9.01348 28.8327 9.83677 29.4373 10.4963C29.6031 10.6724 29.8221 10.7912 30.0699 10.7164C30.3613 10.6284 30.267 10.373 30.2566 10.1634C30.2304 9.68268 30.4834 9.42645 30.9196 9.30934C31.4256 9.17462 31.8942 9.39739 32.2798 9.86582C33.1418 10.9136 32.6907 13.0137 31.7389 13.7868C31.5146 13.9673 31.3262 14.0051 31.1281 13.7868C30.329 12.879 29.2847 12.5109 28.1304 12.341C27.4159 12.2362 27.3391 12.1023 27.3042 11.3724C27.299 11.2465 27.2937 11.1188 27.2798 10.992C27.2693 10.896 27.2257 10.8159 27.1166 10.8159C27.0076 10.8159 26.9727 10.9128 26.9613 11.0035C26.9456 11.11 26.9474 11.2201 26.9404 11.3284C26.9317 11.4921 26.9404 11.6806 26.772 11.7589C26.574 11.847 26.4326 11.692 26.3061 11.5635C25.8998 11.1446 25.6418 10.602 25.5724 10.0199C25.5558 9.89312 25.5375 9.73727 25.3979 9.70645C25.2566 9.73727 25.2391 9.89312 25.2234 10.0199C25.1556 10.6023 24.8978 11.1453 24.4906 11.5635C24.3649 11.692 24.2236 11.8461 24.0247 11.7589C23.8502 11.6823 23.865 11.4948 23.8563 11.3284C23.8502 11.2201 23.8502 11.11 23.8354 11.0035C23.8231 10.9154 23.7935 10.8168 23.6809 10.8159C23.5684 10.815 23.5274 10.904 23.5178 10.992C23.5038 11.1188 23.4986 11.2465 23.4916 11.3724C23.4585 12.0988 23.3817 12.2327 22.6672 12.341C21.5112 12.5109 20.4677 12.879 19.6686 13.7868C19.4749 14.0087 19.2864 13.9708 19.0622 13.7868C18.1095 13.0137 17.6593 10.9136 18.5213 9.86582C18.906 9.39827 19.3745 9.17462 19.8806 9.30934C20.3168 9.42645 20.5707 9.68268 20.5445 10.1634C20.5332 10.373 20.4389 10.6284 20.7303 10.7164C20.979 10.7912 21.1971 10.675 21.3628 10.4963C21.9683 9.83677 22.005 9.01348 21.7773 8.24303C21.5731 7.55094 20.91 7.26389 20.2156 7.17408C19.4688 7.07546 18.8022 7.36868 18.1365 7.65044C18.0397 7.7112 18.0414 7.6566 18.0606 7.58352C18.1805 7.2398 18.4023 6.94162 18.6958 6.72942C18.817 6.63609 19.0177 6.54539 18.9078 6.34992C18.8083 6.17381 18.6173 6.25218 18.4716 6.30149C17.3374 6.67043 16.6202 7.51044 16.1107 8.54417C15.849 9.08392 15.7705 9.68884 15.7181 10.2867C15.6841 10.6759 15.575 10.8282 15.1458 10.7358C13.9854 10.4857 14.0064 10.5209 14.6755 9.5277C15.6213 8.12328 16.3812 6.622 16.6516 4.92524C16.7642 4.22083 17.2048 3.571 17.0407 2.812C16.8532 2.34444 16.5775 1.99136 16.0156 2.00016C14.8108 2.02041 13.6051 2.04595 12.4011 2.05035C11.909 2.05035 11.772 2.26696 11.8575 2.73275C11.9867 3.43717 11.9177 4.12485 11.7703 4.83279C11.4597 6.29268 10.6963 7.51748 9.93205 8.7458C9.03256 10.1943 8.22293 11.6867 7.60523 13.2796C7.30249 14.0588 6.99452 14.8346 6.38381 15.4351C5.61693 16.1879 5.24963 17.1301 5.06641 18.1744C4.87535 19.2821 5.05682 19.5991 6.13691 19.7752C6.57313 19.8447 6.76943 20.0508 6.82527 20.4673C6.8955 20.9895 7.05365 21.4957 7.2929 21.9641C8.45049 24.2669 9.95866 26.3722 11.7624 28.2035C12.354 28.7996 12.9324 29.4494 12.7117 30.425C12.7111 30.4608 12.7181 30.4963 12.7323 30.5291C12.7464 30.5619 12.7674 30.5912 12.7937 30.6152C13.0554 30.8732 12.9638 31.1435 12.8329 31.4174C12.6829 31.7282 12.518 32.0337 12.3662 32.3401C12.135 32.8112 12.2074 32.9213 12.7152 32.9178C14.2099 32.909 15.7033 32.9043 17.1952 32.9037C17.3569 32.894 17.519 32.9131 17.6741 32.96C18.01 33.0859 18.1828 32.9363 18.3058 32.6475C18.5099 32.1623 18.7228 31.6789 18.9244 31.1964C19.0666 30.853 19.3109 30.7033 19.6799 30.7033C21.5888 30.7033 23.4974 30.705 25.4058 30.7086L30.4302 30.7041C30.6117 30.5333 30.7893 30.3593 30.9632 30.182H28.8676C27.7119 30.182 26.5551 30.182 25.397 30.182C24.239 30.182 23.0824 30.182 21.9273 30.182C20.3813 30.182 18.8362 30.182 17.2903 30.182C16.5731 30.182 16.4937 30.094 16.4833 29.3596C16.4641 28.0837 16.4641 28.0837 17.7431 28.0837H32.7334C32.8573 27.9129 32.9777 27.7403 33.0964 27.5651C31.8662 27.5651 30.6361 27.551 29.4068 27.5713C28.8912 27.5801 28.5082 27.4031 28.1959 27.0033C27.4822 26.0938 27.0617 25.0944 27.0617 23.9057C27.0617 23.4135 27.2239 23.1511 27.6549 22.945C28.7568 22.4167 28.7472 22.4018 29.1721 23.6327C29.4051 24.3081 29.7244 24.9262 30.2749 25.4061C31.3288 26.3245 32.4647 26.7445 33.6949 26.6115C33.7917 26.4468 33.8859 26.2813 33.9784 26.1131C32.2597 26.4592 30.2766 25.3594 29.9085 24.1522C30.4319 24.4014 30.8952 24.6515 31.3812 24.8566C31.9046 25.0759 32.4691 25.0592 33.0266 25.0327C33.256 24.994 33.4846 24.92 33.7141 24.9227C34.0285 24.925 34.3412 24.8768 34.6406 24.78C34.7279 24.581 34.8151 24.3794 34.9023 24.1769C34.8247 24.213 34.7462 24.2482 34.6624 24.2799L34.6581 24.2887L34.6275 24.2984L34.6415 24.2905L34.6546 24.2825H34.6624C34.7383 24.0554 34.9137 23.8951 35.048 23.7076C35.0795 23.6644 35.1082 23.6195 35.1353 23.572C35.2481 23.2655 35.3522 22.9559 35.4476 22.643C35.5288 22.1085 35.4694 21.5591 35.2505 21.2227C34.8814 20.6557 33.7621 20.2542 32.9699 20.4091C32.4665 20.5078 32.2344 20.8195 32.3592 21.2368C32.5014 21.7299 32.7081 21.8277 33.2377 21.6533C33.7673 21.479 34.159 21.6938 34.3004 22.238C34.4984 22.9979 34.0744 23.6239 33.2997 23.7155C32.2885 23.8344 30.7992 22.835 30.5157 21.8541C30.2906 21.0819 31.0758 19.946 31.8784 19.9319C32.9926 19.9116 34.1075 19.9319 35.2208 19.924C35.3774 19.9136 35.5336 19.9497 35.67 20.028C35.8065 20.1062 35.9172 20.2231 35.9885 20.3642C36.0554 19.975 36.1107 19.5823 36.1543 19.1861C34.727 19.1905 33.3005 19.1967 31.8741 19.187ZM32.7081 15.2801C32.7024 15.0616 32.7687 14.8473 32.8966 14.6708C33.4113 13.9981 33.9261 13.3201 34.6633 12.8675C34.7671 12.8041 34.8779 12.6703 34.9974 12.7451C35.1588 12.8446 35.0289 13.0093 35.0166 13.1413C35.0009 13.3386 34.9215 13.5534 34.9713 13.7322C35.233 14.6602 34.8579 15.2836 34.1363 15.8234C33.8519 16.0356 33.6382 16.3139 33.2534 16.1571C32.8495 15.9933 32.7491 15.6226 32.7081 15.2801ZM33.0283 21.2923C32.8765 21.3337 32.7308 21.3751 32.6951 21.1681C32.6593 20.9612 32.7989 20.8802 32.9655 20.8239C33.4663 20.6548 34.4714 20.8829 34.7706 21.2747C35.1684 21.7977 35.1196 22.3718 34.7968 22.953C34.7811 22.8138 34.7628 22.6747 34.7532 22.5347C34.672 21.464 34.05 21.0123 33.0283 21.2923ZM16.1151 11.6198C16.0793 10.8273 16.0278 10.0261 16.2686 9.24858C16.3847 8.52039 16.7921 7.9507 17.2527 7.40918C17.34 7.30176 17.4456 7.13006 17.5965 7.2093C17.798 7.31761 17.6358 7.49635 17.6009 7.63987C17.4403 8.27473 17.1419 8.85587 16.9029 9.4599C16.7999 10.1786 16.7451 10.9034 16.7389 11.6295C16.7345 11.7801 16.7144 12.0143 16.9256 12.0213C17.1524 12.0275 17.1053 11.7898 17.1158 11.6392C17.1411 11.2958 17.1856 10.948 17.1559 10.6072C17.0634 9.52947 17.6715 8.79952 18.3695 8.14177C18.9802 7.56855 19.7584 7.44528 20.541 7.68038C21.4134 7.94453 21.7834 9.14292 21.2808 9.92834C21.1631 10.1115 21.0392 10.1141 20.9955 9.90192C20.8516 9.19751 20.3508 8.9043 19.7218 8.85411C18.988 8.79423 18.4672 9.18606 18.0894 9.81035C17.4054 10.9339 17.5284 12.7742 18.475 13.7031C19.3475 14.5634 19.4679 15.6667 19.6581 16.7629C19.7096 17.0623 19.5325 17.1917 19.2507 17.2093C18.7825 17.2334 18.3137 17.1768 17.8643 17.042C17.6349 16.9769 17.388 16.8571 17.7387 16.5727C18.674 15.8146 18.7473 14.9596 17.9481 14.0553C17.4246 13.4619 16.9273 12.834 16.2346 12.4176C15.4381 12.0724 14.6023 11.8012 14.0264 11.0448C14.8003 10.9374 15.459 11.2747 16.1151 11.6198ZM20.9353 21.3936C21.2433 21.4587 21.5775 21.6965 21.5461 22.1156C21.4963 22.7698 21.2756 23.3421 20.705 23.7357C19.7916 24.3679 18.8188 24.7633 17.6829 24.5934C17.3391 24.5423 17.0268 24.4534 16.8244 24.08C17.9655 24.3812 18.8677 23.8933 19.7375 23.2805C20.2313 22.9327 20.5 22.4361 20.7111 21.884C20.7809 21.7088 20.6221 21.324 20.9353 21.3918V21.3936ZM17.0817 24.9183C17.3112 24.9183 17.5407 24.9896 17.7701 25.0283C18.3276 25.0539 18.8895 25.0706 19.4147 24.8522C19.9006 24.6506 20.3683 24.4005 20.8865 24.1478C20.4442 25.6024 17.6584 26.8994 15.8132 25.7046C14.2035 24.8241 13.6434 23.3853 13.6932 21.6331C13.7097 21.0008 13.906 20.4285 14.4121 20.012C14.351 20.4805 14.1259 20.8881 14.05 21.3522C13.749 23.2057 15.2173 24.9412 17.0817 24.9183ZM20.2836 21.8497C20.001 22.8341 18.5126 23.8299 17.4997 23.7111C16.7249 23.623 16.3018 22.9935 16.5007 22.2336C16.642 21.6894 17.0346 21.4737 17.5633 21.6489C18.092 21.8241 18.2979 21.7255 18.4419 21.2324C18.5632 20.8151 18.332 20.5034 17.8312 20.4047C17.039 20.2524 15.9197 20.6513 15.5515 21.2183C15.1711 21.803 15.2697 23.0269 15.7548 23.7032C15.8882 23.8907 16.0636 24.0554 16.1404 24.2781H16.1474L16.1613 24.2861L16.1744 24.294L16.143 24.2843V24.2755C14.3903 23.6081 14.0212 21.8594 14.7986 20.3924C14.8665 20.2436 14.9774 20.119 15.1168 20.0349C15.2561 19.9509 15.4174 19.9113 15.5794 19.9213C16.6935 19.9293 17.8085 19.909 18.9226 19.9293C19.7165 19.946 20.507 21.0819 20.2836 21.8497ZM19.7253 18.2475C19.7017 18.9669 19.5508 19.1826 18.9217 19.187C17.449 19.1967 15.9764 19.187 14.5045 19.187V19.1729C13.051 19.1729 11.5976 19.1817 10.1423 19.1729C9.48361 19.1658 9.35711 18.9704 9.64414 18.3725C9.9748 17.6875 10.3587 17.0429 11.0401 16.6185C11.3515 16.4222 11.5731 16.0858 11.861 15.8437C13.2465 14.6831 15.4555 14.8751 16.485 16.3491C17.1324 17.2745 17.9394 17.6373 18.9889 17.639C19.4051 17.639 19.7436 17.6892 19.7253 18.2475ZM13.2142 22.5224C13.222 22.6606 13.311 22.8552 13.1662 22.9204C12.9874 23.0023 12.9045 22.7883 12.8076 22.6747C12.3092 22.11 11.9572 21.4293 11.7834 20.6935C11.6351 20.0393 11.6796 19.9539 12.3287 19.9389C12.4238 19.9389 12.5197 19.9389 12.6148 19.9389H12.853C13.5196 19.9451 13.551 19.9883 13.3075 20.6231C13.0641 21.258 13.1802 21.8849 13.2142 22.5224ZM11.5103 14.6708C11.5119 14.3975 11.5652 14.1271 11.6673 13.8739C11.8985 13.2373 12.285 12.6844 12.6576 12.1314C12.8434 11.8532 13.1217 11.6101 13.4628 11.6524C14.0395 11.6392 14.3981 11.9165 14.6712 12.3313C15.0594 12.9247 15.1816 13.6019 15.2575 14.2922C15.2775 14.4806 15.2575 14.5625 15.0149 14.5924C14.0046 14.7201 12.9664 14.6585 11.9945 15.0653C11.6961 15.1894 11.5199 14.9896 11.5103 14.6708ZM15.7774 13.1413C15.767 13.0057 15.6379 12.8446 15.7975 12.7451C15.9179 12.6703 16.0287 12.8041 16.1325 12.8675C16.8689 13.3201 17.3836 13.9981 17.9001 14.6708C18.0271 14.8476 18.0927 15.0618 18.0868 15.2801C18.0458 15.6244 17.9455 15.9933 17.5424 16.1606C17.1577 16.3174 16.9422 16.0391 16.6586 15.8269C15.9371 15.2872 15.5628 14.6638 15.8237 13.7357C15.8743 13.5534 15.7949 13.3386 15.7774 13.1413ZM13.9933 2.48709C14.5665 2.4774 15.1406 2.51791 15.7138 2.43249C16.3166 2.34444 16.5312 2.55489 16.5155 3.34295C16.1919 5.39191 15.6431 7.50692 14.2699 9.33575C13.5152 10.3395 12.4927 11.132 11.9395 12.2952C11.909 12.3577 11.8523 12.4422 11.7982 12.4528C11.0558 12.6016 10.3761 12.9362 9.66159 13.166C9.46616 13.2294 9.40771 13.0639 9.43737 12.9018C9.46529 12.7231 9.51359 12.5482 9.58133 12.3806C10.0437 11.3003 10.5879 10.2576 11.2093 9.26179C12.3348 7.46641 13.106 5.52487 13.1174 3.34735C13.1217 2.55577 13.1906 2.49589 13.9933 2.48268V2.48709ZM7.95596 13.6292C8.03101 13.3676 8.12551 13.1121 8.23863 12.8649C9.01249 11.2676 9.78199 9.66859 10.7574 8.17963C11.4972 7.04905 12.0355 5.82601 12.2885 4.48762C12.3275 4.22508 12.3514 3.96048 12.3601 3.69516C12.3374 3.36937 12.3182 3.16685 12.3112 2.96961C12.3051 2.80672 12.2955 2.60067 12.504 2.57954C12.7518 2.55577 12.7754 2.78206 12.7815 2.96081C12.7937 3.28748 12.8216 3.61943 12.7745 3.93906C12.5084 5.75909 11.9142 7.47522 10.9153 9.00468C10.0751 10.292 9.36496 11.6198 8.97236 13.1061C8.85894 13.5376 8.58238 13.7348 8.2238 13.8845C7.96119 13.991 7.87918 13.8739 7.95596 13.6292ZM6.58447 19.3411C5.90571 19.4291 5.54888 19.1016 5.58552 18.4949C5.59337 16.8994 6.51817 15.8331 7.61745 14.8663C8.64955 13.9585 9.96346 13.6204 11.1762 13.0806C11.4588 12.9547 11.5469 13.1096 11.4292 13.3791C11.0802 14.1716 10.9537 15.0133 10.849 15.8613C10.8332 16.0445 10.7505 16.2152 10.6169 16.3403C9.905 16.9857 9.42603 17.7931 9.0596 18.6701C8.87988 19.1007 8.60157 19.2794 8.14528 19.2601C7.62338 19.2417 7.10089 19.2688 6.5836 19.3411H6.58447ZM9.73749 25.2203C8.667 23.8115 7.98562 22.2265 7.32169 20.6249C7.11492 20.123 7.25189 19.9548 7.78234 19.9354C8.12259 19.9222 8.46459 19.9416 8.80659 19.946C8.91041 19.946 9.01336 19.946 9.11718 19.9504C9.4461 19.9504 9.77326 19.9504 10.1004 19.9504C11.0776 19.9116 11.1055 19.9301 11.2303 20.6733C11.339 20.8301 11.3996 21.0156 11.4047 21.2069C11.6211 22.1895 12.3426 22.8878 12.8007 23.7349C12.852 23.7508 12.8988 23.7793 12.9368 23.8176C12.9752 23.8566 13.005 23.9034 13.024 23.955V23.9418C13.6225 24.3169 14.0273 24.8602 14.337 25.4862C14.3658 25.5179 14.3937 25.5505 14.4243 25.5822C15.3438 26.7119 15.9624 27.9825 16.1892 29.4344C16.2643 29.9134 16.0366 30.1547 15.5619 30.1697C15.3875 30.1758 15.2016 30.1626 15.0228 30.1802C14.474 30.2304 14.2097 30.0156 14.1451 29.4309C14.0578 28.6261 13.5832 28.0001 13.0589 27.4057C11.8287 26.0101 10.548 24.6515 9.66595 22.9847C9.0945 22.2987 8.78914 21.4702 8.46634 20.5606C8.19414 20.9172 8.33373 21.1875 8.43406 21.4332C9.09625 23.0595 10.0664 24.4947 11.1727 25.8402C11.8034 26.6071 12.4726 27.3432 13.1121 28.1031C13.4948 28.5433 13.716 29.1029 13.7385 29.688C13.7438 29.8562 13.7385 30.0314 13.5396 30.0869C13.3651 30.1362 13.2482 30.0138 13.2072 29.8765C12.6061 27.9041 10.9083 26.7559 9.73749 25.2203ZM17.928 30.7068C18.2343 30.7068 18.4733 30.6813 18.2229 31.1277C18.024 31.4852 17.9385 31.9078 17.8102 32.3032C17.7335 32.54 17.6471 32.6968 17.3522 32.5488C17.0573 32.4009 16.7171 32.4608 16.3925 32.4546C15.3875 32.4458 14.3859 32.4432 13.3791 32.4388C13.0353 32.4388 12.9132 32.29 13.0624 31.958C13.1741 31.7106 13.3102 31.4702 13.3826 31.2122C13.4838 30.86 13.6967 30.7068 14.05 30.7147C14.3545 30.72 14.6607 30.7147 14.9652 30.7147C15.9554 30.7948 16.9422 30.698 17.928 30.7041V30.7068ZM21.3916 27.5695C20.0263 27.5466 18.6609 27.5651 17.2955 27.5633C16.0217 27.5633 15.999 27.5378 15.705 26.2479L15.6553 26.1977L15.5986 26.1404L15.6064 26.1325C15.6422 26.1686 15.6771 26.2038 15.712 26.2408C16.2894 26.4931 16.9107 26.6269 17.5398 26.6344C18.6007 26.6344 19.59 26.2117 20.5174 25.4017C21.068 24.9218 21.3899 24.3037 21.6202 23.6283C22.0451 22.3956 22.0346 22.4132 23.1374 22.9406C23.5684 23.1467 23.728 23.4091 23.7315 23.9013C23.7376 25.09 23.3128 26.0894 22.5974 26.9989C22.2911 27.4013 21.9081 27.5783 21.3916 27.5695ZM27.7605 27.0887C28.0222 27.441 27.8765 27.5642 27.4988 27.5633C26.8008 27.5633 26.0985 27.5633 25.397 27.5633C24.6956 27.5633 23.9959 27.5633 23.2962 27.5633C22.9175 27.5633 22.7727 27.4427 23.0345 27.0887C23.7176 26.1809 24.1093 25.1675 24.1311 24.0175C24.1381 23.6785 24.3056 23.5288 24.6171 23.7252C24.8432 23.8928 25.1165 23.9832 25.397 23.9832C25.6776 23.9832 25.9509 23.8928 26.177 23.7252C26.4885 23.5288 26.6569 23.6785 26.6638 24.0175C26.6848 25.1675 27.0782 26.1809 27.7605 27.0887ZM31.0575 23.2831C31.9299 23.8995 32.8294 24.3838 33.9714 24.0827C33.769 24.456 33.4567 24.5449 33.113 24.596C31.9788 24.7659 31.0034 24.3706 30.0891 23.7384C29.5194 23.3448 29.2995 22.7698 29.2498 22.1182C29.2175 21.6991 29.5516 21.4614 29.8605 21.3962C30.1693 21.331 30.0193 21.7132 30.0847 21.8866C30.295 22.4343 30.5637 22.9309 31.0575 23.2831ZM30.9371 15.0811C30.7818 15.207 30.6675 15.4201 30.7015 15.6094C30.8594 16.5032 30.4145 17.3819 30.6596 18.2774C30.7263 18.5681 30.7784 18.862 30.8158 19.1579C30.6954 19.4802 30.8306 19.8183 30.5358 20.0886C29.3937 21.1347 28.2421 22.1385 26.8881 22.9309C26.3646 23.233 25.8821 23.4214 25.3988 23.4478C24.9172 23.4214 24.4304 23.233 23.9104 22.9309C22.5537 22.1385 21.4021 21.1347 20.2575 20.0886C19.9626 19.8183 20.0969 19.4802 19.9765 19.1579C20.0245 18.8806 20.0524 18.5706 20.1327 18.2774C20.3779 17.3819 19.9329 16.5032 20.0899 15.6094C20.1248 15.4166 20.0114 15.2035 19.8561 15.0811C19.4496 14.7527 19.6188 14.4551 19.8788 14.1601C20.4529 13.5041 21.1447 13.0383 22.0111 12.871C22.4002 12.7953 22.7858 12.7125 23.1723 12.6298C24.016 12.4484 24.7209 12.0521 25.1789 11.2887C25.2247 11.1937 25.3001 11.1164 25.3935 11.0686C25.4875 11.116 25.5632 11.1934 25.609 11.2887C26.068 12.0521 26.7738 12.4484 27.6157 12.6298C28.0022 12.7125 28.3887 12.7953 28.7769 12.871C29.6441 13.0383 30.3342 13.5041 30.91 14.1601C31.1726 14.4507 31.3436 14.7483 30.9371 15.0767V15.0811Z" fill="#FBC44C"/>
<path d="M31.8741 19.187C31.2433 19.1826 31.0932 18.9669 31.0697 18.2475C31.0505 17.6892 31.3899 17.639 31.8043 17.639C32.8512 17.639 33.6609 17.2745 34.3082 16.3491C34.7509 15.7268 35.4138 15.3002 36.1595 15.1577C36.1412 14.9816 36.1194 14.8055 36.0959 14.6294C35.9903 14.6197 35.8856 14.6092 35.7809 14.596C35.541 14.566 35.5192 14.4841 35.5384 14.2957C35.5756 13.8537 35.6634 13.4176 35.8001 12.9961C35.7233 12.6579 35.6361 12.3236 35.5384 11.9932C35.2182 12.1499 34.884 12.2802 34.5569 12.422C33.865 12.8385 33.3686 13.4663 32.8434 14.0597C32.0442 14.964 32.1175 15.8208 33.0528 16.5771C33.4017 16.8615 33.1566 16.9813 32.9263 17.0464C32.4772 17.1813 32.0087 17.2379 31.5408 17.2137C31.2599 17.1961 31.0828 17.0667 31.1334 16.7673C31.3244 15.6711 31.4414 14.566 32.3173 13.7075C33.2621 12.7786 33.3869 10.9383 32.7029 9.81475C32.3234 9.19047 31.8043 8.79864 31.0706 8.85851C30.4407 8.9087 29.9364 9.19751 29.7959 9.90633C29.7523 10.1185 29.6284 10.1159 29.5115 9.93274C29.009 9.14732 29.3745 7.94982 30.2513 7.68478C31.0365 7.44968 31.813 7.57296 32.422 8.14617C33.1199 8.80304 33.7307 9.53299 33.6364 10.6116C33.6068 10.9524 33.6504 11.3002 33.6757 11.6436C33.6862 11.7942 33.6382 12.0319 33.8668 12.0257C34.077 12.0187 34.0569 11.7845 34.0526 11.6339C34.0482 10.9062 33.9954 10.1796 33.8947 9.45902C33.6539 8.85499 33.3555 8.27385 33.1967 7.639C33.1592 7.49547 32.9978 7.31673 33.1967 7.20842C33.3127 7.14679 33.4009 7.23572 33.4759 7.32905C33.3235 7.08251 33.7673 6.74612 33.6033 6.50779C33.3893 6.38374 33.163 6.2828 32.928 6.20665C32.7779 6.15735 32.5877 6.0781 32.4918 6.25508C32.381 6.45056 32.579 6.54125 32.7029 6.63459C32.9979 6.84669 32.8886 7.2347 33.0099 7.57911C33.0283 7.65219 32.7614 7.7112 32.6645 7.65044C31.9988 7.36868 31.3314 7.07546 30.5846 7.17408C29.8867 7.26213 29.228 7.55094 29.0229 8.24303C28.7961 9.01348 28.8327 9.83677 29.4373 10.4963C29.6031 10.6724 29.8221 10.7912 30.0699 10.7164C30.3613 10.6284 30.267 10.373 30.2566 10.1634C30.2304 9.68268 30.4834 9.42645 30.9196 9.30934C31.4256 9.17462 31.8942 9.39739 32.2798 9.86582C33.1418 10.9136 32.6907 13.0137 31.7389 13.7868C31.5146 13.9673 31.3262 14.0051 31.1281 13.7868C30.329 12.879 29.2847 12.5109 28.1304 12.341C27.4159 12.2362 27.3391 12.1023 27.3042 11.3724C27.299 11.2465 27.2937 11.1188 27.2798 10.992C27.2693 10.896 27.2257 10.8159 27.1166 10.8159C27.0076 10.8159 26.9727 10.9128 26.9613 11.0035C26.9456 11.11 26.9474 11.2201 26.9404 11.3284C26.9317 11.4921 26.9404 11.6806 26.772 11.7589C26.574 11.847 26.4326 11.692 26.3061 11.5635C25.8998 11.1446 25.6418 10.602 25.5724 10.0199C25.5558 9.89312 25.5375 9.73727 25.3979 9.70645C25.2566 9.73727 25.2391 9.89312 25.2234 10.0199C25.1556 10.6023 24.8978 11.1453 24.4906 11.5635C24.3649 11.692 24.2236 11.8461 24.0247 11.7589C23.8502 11.6823 23.865 11.4948 23.8563 11.3284C23.8502 11.2201 23.8502 11.11 23.8354 11.0035C23.8231 10.9154 23.7935 10.8168 23.6809 10.8159C23.5684 10.815 23.5274 10.904 23.5178 10.992C23.5038 11.1188 23.4986 11.2465 23.4916 11.3724C23.4585 12.0988 23.3817 12.2327 22.6672 12.341C21.5112 12.5109 20.4677 12.879 19.6686 13.7868C19.4749 14.0087 19.2864 13.9708 19.0622 13.7868C18.1095 13.0137 17.6593 10.9136 18.5213 9.86582C18.906 9.39827 19.3745 9.17462 19.8806 9.30934C20.3168 9.42645 20.5707 9.68268 20.5445 10.1634C20.5332 10.373 20.4389 10.6284 20.7303 10.7164C20.979 10.7912 21.1971 10.675 21.3628 10.4963C21.9683 9.83677 22.005 9.01348 21.7773 8.24303C21.5731 7.55094 20.91 7.26389 20.2156 7.17408C19.4688 7.07546 18.8022 7.36868 18.1365 7.65044C18.0397 7.7112 18.0414 7.6566 18.0606 7.58352C18.1805 7.2398 18.4023 6.94162 18.6958 6.72942C18.817 6.63609 19.0177 6.54539 18.9078 6.34992C18.8083 6.17381 18.6173 6.25218 18.4716 6.30149C17.3374 6.67043 16.6202 7.51044 16.1107 8.54417C15.849 9.08392 15.7705 9.68884 15.7181 10.2867C15.6841 10.6759 15.575 10.8282 15.1458 10.7358C13.9854 10.4857 14.0064 10.5209 14.6755 9.5277C15.6213 8.12328 16.3812 6.622 16.6516 4.92524C16.7642 4.22083 17.2048 3.571 17.0407 2.812C16.8532 2.34444 16.5775 1.99136 16.0156 2.00016C14.8108 2.02041 13.6051 2.04595 12.4011 2.05035C11.909 2.05035 11.772 2.26696 11.8575 2.73275C11.9867 3.43717 11.9177 4.12485 11.7703 4.83279C11.4597 6.29268 10.6963 7.51748 9.93205 8.7458C9.03256 10.1943 8.22293 11.6867 7.60523 13.2796C7.30249 14.0588 6.99452 14.8346 6.38381 15.4351C5.61693 16.1879 5.24963 17.1301 5.06641 18.1744C4.87535 19.2821 5.05682 19.5991 6.13691 19.7752C6.57313 19.8447 6.76943 20.0508 6.82527 20.4673C6.8955 20.9895 7.05365 21.4957 7.2929 21.9641C8.45049 24.2669 9.95866 26.3722 11.7624 28.2035C12.354 28.7996 12.9324 29.4494 12.7117 30.425C12.7111 30.4608 12.7181 30.4963 12.7323 30.5291C12.7464 30.5619 12.7674 30.5912 12.7937 30.6152C13.0554 30.8732 12.9638 31.1435 12.8329 31.4174C12.6829 31.7282 12.518 32.0337 12.3662 32.3401C12.135 32.8112 12.2074 32.9213 12.7152 32.9178C14.2099 32.909 15.7033 32.9043 17.1952 32.9037C17.3569 32.894 17.519 32.9131 17.6741 32.96C18.01 33.0859 18.1828 32.9363 18.3058 32.6475C18.5099 32.1623 18.7228 31.6789 18.9244 31.1964C19.0666 30.853 19.3109 30.7033 19.6799 30.7033C21.5888 30.7033 23.4974 30.705 25.4058 30.7086L30.4302 30.7041C30.6117 30.5333 30.7893 30.3593 30.9632 30.182H28.8676C27.7119 30.182 26.5551 30.182 25.397 30.182C24.239 30.182 23.0824 30.182 21.9273 30.182C20.3813 30.182 18.8362 30.182 17.2903 30.182C16.5731 30.182 16.4937 30.094 16.4833 29.3596C16.4641 28.0837 16.4641 28.0837 17.7431 28.0837H32.7334C32.8573 27.9129 32.9777 27.7403 33.0964 27.5651C31.8662 27.5651 30.6361 27.551 29.4068 27.5713C28.8912 27.5801 28.5082 27.4031 28.1959 27.0033C27.4822 26.0938 27.0617 25.0944 27.0617 23.9057C27.0617 23.4135 27.2239 23.1511 27.6549 22.945C28.7568 22.4167 28.7472 22.4018 29.1721 23.6327C29.4051 24.3081 29.7244 24.9262 30.2749 25.4061C31.3288 26.3245 32.4647 26.7445 33.6949 26.6115C33.7917 26.4468 33.8859 26.2813 33.9784 26.1131C32.2597 26.4592 30.2766 25.3594 29.9085 24.1522C30.4319 24.4014 30.8952 24.6515 31.3812 24.8566C31.9046 25.0759 32.4691 25.0592 33.0266 25.0327C33.256 24.994 33.4846 24.92 33.7141 24.9227C34.0285 24.925 34.3412 24.8768 34.6406 24.78C34.7279 24.581 34.8151 24.3794 34.9023 24.1769C34.8247 24.213 34.7462 24.2482 34.6624 24.2799L34.6581 24.2887L34.6275 24.2984L34.6415 24.2905L34.6546 24.2825H34.6624C34.7383 24.0554 34.9137 23.8951 35.048 23.7076C35.0795 23.6644 35.1082 23.6195 35.1353 23.572C35.2481 23.2655 35.3522 22.9559 35.4476 22.643C35.5288 22.1085 35.4694 21.5591 35.2505 21.2227C34.8814 20.6557 33.7621 20.2542 32.9699 20.4091C32.4665 20.5078 32.2344 20.8195 32.3592 21.2368C32.5014 21.7299 32.7081 21.8277 33.2377 21.6533C33.7673 21.479 34.159 21.6938 34.3004 22.238C34.4984 22.9979 34.0744 23.6239 33.2997 23.7155C32.2885 23.8344 30.7992 22.835 30.5157 21.8541C30.2906 21.0819 31.0758 19.946 31.8784 19.9319C32.9926 19.9116 34.1075 19.9319 35.2208 19.924C35.3774 19.9136 35.5336 19.9497 35.67 20.028C35.8065 20.1062 35.9172 20.2231 35.9885 20.3642C36.0554 19.975 36.1107 19.5823 36.1543 19.1861C34.727 19.1905 33.3005 19.1967 31.8741 19.187ZM32.7081 15.2801C32.7024 15.0616 32.7687 14.8473 32.8966 14.6708C33.4113 13.9981 33.9261 13.3201 34.6633 12.8675C34.7671 12.8041 34.8779 12.6703 34.9974 12.7451C35.1588 12.8446 35.0289 13.0093 35.0166 13.1413C35.0009 13.3386 34.9215 13.5534 34.9713 13.7322C35.233 14.6602 34.8579 15.2836 34.1363 15.8234C33.8519 16.0356 33.6382 16.3139 33.2534 16.1571C32.8495 15.9933 32.7491 15.6226 32.7081 15.2801ZM33.0283 21.2923C32.8765 21.3337 32.7308 21.3751 32.6951 21.1681C32.6593 20.9612 32.7989 20.8802 32.9655 20.8239C33.4663 20.6548 34.4714 20.8829 34.7706 21.2747C35.1684 21.7977 35.1196 22.3718 34.7968 22.953C34.7811 22.8138 34.7628 22.6747 34.7532 22.5347C34.672 21.464 34.05 21.0123 33.0283 21.2923ZM16.1151 11.6198C16.0793 10.8273 16.0278 10.0261 16.2686 9.24858C16.3847 8.52039 16.7921 7.9507 17.2527 7.40918C17.34 7.30176 17.4456 7.13006 17.5965 7.2093C17.798 7.31761 17.6358 7.49635 17.6009 7.63987C17.4403 8.27473 17.1419 8.85587 16.9029 9.4599C16.7999 10.1786 16.7451 10.9034 16.7389 11.6295C16.7345 11.7801 16.7144 12.0143 16.9256 12.0213C17.1524 12.0275 17.1053 11.7898 17.1158 11.6392C17.1411 11.2958 17.1856 10.948 17.1559 10.6072C17.0634 9.52947 17.6715 8.79952 18.3695 8.14177C18.9802 7.56855 19.7584 7.44528 20.541 7.68038C21.4134 7.94453 21.7834 9.14292 21.2808 9.92834C21.1631 10.1115 21.0392 10.1141 20.9955 9.90192C20.8516 9.19751 20.3508 8.9043 19.7218 8.85411C18.988 8.79423 18.4672 9.18606 18.0894 9.81035C17.4054 10.9339 17.5284 12.7742 18.475 13.7031C19.3475 14.5634 19.4679 15.6667 19.6581 16.7629C19.7096 17.0623 19.5325 17.1917 19.2507 17.2093C18.7825 17.2334 18.3137 17.1768 17.8643 17.042C17.6349 16.9769 17.388 16.8571 17.7387 16.5727C18.674 15.8146 18.7473 14.9596 17.9481 14.0553C17.4246 13.4619 16.9273 12.834 16.2346 12.4176C15.4381 12.0724 14.6023 11.8012 14.0264 11.0448C14.8003 10.9374 15.459 11.2747 16.1151 11.6198ZM20.9353 21.3936C21.2433 21.4587 21.5775 21.6965 21.5461 22.1156C21.4963 22.7698 21.2756 23.3421 20.705 23.7357C19.7916 24.3679 18.8188 24.7633 17.6829 24.5934C17.3391 24.5423 17.0268 24.4534 16.8244 24.08C17.9655 24.3812 18.8677 23.8933 19.7375 23.2805C20.2313 22.9327 20.5 22.4361 20.7111 21.884C20.7809 21.7088 20.6221 21.324 20.9353 21.3918V21.3936ZM17.0817 24.9183C17.3112 24.9183 17.5407 24.9896 17.7701 25.0283C18.3276 25.0539 18.8895 25.0706 19.4147 24.8522C19.9006 24.6506 20.3683 24.4005 20.8865 24.1478C20.4442 25.6024 17.6584 26.8994 15.8132 25.7046C14.2035 24.8241 13.6434 23.3853 13.6932 21.6331C13.7097 21.0008 13.906 20.4285 14.4121 20.012C14.351 20.4805 14.1259 20.8881 14.05 21.3522C13.749 23.2057 15.2173 24.9412 17.0817 24.9183ZM20.2836 21.8497C20.001 22.8341 18.5126 23.8299 17.4997 23.7111C16.7249 23.623 16.3018 22.9935 16.5007 22.2336C16.642 21.6894 17.0346 21.4737 17.5633 21.6489C18.092 21.8241 18.2979 21.7255 18.4419 21.2324C18.5632 20.8151 18.332 20.5034 17.8312 20.4047C17.039 20.2524 15.9197 20.6513 15.5515 21.2183C15.1711 21.803 15.2697 23.0269 15.7548 23.7032C15.8882 23.8907 16.0636 24.0554 16.1404 24.2781H16.1474L16.1613 24.2861L16.1744 24.294L16.143 24.2843V24.2755C14.3903 23.6081 14.0212 21.8594 14.7986 20.3924C14.8665 20.2436 14.9774 20.119 15.1168 20.0349C15.2561 19.9509 15.4174 19.9113 15.5794 19.9213C16.6935 19.9293 17.8085 19.909 18.9226 19.9293C19.7165 19.946 20.507 21.0819 20.2836 21.8497ZM19.7253 18.2475C19.7017 18.9669 19.5508 19.1826 18.9217 19.187C17.449 19.1967 15.9764 19.187 14.5045 19.187V19.1729C13.051 19.1729 11.5976 19.1817 10.1423 19.1729C9.48361 19.1658 9.35711 18.9704 9.64414 18.3725C9.9748 17.6875 10.3587 17.0429 11.0401 16.6185C11.3515 16.4222 11.5731 16.0858 11.861 15.8437C13.2465 14.6831 15.4555 14.8751 16.485 16.3491C17.1324 17.2745 17.9394 17.6373 18.9889 17.639C19.4051 17.639 19.7436 17.6892 19.7253 18.2475ZM13.2142 22.5224C13.222 22.6606 13.311 22.8552 13.1662 22.9204C12.9874 23.0023 12.9045 22.7883 12.8076 22.6747C12.3092 22.11 11.9572 21.4293 11.7834 20.6935C11.6351 20.0393 11.6796 19.9539 12.3287 19.9389C12.4238 19.9389 12.5197 19.9389 12.6148 19.9389H12.853C13.5196 19.9451 13.551 19.9883 13.3075 20.6231C13.0641 21.258 13.1802 21.8849 13.2142 22.5224ZM11.5103 14.6708C11.5119 14.3975 11.5652 14.1271 11.6673 13.8739C11.8985 13.2373 12.285 12.6844 12.6576 12.1314C12.8434 11.8532 13.1217 11.6101 13.4628 11.6524C14.0395 11.6392 14.3981 11.9165 14.6712 12.3313C15.0594 12.9247 15.1816 13.6019 15.2575 14.2922C15.2775 14.4806 15.2575 14.5625 15.0149 14.5924C14.0046 14.7201 12.9664 14.6585 11.9945 15.0653C11.6961 15.1894 11.5199 14.9896 11.5103 14.6708ZM15.7774 13.1413C15.767 13.0057 15.6379 12.8446 15.7975 12.7451C15.9179 12.6703 16.0287 12.8041 16.1325 12.8675C16.8689 13.3201 17.3836 13.9981 17.9001 14.6708C18.0271 14.8476 18.0927 15.0618 18.0868 15.2801C18.0458 15.6244 17.9455 15.9933 17.5424 16.1606C17.1577 16.3174 16.9422 16.0391 16.6586 15.8269C15.9371 15.2872 15.5628 14.6638 15.8237 13.7357C15.8743 13.5534 15.7949 13.3386 15.7774 13.1413ZM13.9933 2.48709C14.5665 2.4774 15.1406 2.51791 15.7138 2.43249C16.3166 2.34444 16.5312 2.55489 16.5155 3.34295C16.1919 5.39191 15.6431 7.50692 14.2699 9.33575C13.5152 10.3395 12.4927 11.132 11.9395 12.2952C11.909 12.3577 11.8523 12.4422 11.7982 12.4528C11.0558 12.6016 10.3761 12.9362 9.66159 13.166C9.46616 13.2294 9.40771 13.0639 9.43737 12.9018C9.46529 12.7231 9.51359 12.5482 9.58133 12.3806C10.0437 11.3003 10.5879 10.2576 11.2093 9.26179C12.3348 7.46641 13.106 5.52487 13.1174 3.34735C13.1217 2.55577 13.1906 2.49589 13.9933 2.48268V2.48709ZM7.95596 13.6292C8.03101 13.3676 8.12551 13.1121 8.23863 12.8649C9.01249 11.2676 9.78199 9.66859 10.7574 8.17963C11.4972 7.04905 12.0355 5.82601 12.2885 4.48762C12.3275 4.22508 12.3514 3.96048 12.3601 3.69516C12.3374 3.36937 12.3182 3.16685 12.3112 2.96961C12.3051 2.80672 12.2955 2.60067 12.504 2.57954C12.7518 2.55577 12.7754 2.78206 12.7815 2.96081C12.7937 3.28748 12.8216 3.61943 12.7745 3.93906C12.5084 5.75909 11.9142 7.47522 10.9153 9.00468C10.0751 10.292 9.36496 11.6198 8.97236 13.1061C8.85894 13.5376 8.58238 13.7348 8.2238 13.8845C7.96119 13.991 7.87918 13.8739 7.95596 13.6292ZM6.58447 19.3411C5.90571 19.4291 5.54888 19.1016 5.58552 18.4949C5.59337 16.8994 6.51817 15.8331 7.61745 14.8663C8.64955 13.9585 9.96346 13.6204 11.1762 13.0806C11.4588 12.9547 11.5469 13.1096 11.4292 13.3791C11.0802 14.1716 10.9537 15.0133 10.849 15.8613C10.8332 16.0445 10.7505 16.2152 10.6169 16.3403C9.905 16.9857 9.42603 17.7931 9.0596 18.6701C8.87988 19.1007 8.60157 19.2794 8.14528 19.2601C7.62338 19.2417 7.10089 19.2688 6.5836 19.3411H6.58447ZM9.73749 25.2203C8.667 23.8115 7.98562 22.2265 7.32169 20.6249C7.11492 20.123 7.25189 19.9548 7.78234 19.9354C8.12259 19.9222 8.46459 19.9416 8.80659 19.946C8.91041 19.946 9.01336 19.946 9.11718 19.9504C9.4461 19.9504 9.77326 19.9504 10.1004 19.9504C11.0776 19.9116 11.1055 19.9301 11.2303 20.6733C11.339 20.8301 11.3996 21.0156 11.4047 21.2069C11.6211 22.1895 12.3426 22.8878 12.8007 23.7349C12.852 23.7508 12.8988 23.7793 12.9368 23.8176C12.9752 23.8566 13.005 23.9034 13.024 23.955V23.9418C13.6225 24.3169 14.0273 24.8602 14.337 25.4862C14.3658 25.5179 14.3937 25.5505 14.4243 25.5822C15.3438 26.7119 15.9624 27.9825 16.1892 29.4344C16.2643 29.9134 16.0366 30.1547 15.5619 30.1697C15.3875 30.1758 15.2016 30.1626 15.0228 30.1802C14.474 30.2304 14.2097 30.0156 14.1451 29.4309C14.0578 28.6261 13.5832 28.0001 13.0589 27.4057C11.8287 26.0101 10.548 24.6515 9.66595 22.9847C9.0945 22.2987 8.78914 21.4702 8.46634 20.5606C8.19414 20.9172 8.33373 21.1875 8.43406 21.4332C9.09625 23.0595 10.0664 24.4947 11.1727 25.8402C11.8034 26.6071 12.4726 27.3432 13.1121 28.1031C13.4948 28.5433 13.716 29.1029 13.7385 29.688C13.7438 29.8562 13.7385 30.0314 13.5396 30.0869C13.3651 30.1362 13.2482 30.0138 13.2072 29.8765C12.6061 27.9041 10.9083 26.7559 9.73749 25.2203ZM17.928 30.7068C18.2343 30.7068 18.4733 30.6813 18.2229 31.1277C18.024 31.4852 17.9385 31.9078 17.8102 32.3032C17.7335 32.54 17.6471 32.6968 17.3522 32.5488C17.0573 32.4009 16.7171 32.4608 16.3925 32.4546C15.3875 32.4458 14.3859 32.4432 13.3791 32.4388C13.0353 32.4388 12.9132 32.29 13.0624 31.958C13.1741 31.7106 13.3102 31.4702 13.3826 31.2122C13.4838 30.86 13.6967 30.7068 14.05 30.7147C14.3545 30.72 14.6607 30.7147 14.9652 30.7147C15.9554 30.7948 16.9422 30.698 17.928 30.7041V30.7068ZM21.3916 27.5695C20.0263 27.5466 18.6609 27.5651 17.2955 27.5633C16.0217 27.5633 15.999 27.5378 15.705 26.2479L15.6553 26.1977L15.5986 26.1404L15.6064 26.1325C15.6422 26.1686 15.6771 26.2038 15.712 26.2408C16.2894 26.4931 16.9107 26.6269 17.5398 26.6344C18.6007 26.6344 19.59 26.2117 20.5174 25.4017C21.068 24.9218 21.3899 24.3037 21.6202 23.6283C22.0451 22.3956 22.0346 22.4132 23.1374 22.9406C23.5684 23.1467 23.728 23.4091 23.7315 23.9013C23.7376 25.09 23.3128 26.0894 22.5974 26.9989C22.2911 27.4013 21.9081 27.5783 21.3916 27.5695ZM27.7605 27.0887C28.0222 27.441 27.8765 27.5642 27.4988 27.5633C26.8008 27.5633 26.0985 27.5633 25.397 27.5633C24.6956 27.5633 23.9959 27.5633 23.2962 27.5633C22.9175 27.5633 22.7727 27.4427 23.0345 27.0887C23.7176 26.1809 24.1093 25.1675 24.1311 24.0175C24.1381 23.6785 24.3056 23.5288 24.6171 23.7252C24.8432 23.8928 25.1165 23.9832 25.397 23.9832C25.6776 23.9832 25.9509 23.8928 26.177 23.7252C26.4885 23.5288 26.6569 23.6785 26.6638 24.0175C26.6848 25.1675 27.0782 26.1809 27.7605 27.0887ZM31.0575 23.2831C31.9299 23.8995 32.8294 24.3838 33.9714 24.0827C33.769 24.456 33.4567 24.5449 33.113 24.596C31.9788 24.7659 31.0034 24.3706 30.0891 23.7384C29.5194 23.3448 29.2995 22.7698 29.2498 22.1182C29.2175 21.6991 29.5516 21.4614 29.8605 21.3962C30.1693 21.331 30.0193 21.7132 30.0847 21.8866C30.295 22.4343 30.5637 22.9309 31.0575 23.2831ZM30.9371 15.0811C30.7818 15.207 30.6675 15.4201 30.7015 15.6094C30.8594 16.5032 30.4145 17.3819 30.6596 18.2774C30.7263 18.5681 30.7784 18.862 30.8158 19.1579C30.6954 19.4802 30.8306 19.8183 30.5358 20.0886C29.3937 21.1347 28.2421 22.1385 26.8881 22.9309C26.3646 23.233 25.8821 23.4214 25.3988 23.4478C24.9172 23.4214 24.4304 23.233 23.9104 22.9309C22.5537 22.1385 21.4021 21.1347 20.2575 20.0886C19.9626 19.8183 20.0969 19.4802 19.9765 19.1579C20.0245 18.8806 20.0524 18.5706 20.1327 18.2774C20.3779 17.3819 19.9329 16.5032 20.0899 15.6094C20.1248 15.4166 20.0114 15.2035 19.8561 15.0811C19.4496 14.7527 19.6188 14.4551 19.8788 14.1601C20.4529 13.5041 21.1447 13.0383 22.0111 12.871C22.4002 12.7953 22.7858 12.7125 23.1723 12.6298C24.016 12.4484 24.7209 12.0521 25.1789 11.2887C25.2247 11.1937 25.3001 11.1164 25.3935 11.0686C25.4875 11.116 25.5632 11.1934 25.609 11.2887C26.068 12.0521 26.7738 12.4484 27.6157 12.6298C28.0022 12.7125 28.3887 12.7953 28.7769 12.871C29.6441 13.0383 30.3342 13.5041 30.91 14.1601C31.1726 14.4507 31.3436 14.7483 30.9371 15.0767V15.0811Z" stroke="#FBC44C" stroke-width="0.4" mask="url(#path-12-outside-1_245_551)"/>
</g>
</g>
</g>
</g>
<defs>
<clipPath id="clip0_245_551">
<rect width="35" height="35" rx="17.5" fill="white"/>
</clipPath>
</defs>
</svg>
