<svg width="40" height="40" viewBox="0 0 40 40" fill="none" xmlns="http://www.w3.org/2000/svg">
<path fill-rule="evenodd" clip-rule="evenodd" d="M20 40C31.0457 40 40 31.0457 40 20C40 8.9543 31.0457 0 20 0C8.9543 0 0 8.9543 0 20C0 31.0457 8.9543 40 20 40ZM24.1947 9.00241C26.2908 9.35686 28.2952 9.98019 30.1652 10.8235C30.1815 10.83 30.195 10.8422 30.2031 10.8577C33.5165 15.6513 35.1519 21.0609 34.5408 27.2869C34.5393 27.3 34.5351 27.3127 34.5283 27.3241C34.5216 27.3355 34.5125 27.3453 34.5017 27.3529C32.2792 28.972 29.799 30.2039 27.1659 30.9963C27.1473 31.0019 27.1275 31.0015 27.1091 30.9954C27.0908 30.9893 27.0747 30.9777 27.0632 30.9621C26.5095 30.2031 26.006 29.4037 25.566 28.5641C25.56 28.5525 25.5565 28.5398 25.5558 28.5268C25.5552 28.5137 25.5572 28.5007 25.562 28.4886C25.5667 28.4764 25.574 28.4654 25.5833 28.4563C25.5927 28.4472 25.6038 28.4402 25.6161 28.4357C26.4142 28.14 27.1744 27.7843 27.9053 27.3639C27.9184 27.3561 27.9293 27.3453 27.9371 27.3323C27.9449 27.3193 27.9493 27.3046 27.9501 27.2894C27.9508 27.2743 27.9478 27.2592 27.9412 27.2455C27.9347 27.2319 27.9249 27.22 27.9127 27.2111C27.7574 27.0974 27.6047 26.9789 27.458 26.8591C27.4445 26.8484 27.4284 26.8417 27.4113 26.8397C27.3942 26.8378 27.3769 26.8407 27.3614 26.8481C22.618 29.0041 17.4199 29.0041 12.6202 26.8481C12.6047 26.8411 12.5876 26.8385 12.5708 26.8407C12.554 26.8429 12.5381 26.8496 12.5249 26.8603C12.3782 26.9789 12.2242 27.0974 12.0702 27.2111C12.0581 27.2202 12.0484 27.2322 12.0421 27.246C12.0358 27.2598 12.033 27.275 12.0339 27.2901C12.0349 27.3052 12.0396 27.3199 12.0477 27.3328C12.0557 27.3457 12.0668 27.3563 12.08 27.3639C12.8134 27.7808 13.5784 28.1396 14.368 28.437C14.4193 28.4565 14.4438 28.5152 14.4181 28.5641C13.9879 29.405 13.4843 30.2055 12.9197 30.9633C12.9077 30.9783 12.8915 30.9894 12.8732 30.995C12.8549 31.0007 12.8353 31.0007 12.817 30.9951C10.1884 30.2004 7.71224 28.9692 5.49221 27.3529C5.48166 27.3448 5.47286 27.3347 5.46635 27.3231C5.45984 27.3116 5.45574 27.2988 5.45432 27.2856C4.94221 21.9005 5.98476 16.447 9.78832 10.8553C9.79768 10.8406 9.81133 10.8291 9.82743 10.8223C11.6987 9.97775 13.7031 9.35441 15.798 8.99997C15.8169 8.99697 15.8363 8.99981 15.8535 9.00811C15.8708 9.01641 15.8851 9.02977 15.8945 9.04641C16.1736 9.53313 16.4254 10.035 16.6487 10.5497C18.8718 10.2176 21.1319 10.2176 23.355 10.5497C23.5554 10.0853 23.8414 9.49741 24.0981 9.04641C24.1076 9.02997 24.1221 9.0169 24.1394 9.00902C24.1567 9.00114 24.176 8.99883 24.1947 9.00241ZM12.4992 21.0975C12.4992 22.6999 13.6909 24.0064 15.1355 24.0064C16.6034 24.0064 17.7719 22.7011 17.7719 21.0975C17.7951 19.505 16.6144 18.1886 15.1355 18.1886C13.6677 18.1886 12.4992 19.494 12.4992 21.0975ZM22.2464 21.0975C22.2464 22.6999 23.4369 24.0064 24.8828 24.0064C26.3629 24.0064 27.5191 22.7011 27.5191 21.0975C27.5423 19.505 26.3617 18.1886 24.8828 18.1886C23.4137 18.1886 22.2464 19.494 22.2464 21.0975Z" fill="#747376"/>
</svg>
