<svg width="40" height="40" viewBox="0 0 40 40" fill="none" xmlns="http://www.w3.org/2000/svg">
<path fill-rule="evenodd" clip-rule="evenodd" d="M20 40C31.0457 40 40 31.0457 40 20C40 8.9543 31.0457 0 20 0C8.9543 0 0 8.9543 0 20C0 31.0457 8.9543 40 20 40ZM4 20C4 11.16 11.16 4 20 4C28.84 4 36 11.16 36 20C35.999 23.3524 34.9469 26.6201 32.9916 29.3432C31.0362 32.0662 28.2762 34.1076 25.1 35.18C24.3 35.34 24 34.84 24 34.42C24 34.2394 24.0022 33.927 24.0052 33.511C24.0111 32.6828 24.02 31.4444 24.02 30.02C24.02 28.52 23.52 27.56 22.94 27.06C26.5 26.66 30.24 25.3 30.24 19.16C30.24 17.4 29.62 15.98 28.6 14.86C28.76 14.46 29.32 12.82 28.44 10.62C28.44 10.62 27.1 10.18 24.04 12.26C22.76 11.9 21.4 11.72 20.04 11.72C18.68 11.72 17.32 11.9 16.04 12.26C12.98 10.2 11.64 10.62 11.64 10.62C10.76 12.82 11.32 14.46 11.48 14.86C10.46 15.98 9.84 17.42 9.84 19.16C9.84 25.28 13.56 26.66 17.12 27.06C16.66 27.46 16.24 28.16 16.1 29.2C15.18 29.62 12.88 30.3 11.44 27.88C11.14 27.4 10.24 26.22 8.98 26.24C7.64 26.26 8.44 27 9 27.3C9.68 27.68 10.46 29.1 10.64 29.56C10.96 30.46 12 32.18 16.02 31.44C16.02 32.3144 16.0285 33.1547 16.0344 33.7387C16.0376 34.0497 16.04 34.288 16.04 34.42C16.04 34.84 15.74 35.32 14.94 35.18C8.58 33.06 4 27.08 4 20Z" fill="#747376"/>
</svg>
