<svg width="147" height="147" viewBox="0 0 147 147" fill="none" xmlns="http://www.w3.org/2000/svg">
<path d="M57.9556 131.44C46.4931 128.369 36.1988 121.967 28.3744 113.045C20.55 104.123 15.547 93.0816 13.9981 81.3163C12.4491 69.5509 14.4238 57.5905 19.6724 46.9474C24.921 36.3043 33.2078 27.4566 43.4848 21.5232C53.7618 15.5898 65.5675 12.8371 77.409 13.6132C89.2504 14.3893 100.596 18.6594 110.01 25.8835C119.425 33.1076 126.486 42.9612 130.301 54.1983C134.115 65.4355 134.512 77.5513 131.44 89.0139C127.303 104.373 117.244 117.464 103.468 125.418C89.6928 133.371 73.3256 135.537 57.9556 131.44ZM88.2374 18.4269C77.3492 15.5114 65.8408 15.8901 55.1678 19.5152C44.4947 23.1402 35.1364 29.8489 28.2761 38.7928C21.4159 47.7366 17.362 58.5139 16.6269 69.7618C15.8919 81.0097 18.5088 92.223 24.1468 101.984C29.7847 111.744 38.1905 119.614 48.301 124.597C58.4115 129.58 69.7727 131.453 80.9478 129.979C92.1229 128.506 102.61 123.751 111.083 116.317C119.556 108.883 125.634 99.1033 128.549 88.2148C132.44 73.6154 130.381 58.0685 122.824 44.9852C115.267 31.9019 102.828 22.3506 88.2374 18.4269Z" fill="#2A2A2A"/>
<path d="M61.036 119.944C51.8457 117.48 43.5926 112.346 37.32 105.191C31.0474 98.0363 27.037 89.1824 25.796 79.7487C24.555 70.3151 26.139 60.7252 30.3477 52.1917C34.5565 43.6582 41.2011 36.5643 49.4412 31.8068C57.6814 27.0493 67.1473 24.842 76.6419 25.4638C86.1365 26.0857 95.2335 29.5088 102.783 35.3004C110.332 41.092 115.995 48.992 119.054 58.0015C122.114 67.0111 122.434 76.7256 119.973 85.9168C116.659 98.2378 108.592 108.74 97.5421 115.12C86.4926 121.499 73.3634 123.234 61.036 119.944ZM85.5429 28.483C76.6381 26.0989 67.2263 26.4093 58.4979 29.3749C49.7695 32.3405 42.1167 37.828 36.5075 45.1435C30.8983 52.4589 27.5846 61.2736 26.9856 70.4725C26.3866 79.6715 28.5292 88.8414 33.1425 96.8225C37.7557 104.804 44.6323 111.237 52.9024 115.31C61.1725 119.382 70.4646 120.91 79.6034 119.701C88.7421 118.492 97.317 114.599 104.243 108.516C111.17 102.433 116.136 94.4324 118.515 85.5262C121.696 73.5877 120.012 60.8751 113.831 50.1769C107.651 39.4788 97.48 31.6689 85.549 28.4604L85.5429 28.483Z" fill="#2A2A2A"/>
<path d="M124.523 93.9299L122.813 94.0444C122.529 94.5411 122.249 95.0435 121.932 95.5214C121.754 94.9886 121.568 94.4533 121.359 93.912L119.704 93.5316L120.997 92.5096C120.931 91.9581 120.866 91.4215 120.761 90.8739L122.224 91.7513L123.739 90.9877C123.613 91.5462 123.511 92.1107 123.375 92.6712L124.523 93.9299Z" fill="#2A2A2A"/>
<path d="M120.465 102.063L118.77 101.905C118.404 102.35 118.018 102.776 117.644 103.21L117.35 101.539L115.773 100.884C116.271 100.639 116.745 100.372 117.223 100.093L117.262 98.4436L118.561 99.5343C119.115 99.3867 119.647 99.2137 120.185 99.0329C119.991 99.5777 119.767 100.105 119.534 100.63L120.465 102.063Z" fill="#2A2A2A"/>
<path d="M115.132 109.398L113.48 108.956L112.174 110.062L112.147 108.351L110.709 107.451L112.31 106.91C112.418 106.361 112.507 105.812 112.602 105.275L113.711 106.572L115.405 106.351L114.494 107.815C114.677 108.345 114.914 108.874 115.132 109.398Z" fill="#2A2A2A"/>
<path d="M108.641 115.749L107.083 115.04C106.606 115.354 106.1 115.631 105.599 115.909C105.696 115.348 105.793 114.801 105.862 114.237L104.601 113.113C105.142 113.03 105.677 112.916 106.225 112.83C106.418 112.309 106.628 111.812 106.8 111.281L107.678 112.749L109.369 112.794C108.992 113.222 108.645 113.687 108.24 114.093L108.641 115.749Z" fill="#2A2A2A"/>
<path d="M101.208 120.959C100.731 120.656 100.252 120.324 99.7854 120L98.1638 120.619L98.6915 118.994L97.6187 117.673C98.1655 117.678 98.728 117.698 99.2764 117.68L100.091 116.234L100.716 117.813C101.267 117.932 101.83 118.058 102.39 118.16C101.951 118.528 101.495 118.891 101.048 119.256L101.208 120.959Z" fill="#2A2A2A"/>
<path d="M93.0121 124.868L91.7698 123.69C91.2092 123.826 90.6477 123.948 90.0845 124.04C90.3577 123.545 90.6207 123.052 90.8705 122.537L90.0273 121.083L91.6557 121.345C92.0165 120.922 92.3657 120.506 92.6939 120.061L93.0524 121.729L94.6399 122.324C94.1495 122.615 93.6567 122.915 93.1551 123.193L93.0121 124.868Z" fill="#2A2A2A"/>
<path d="M84.2774 127.385C83.9144 126.928 83.5885 126.497 83.2485 126.027L81.5339 126.087L82.5619 124.732L81.9796 123.12C82.496 123.312 83.0169 123.505 83.543 123.66L84.7826 122.565L84.8576 124.26C85.3415 124.554 85.8334 124.856 86.3255 125.138C85.7793 125.366 85.2489 125.534 84.71 125.734L84.2774 127.385Z" fill="#2A2A2A"/>
<path d="M75.261 128.434L74.4715 126.907C73.8984 126.836 73.3284 126.79 72.7615 126.697C73.1816 126.324 73.5934 125.91 73.9991 125.519L73.6849 123.848L75.1418 124.641C75.6159 124.375 76.0819 124.049 76.5439 123.755L76.338 125.447L77.6478 126.535L75.9571 126.869C75.7366 127.402 75.505 127.922 75.261 128.434Z" fill="#2A2A2A"/>
<path d="M66.1964 127.961L65.6621 126.333C65.1097 126.185 64.5601 126.008 64.015 125.833C64.4921 125.519 64.9599 125.222 65.4259 124.896L65.3965 123.195C65.824 123.537 66.2608 123.863 66.7043 124.2C67.2218 123.989 67.7275 123.805 68.2305 123.575L67.7481 125.213C68.1172 125.646 68.4911 126.062 68.8638 126.482C68.2904 126.503 67.7154 126.548 67.1426 126.53L66.1964 127.961Z" fill="#2A2A2A"/>
<path d="M57.3328 126.013L57.07 124.331L55.5298 123.559L57.0766 122.858L57.3244 121.172C57.6959 121.597 58.0735 121.999 58.4547 122.387L60.0675 122.019L59.3244 123.543C59.6095 124.036 59.8991 124.531 60.2095 125.003C59.6362 124.951 59.0741 124.839 58.5047 124.754L57.3328 126.013Z" fill="#2A2A2A"/>
<path d="M48.8955 122.655L48.9244 120.936L47.5234 119.934L49.1683 119.482L49.689 117.865L50.5911 119.261L52.2498 119.138L51.2656 120.529L51.8927 122.119L50.2561 121.598L48.8955 122.655Z" fill="#2A2A2A"/>
<path d="M41.1411 117.928L41.4469 116.243C41.034 115.846 40.6211 115.449 40.236 115.021C40.7995 114.983 41.3564 114.933 41.925 114.857L42.7019 113.352L43.3759 114.858C43.9238 114.932 44.4639 114.999 45.0183 115.031L43.8154 116.242L44.1878 117.895C43.6736 117.641 43.1524 117.394 42.6418 117.126L41.1411 117.928Z" fill="#2A2A2A"/>
<path d="M34.2686 111.991C34.4517 111.452 34.6425 110.921 34.8437 110.388L33.8544 108.973L35.55 109.092L36.5746 107.731C36.6978 108.25 36.8191 108.811 36.9797 109.335L38.5735 109.762L37.1969 110.752C37.2089 111.323 37.23 111.896 37.2752 112.452C36.7973 112.134 36.3554 111.773 35.895 111.427L34.2686 111.991Z" fill="#2A2A2A"/>
<path d="M28.4675 105.006L29.3103 103.509C29.0551 102.994 28.7816 102.494 28.5539 101.967C29.0927 102.111 29.6614 102.235 30.2108 102.357L31.4382 101.182L31.5787 102.831C32.0588 103.086 32.5839 103.299 33.0816 103.525L31.5555 104.276L31.3542 105.969L30.1696 104.739C29.5847 104.839 29.0284 104.923 28.4675 105.006Z" fill="#2A2A2A"/>
<path d="M23.8967 97.1618L24.9572 95.83C24.7797 95.2971 24.6415 94.7263 24.4836 94.1745L26.0427 94.8397L27.4506 93.8776C27.3799 94.4313 27.3515 94.972 27.3194 95.5263L28.6749 96.4622L27.0532 96.9545C26.8735 97.4984 26.7349 98.0339 26.5868 98.5863C26.2263 98.1209 25.9146 97.654 25.6078 97.169L23.8967 97.1618Z" fill="#2A2A2A"/>
<path d="M20.6567 88.6795L21.9347 87.5321L21.7121 85.8274L23.1637 86.7307L24.7084 86.0188L24.2789 87.6216C24.6601 88.0101 25.0881 88.3868 25.4877 88.7608L23.799 88.978L23.0827 90.5282L22.3505 88.9684C21.8017 88.8796 21.2109 88.7843 20.6567 88.6795Z" fill="#2A2A2A"/>
<path d="M18.9021 79.7799L20.3456 78.8661C20.3438 78.293 20.391 77.7185 20.4279 77.146C20.8478 77.5351 21.2519 77.9103 21.6824 78.278L23.308 77.8255C23.0767 78.3265 22.8738 78.8302 22.6549 79.3393C22.985 79.7917 23.2879 80.2369 23.6389 80.6658L21.9332 80.6018L20.9729 81.9945C20.8044 81.464 20.6218 80.8959 20.4993 80.3389L18.9021 79.7799Z" fill="#2A2A2A"/>
<path d="M18.5838 70.6975C19.1061 70.4686 19.626 70.2488 20.1641 70.0339L20.5097 68.3455L21.6072 69.6829L23.3031 69.5113C22.9964 69.9678 22.6646 70.4273 22.3884 70.8968L23.1494 72.3673L21.4848 72.0232C21.0918 72.4032 20.6641 72.8224 20.2819 73.2344C20.2062 72.6657 20.1691 72.0977 20.1094 71.5236L18.5838 70.6975Z" fill="#2A2A2A"/>
<path d="M19.8007 61.7013L21.4742 61.3053L22.0891 59.6988L22.9373 61.1878L24.6353 61.2982L23.5315 62.502C23.6818 63.0275 23.8775 63.5652 24.0459 64.0957L22.4542 63.4799L21.0604 64.4798L21.1576 62.7588C20.6927 62.411 20.2529 62.0602 19.8007 61.7013Z" fill="#2A2A2A"/>
<path d="M22.4742 53.0273L24.1626 52.9022C24.4473 52.401 24.7263 51.9032 25.0436 51.4253C25.2211 51.9581 25.4077 52.4934 25.6169 53.0347L27.2717 53.415L25.996 54.4272C26.063 54.9741 26.1312 55.5165 26.2368 56.064L24.7689 55.1854L23.2585 55.9502C23.3794 55.3906 23.4878 54.8227 23.6223 54.2667L22.4742 53.0273Z" fill="#2A2A2A"/>
<path d="M26.5305 44.8986L28.2243 45.0613C28.5865 44.6148 28.9768 44.1905 29.3503 43.7567L29.6463 45.4229L31.2214 46.0827C30.7205 46.3222 30.2497 46.594 29.7732 46.8691L29.7341 48.5183L28.4346 47.4276C27.8794 47.5797 27.3433 47.7515 26.8104 47.929C27.0037 47.3887 27.2275 46.8615 27.4603 46.3367L26.5305 44.8986Z" fill="#2A2A2A"/>
<path d="M31.8604 37.5577L33.5266 38.0041L34.8324 36.8982L34.8605 38.6042L36.3018 39.5097L34.7009 40.0512C34.5939 40.5952 34.4994 41.1474 34.4084 41.6859L33.3411 40.3809L31.6466 40.6014L32.5536 39.1362C32.3169 38.6069 32.0787 38.1014 31.8604 37.5577Z" fill="#2A2A2A"/>
<path d="M38.3572 31.2038L39.9144 31.9122C40.3916 31.5985 40.8977 31.3216 41.4005 31.039C41.3023 31.6047 41.2044 32.1511 41.1358 32.7151L42.4062 33.8417C41.8635 33.9292 41.3513 34.0297 40.7823 34.1248C40.5848 34.6445 40.3786 35.1424 40.2083 35.6694L39.3253 34.2196L37.6341 34.1741C38.0121 33.7416 38.3587 33.2812 38.7635 32.8753L38.3572 31.2038Z" fill="#2A2A2A"/>
<path d="M45.7914 25.9894C46.2672 26.2964 46.746 26.6285 47.2124 26.9525L48.834 26.3339L48.3154 27.9614L49.3882 29.2825C48.8413 29.2767 48.2788 29.257 47.7259 29.2739L46.9159 30.7214L46.2909 29.1417C45.7415 29.0188 45.1774 28.8967 44.6174 28.7952C45.0556 28.4273 45.512 28.0643 45.9593 27.6989L45.7914 25.9894Z" fill="#2A2A2A"/>
<path d="M53.9863 22.0851L55.2286 23.2624C55.7892 23.1263 56.3462 23.0038 56.9151 22.9087C56.6407 23.4078 56.3732 23.8991 56.128 24.4157L56.965 25.892L55.3366 25.6304C54.9771 26.0485 54.6266 26.469 54.294 26.9137L53.9354 25.2453L52.3479 24.65C52.8428 24.3605 53.3357 24.0606 53.8385 23.778L53.9863 22.0851Z" fill="#2A2A2A"/>
<path d="M62.6996 19.5573C63.0626 20.0137 63.3918 20.4513 63.7331 20.9164L65.4555 20.8635L64.4275 22.2186L65.0099 23.8305C64.4923 23.6433 63.9668 23.4491 63.4452 23.2948L62.183 24.3833L62.108 22.689C61.624 22.3943 61.1277 22.0915 60.6401 21.8104C61.1863 21.5831 61.7167 21.4146 62.2556 21.2145L62.6996 19.5573Z" fill="#2A2A2A"/>
<path d="M71.7149 18.5128L72.5044 20.0395C73.0774 20.1105 73.6475 20.1565 74.2156 20.2456C73.7955 20.6183 73.3825 21.0367 72.9768 21.4278L73.291 23.0989L71.8341 22.3057C71.36 22.5718 70.8907 22.8925 70.432 23.1918L70.6378 21.4999L69.3438 20.4252L71.0345 20.0921C71.2631 19.5467 71.4935 19.031 71.7149 18.5128Z" fill="#2A2A2A"/>
<path d="M80.8065 18.9932L81.3481 20.5942C81.9005 20.7422 82.4501 20.9186 82.994 21.0983C82.5169 21.412 82.0503 21.7044 81.5831 22.0354L81.6125 23.7369C81.1895 23.3955 80.7527 23.0697 80.3092 22.7325C79.7703 22.9327 79.2861 23.1281 78.7785 23.356L79.2609 21.7189C78.8918 21.2851 78.5191 20.865 78.1452 20.4493C78.7186 20.4283 79.2924 20.3879 79.8603 20.4236L80.8065 18.9932Z" fill="#2A2A2A"/>
<path d="M89.6653 20.9399L89.9293 22.617L91.4683 23.3933L89.9215 24.095L89.6737 25.7805C89.3022 25.3558 88.9246 24.9538 88.5434 24.5653L86.9306 24.9339L87.6819 23.3978C87.4013 22.9053 87.113 22.4059 86.8013 21.939C87.3759 21.9862 87.9367 22.1025 88.5073 22.1826L89.6653 20.9399Z" fill="#2A2A2A"/>
<path d="M98.1024 24.2973L98.0735 26.0172L99.4757 27.0141L97.8263 27.4651L97.3089 29.088L96.4068 27.6913L94.7493 27.8101L95.7323 26.4236L95.1007 24.8324L96.7418 25.3547L98.1024 24.2973Z" fill="#2A2A2A"/>
<path d="M105.857 29.0249L105.551 30.7094C105.964 31.1064 106.377 31.5033 106.762 31.9316C106.199 31.9699 105.643 32.0151 105.074 32.0908L104.292 33.5991L103.624 32.0903C103.074 32.0208 102.534 31.9537 101.98 31.9217L103.178 30.7093L102.812 29.0533C103.325 29.312 103.846 29.5584 104.352 29.8251L105.857 29.0249Z" fill="#2A2A2A"/>
<path d="M112.73 34.9623C112.541 35.5038 112.356 36.0317 112.154 36.5695L113.143 37.9847L111.447 37.8652L110.422 39.2306C110.298 38.7123 110.173 38.1496 110.018 37.6229L108.424 37.1958L109.802 36.2013C109.788 35.6349 109.767 35.0614 109.718 34.5046C110.201 34.8186 110.642 35.1842 111.102 35.5307L112.73 34.9623Z" fill="#2A2A2A"/>
<path d="M118.532 41.9423L117.689 43.4393C117.938 43.9574 118.216 44.459 118.444 44.9859C117.905 44.8415 117.332 44.717 116.783 44.5941L115.555 45.7696L115.42 44.1175C114.939 43.8672 114.415 43.6491 113.916 43.4281L115.442 42.6772L115.639 40.9829L116.842 42.2175C117.413 42.1134 117.965 42.0283 118.532 41.9423Z" fill="#2A2A2A"/>
<path d="M123.103 49.7865L122.038 51.1171C122.22 51.6512 122.357 52.2265 122.516 52.7739L120.947 52.1107L119.54 53.0683C119.605 52.5179 119.634 51.9727 119.67 51.4241L118.31 50.487L119.945 49.9983C120.125 49.4544 120.263 48.9189 120.411 48.3665C120.772 48.8319 121.084 49.2988 121.391 49.7838L123.103 49.7865Z" fill="#2A2A2A"/>
<path d="M126.343 58.2687L125.065 59.4161L125.286 61.1254L123.831 60.2163L122.29 60.934L122.72 59.3312C122.338 58.9427 121.912 58.5615 121.515 58.1932L123.201 57.9703L123.943 56.4318L124.675 57.9917C125.206 58.0756 125.789 58.1639 126.343 58.2687Z" fill="#2A2A2A"/>
<path d="M128.114 67.1777L126.675 68.0927C126.677 68.6658 126.63 69.2404 126.593 69.8128C126.173 69.4237 125.77 69.044 125.335 68.6751L123.696 69.1239C123.926 68.6275 124.129 68.1238 124.348 67.6147C124.018 67.1622 123.715 66.7171 123.364 66.2882L125.071 66.3476L126.03 64.9595C126.194 65.4887 126.378 66.0524 126.504 66.6151L128.114 67.1777Z" fill="#2A2A2A"/>
<path d="M128.41 76.2541C127.892 76.4841 127.372 76.7039 126.834 76.9189L126.47 78.6024L125.404 77.2735L123.71 77.4405C124.015 76.9886 124.347 76.5291 124.623 76.0596L123.862 74.5891L125.522 74.932C125.92 74.5532 126.347 74.134 126.725 73.7208C126.805 74.2907 126.842 74.8587 126.902 75.4328L128.41 76.2541Z" fill="#2A2A2A"/>
<path d="M127.198 85.2516L125.548 85.6491L124.928 87.2544L124.085 85.7666L122.386 85.6607L123.495 84.4343C123.345 83.9087 123.15 83.371 122.981 82.8406L124.568 83.4552L125.952 82.4574L125.855 84.1784C126.328 84.5479 126.764 84.8975 127.198 85.2516Z" fill="#2A2A2A"/>
<path d="M62.3635 114.826L61.8024 111.812L58.9716 110.641L61.6649 109.174L61.9062 106.119L64.1311 108.229L67.1131 107.514L65.7942 110.281L67.3932 112.898L64.3561 112.496L62.3635 114.826Z" fill="#2A2A2A"/>
<path d="M54.2249 110.573L53.8322 108.434L51.8234 107.6L53.7318 106.563L53.9047 104.397L55.4794 105.891L57.5948 105.386L56.6613 107.348L57.7956 109.2L55.6388 108.918L54.2249 110.573Z" fill="#2A2A2A"/>
<path d="M71.5387 115.212L71.1415 113.072L69.1328 112.238L71.0411 111.201L71.214 109.035L72.7932 110.531L74.9041 110.024L73.9706 111.986L75.1049 113.838L72.9481 113.557L71.5387 115.212Z" fill="#2A2A2A"/>
<path d="M63.4013 63.4113L69.1607 64.9545C65.9247 66.1645 64.1984 67.2645 62.3646 66.7732C60.4659 66.0897 61.4916 64.5981 62.1979 63.7731C62.3471 63.6096 62.5377 63.4896 62.7496 63.4259C62.9616 63.3622 63.1868 63.3572 63.4013 63.4113Z" fill="#2A2A2A"/>
<path d="M59.7505 79.2095L53.5383 77.5449C53.5242 77.5411 53.5111 77.534 53.5002 77.5241C53.4893 77.5143 53.4808 77.502 53.4755 77.4883C53.4702 77.4746 53.4682 77.4599 53.4697 77.4453C53.4711 77.4306 53.476 77.4166 53.4839 77.4042L54.5892 75.7058C54.6196 75.6581 54.66 75.6175 54.7077 75.5869C54.7554 75.5564 54.8092 75.5366 54.8653 75.529C54.9214 75.5214 54.9784 75.5262 55.0325 75.5429C55.0866 75.5596 55.1364 75.588 55.1784 75.6259C56.6297 76.8855 58.1841 78.0211 59.8253 79.0209C59.8503 79.0308 59.8703 79.0502 59.881 79.0749C59.8917 79.0996 59.8921 79.1276 59.8822 79.1526C59.8723 79.1776 59.8528 79.1976 59.8281 79.2083C59.8034 79.219 59.7755 79.2194 59.7505 79.2095Z" fill="#2A2A2A"/>
<path d="M87.2805 69.8098L81.5166 68.2653C83.714 70.9312 84.6817 72.7531 86.5154 73.2444C88.5061 73.6031 88.3862 71.8045 88.1598 70.7296C88.1108 70.5108 88.003 70.3095 87.848 70.1475C87.6931 69.9854 87.4968 69.8686 87.2805 69.8098Z" fill="#2A2A2A"/>
<path d="M82.5434 85.3168L88.7555 86.9813C88.7697 86.9851 88.7846 86.9854 88.799 86.9824C88.8134 86.9793 88.8268 86.9729 88.8382 86.9637C88.8497 86.9545 88.8588 86.9427 88.8649 86.9293C88.8709 86.9159 88.8737 86.9013 88.8731 86.8866L88.7605 84.8619C88.7586 84.8057 88.7443 84.7505 88.7188 84.7003C88.6932 84.6502 88.6569 84.6062 88.6125 84.5717C88.568 84.5371 88.5165 84.5127 88.4616 84.5002C88.4067 84.4877 88.3497 84.4874 88.2947 84.4994C86.4066 84.8648 84.4911 85.0707 82.5684 85.1148C82.5416 85.1115 82.5146 85.119 82.4934 85.1355C82.4721 85.1521 82.4583 85.1765 82.4549 85.2033C82.4516 85.2301 82.4591 85.2571 82.4757 85.2784C82.4923 85.2997 82.5166 85.3135 82.5434 85.3168Z" fill="#2A2A2A"/>
<path d="M94.5228 72.0318C82.8742 81.6008 82.6895 69.7394 77.5504 68.3624C77.2359 68.2564 76.9031 68.2152 76.5722 68.2412C76.2413 68.2672 75.9191 68.3598 75.6249 68.5136C75.3308 68.6673 75.0707 68.879 74.8605 69.1358C74.6502 69.3927 74.4941 69.6894 74.4016 70.0082C74.4806 69.6862 74.4938 69.3516 74.4404 69.0245C74.3869 68.6973 74.2679 68.3843 74.0905 68.1043C73.9131 67.8242 73.6809 67.5829 73.408 67.3948C73.135 67.2067 72.8268 67.0757 72.502 67.0097C67.3856 65.6387 61.2949 75.8186 55.9914 61.7073C52.3716 74.6554 63.9008 81.0348 73.1267 74.8203C78.032 84.8213 91.2063 85.0611 94.5228 72.0318Z" fill="#2A2A2A"/>
<path d="M94.8322 66.893C93.7443 67.1499 92.5591 67.371 91.5595 67.5156C91.2309 67.5644 90.8957 67.5456 90.5746 67.4604L61.7191 59.7286C61.3984 59.6418 61.0988 59.4905 60.8386 59.284C60.0361 58.6565 59.1343 57.8567 58.3157 57.1084C58.2433 57.0408 58.1964 56.9502 58.1829 56.852C58.1695 56.7539 58.1902 56.654 58.2417 56.5694C58.4568 56.2194 58.8525 55.612 59.3609 54.9281C59.3971 54.8807 59.4427 54.8412 59.4948 54.8123C59.547 54.7834 59.6046 54.7656 59.664 54.7601C59.7234 54.7545 59.7833 54.7614 59.84 54.7802C59.8966 54.799 59.9487 54.8294 59.9929 54.8694C60.7772 55.5648 61.4399 56.1161 62.0505 56.5902L63.5512 50.9894C63.5776 50.8897 63.6387 50.8028 63.7236 50.7444C66.1123 49.0548 68.8437 47.9118 71.7239 47.3969C74.604 46.8819 77.5623 47.0075 80.3884 47.7648C83.2146 48.5221 85.8393 49.8924 88.0761 51.7785C90.3129 53.6645 92.107 56.02 93.3308 58.6776C93.3751 58.7707 93.3846 58.8765 93.3576 58.976L91.852 64.5949C92.6178 64.4896 93.4457 64.3523 94.4943 64.1334C94.5526 64.1209 94.6129 64.1207 94.6714 64.1327C94.7298 64.1447 94.7851 64.1687 94.8338 64.2032C94.8825 64.2377 94.9235 64.2819 94.9542 64.333C94.9849 64.3841 95.0047 64.4411 95.0123 64.5003C95.1155 65.3287 95.1532 66.057 95.1609 66.4812C95.1585 66.5763 95.1251 66.6681 95.0658 66.7424C95.0064 66.8168 94.9244 66.8696 94.8322 66.893Z" fill="#2A2A2A"/>
<path d="M59.9582 41.8264L58.1554 37.7823L57.647 41.9969L56.9433 42.3086L53.5286 39.9354L55.2833 43.8971L53.8182 44.546L50.8296 37.7987L52.1212 37.2266L56.5038 40.301L57.1335 35.0065L58.4155 34.4387L61.4233 41.1775L59.9582 41.8264Z" fill="#2A2A2A"/>
<path d="M67.6386 38.3805L64.2546 38.9635L63.8781 40.6366L62.1496 40.9344L64.1426 33.086L65.8086 32.7989L70.3234 39.5262L68.5533 39.8311L67.6386 38.3805ZM66.8869 37.1912L65.2504 34.5998L64.5754 37.5895L66.8869 37.1912Z" fill="#2A2A2A"/>
<path d="M71.4582 32.1839L74.8059 32.3611C75.606 32.4034 76.3032 32.5952 76.8974 32.9363C77.4991 33.2708 77.9536 33.7241 78.2612 34.2964C78.5757 34.8691 78.7135 35.5239 78.6745 36.2608C78.6355 36.9977 78.4293 37.6343 78.0561 38.1705C77.6899 38.7071 77.1898 39.1135 76.5558 39.3896C75.9293 39.6591 75.2159 39.7726 74.4158 39.7303L71.0681 39.5531L71.4582 32.1839ZM74.4057 38.3257C75.1427 38.3647 75.7395 38.1922 76.1961 37.8081C76.6602 37.4175 76.9108 36.8712 76.948 36.1694C76.9851 35.4676 76.7934 34.9014 76.3728 34.4709C75.9596 34.0338 75.3845 33.7958 74.6476 33.7568L73.0895 33.6743L72.8477 38.2432L74.4057 38.3257Z" fill="#2A2A2A"/>
<path d="M85.6268 40.5042L85.2506 41.8221L79.7562 40.2538L81.7816 33.1577L87.1443 34.6883L86.7681 36.0062L83.0376 34.9414L82.5978 36.4822L85.8924 37.4226L85.5278 38.6999L82.2332 37.7596L81.7645 39.4018L85.6268 40.5042Z" fill="#2A2A2A"/>
<path d="M93.9724 39.332L92.9761 41.0086L95.9125 42.7535L95.2124 43.9317L92.276 42.1868L90.9027 44.4978L89.4346 43.6254L93.2043 37.2814L97.9986 40.1303L97.2985 41.3084L93.9724 39.332Z" fill="#2A2A2A"/>
<path d="M97.6785 49.6099C97.1159 49.0899 96.7197 48.4987 96.4898 47.8363C96.265 47.1787 96.2192 46.5191 96.3523 45.8573C96.4954 45.1952 96.8126 44.5984 97.304 44.0668C97.7954 43.5352 98.3631 43.1747 99.0072 42.9853C99.6612 42.7955 100.325 42.7868 100.998 42.9593C101.676 43.1365 102.297 43.4852 102.859 44.0052C103.422 44.5252 103.816 45.114 104.04 45.7716C104.265 46.4292 104.309 47.0915 104.171 47.7584C104.038 48.4201 103.725 49.0168 103.234 49.5483C102.743 50.0799 102.17 50.4406 101.516 50.6304C100.867 50.8151 100.205 50.8212 99.5321 50.6487C98.8589 50.4762 98.241 50.1299 97.6785 49.6099ZM98.666 48.5416C98.986 48.8374 99.3418 49.0323 99.7334 49.1263C100.13 49.2152 100.522 49.1948 100.91 49.0652C101.303 48.9404 101.654 48.7102 101.964 48.3747C102.274 48.0393 102.476 47.6708 102.57 47.2692C102.669 46.8724 102.656 46.4825 102.531 46.0995C102.412 45.7113 102.192 45.3693 101.872 45.0735C101.552 44.7777 101.194 44.5854 100.797 44.4965C100.406 44.4025 100.013 44.4179 99.6205 44.5428C99.2326 44.6724 98.8837 44.9049 98.5736 45.2404C98.2635 45.5758 98.0591 45.942 97.9603 46.3388C97.8666 46.7403 97.8796 47.1352 97.9993 47.5234C98.1238 47.9064 98.346 48.2458 98.666 48.5416Z" fill="#2A2A2A"/>
<path d="M104.144 57.1885L105.034 54.8517L104.145 53.5565L102.45 54.7198L101.484 53.3116L107.569 49.1358L109.376 51.7696C109.746 52.3086 109.976 52.8367 110.067 53.3541C110.162 53.8772 110.118 54.3593 109.935 54.8004C109.751 55.2415 109.434 55.6172 108.982 55.9274C108.53 56.2376 108.063 56.396 107.582 56.4024C107.11 56.4107 106.65 56.2746 106.202 55.994L105.182 58.701L104.144 57.1885ZM108.003 54.5018C108.345 54.2672 108.531 53.9781 108.559 53.6346C108.593 53.2871 108.465 52.9019 108.175 52.4788L107.388 51.3314L105.267 52.787L106.054 53.9344C106.344 54.3575 106.658 54.6154 106.994 54.7084C107.331 54.8013 107.667 54.7325 108.003 54.5018Z" fill="#2A2A2A"/>
<path d="M90.9185 96.4222L89.4832 96.0376C89.3617 95.9976 89.2604 95.9123 89.2002 95.7995C89.1401 95.6866 89.1258 95.5549 89.1602 95.4318L89.4138 94.4855C89.4303 94.4213 89.4594 94.3611 89.4994 94.3083C89.5394 94.2554 89.5894 94.211 89.6466 94.1776C89.7039 94.1442 89.7671 94.1225 89.8328 94.1137C89.8985 94.1049 89.9653 94.1092 90.0293 94.1263L91.4465 94.5061L92.6196 90.1277C92.649 90.0227 92.7184 89.9334 92.8128 89.8789C92.9072 89.8244 93.0192 89.809 93.1248 89.836L94.2568 90.1393C94.3077 90.153 94.3554 90.1766 94.3972 90.2088C94.4389 90.241 94.4738 90.2812 94.4999 90.327C94.526 90.3728 94.5427 90.4233 94.5492 90.4757C94.5556 90.528 94.5516 90.5811 94.5373 90.6318L93.3617 95.0193L94.7699 95.3966C94.9024 95.4321 95.0155 95.5185 95.0846 95.637C95.1538 95.7554 95.1733 95.8965 95.139 96.0293L94.8891 96.962C94.8719 97.0262 94.8422 97.0864 94.8017 97.1392C94.7612 97.1919 94.7108 97.2362 94.6532 97.2694C94.5956 97.3026 94.5321 97.3242 94.4661 97.3329C94.4002 97.3416 94.3332 97.3372 94.269 97.32L92.8247 96.933L91.8007 100.754C91.6633 101.262 91.731 101.803 91.9891 102.261C92.2546 102.717 92.6868 103.052 93.1946 103.195L92.6875 105.088C92.1398 104.951 91.6285 104.696 91.1889 104.342C90.4557 103.722 89.9624 102.865 89.7947 101.92C89.7087 101.362 89.7423 100.792 89.8933 100.248C90.2351 98.9907 90.5779 97.6752 90.9185 96.4222Z" fill="#2A2A2A"/>
<path d="M64.4987 91.391C64.5418 90.6603 64.4229 89.9291 64.1504 89.2498C63.6964 88.1276 62.8481 87.21 61.765 86.6695C61.4693 86.5218 61.1592 86.4045 60.8397 86.3196C60.517 86.2338 60.1865 86.181 59.8531 86.162C59.1222 86.1145 58.39 86.2336 57.7119 86.5103C57.0035 86.797 56.3707 87.243 55.8626 87.8138C55.3544 88.3846 54.9847 89.0649 54.782 89.8017L52.3059 99.0429C52.2951 99.0831 52.2924 99.1251 52.298 99.1663C52.3036 99.2076 52.3173 99.2473 52.3384 99.2832C52.3595 99.3191 52.3875 99.3505 52.4208 99.3755C52.4542 99.4005 52.4921 99.4186 52.5325 99.4287L53.8229 99.7745C53.9021 99.7945 53.986 99.7828 54.0567 99.742C54.1274 99.7011 54.1795 99.6343 54.2018 99.5557L55.6577 94.1224C56.1097 94.6981 56.6835 95.1667 57.3379 95.4947C57.5437 95.5981 57.7569 95.6861 57.9759 95.7578L58.5735 95.918C58.796 95.9642 59.0217 95.9939 59.2486 96.0066C59.9822 96.054 60.7171 95.9358 61.3989 95.6608C62.5203 95.2057 63.4376 94.3578 63.9792 93.2754C64.1233 92.9782 64.2389 92.6679 64.3245 92.3489C64.414 92.0361 64.4724 91.7153 64.4987 91.391ZM62.008 92.7715C61.7565 93.1388 61.4259 93.445 61.0404 93.6676C60.6549 93.8902 60.2244 94.0234 59.7805 94.0576C59.5264 94.0771 59.2708 94.0625 59.0206 94.0141C58.9425 93.998 58.8654 93.9773 58.7897 93.9522C58.71 93.9357 58.6314 93.9147 58.5542 93.8891C58.3121 93.804 58.0823 93.6869 57.871 93.5411C57.3636 93.1919 56.9772 92.6936 56.7653 92.1152C56.5534 91.5368 56.5265 90.9068 56.6882 90.3124C56.7761 89.9857 56.9182 89.676 57.1084 89.3962C57.3597 89.0319 57.6889 88.728 58.0722 88.5067C58.4555 88.2854 58.8833 88.1522 59.3245 88.1168C59.6619 88.0919 60.0011 88.1238 60.328 88.211C60.9237 88.3681 61.4558 88.7064 61.8507 89.1791C62.2457 89.6518 62.484 90.2356 62.5327 90.8497C62.5614 91.1873 62.5311 91.5273 62.443 91.8544C62.3513 92.1827 62.2042 92.4928 62.008 92.7715Z" fill="#2A2A2A"/>
<path d="M75.0121 94.2079C75.0676 93.2387 74.8379 92.2745 74.3515 91.4344C73.8651 90.5943 73.1433 89.9151 72.2752 89.4806C71.9794 89.3329 71.6693 89.2157 71.3498 89.1308C71.0271 89.0454 70.6965 88.9926 70.3632 88.9732C69.6337 88.9261 68.903 89.0456 68.2265 89.3227C67.5129 89.6068 66.8757 90.0541 66.3661 90.6288C65.8564 91.2035 65.4885 91.8896 65.2919 92.6321L62.8157 101.873C62.805 101.913 62.8023 101.955 62.8077 101.996C62.8131 102.037 62.8264 102.076 62.8471 102.112C62.8677 102.147 62.8951 102.179 62.9279 102.204C62.9606 102.229 62.9979 102.247 63.0378 102.258L64.3418 102.607C64.4214 102.629 64.5063 102.618 64.5781 102.577C64.6498 102.536 64.7027 102.469 64.7252 102.39L66.1811 96.9565C66.6314 97.5318 67.2037 98.0001 67.8567 98.3276C68.0628 98.4305 68.276 98.5184 68.4947 98.5907L69.0924 98.7508C69.3149 98.7971 69.5406 98.8267 69.7675 98.8395C70.9077 98.9116 72.0376 98.5863 72.965 97.919C73.8923 97.2518 74.5598 96.2837 74.8536 95.1797C74.9388 94.8618 74.9919 94.5363 75.0121 94.2079ZM72.526 95.5896C72.273 95.9563 71.9413 96.2619 71.5552 96.4842C71.169 96.7065 70.7382 96.8398 70.294 96.8745C70.0414 96.8949 69.7873 96.8807 69.5386 96.8322C69.4589 96.8158 69.3803 96.7948 69.3031 96.7691C69.225 96.753 69.1479 96.7324 69.0722 96.7072C68.8284 96.6221 68.597 96.5047 68.3845 96.358C67.876 96.0101 67.489 95.512 67.2777 94.9332C67.0664 94.3545 67.0414 93.7242 67.2062 93.1305C67.2919 92.803 67.4341 92.493 67.6264 92.2143C67.8773 91.8505 68.2058 91.5469 68.5882 91.3255C68.9707 91.104 69.3975 90.9702 69.8379 90.9337C70.1753 90.9092 70.5145 90.9411 70.8415 91.0279C71.4365 91.1862 71.9678 91.5249 72.3626 91.9973C72.7573 92.4698 72.9961 93.0529 73.0462 93.6665C73.0711 94.004 73.0392 94.3432 72.952 94.6701C72.8633 94.9986 72.7193 95.3096 72.526 95.5896Z" fill="#2A2A2A"/>
<path d="M88.3977 97.7898C88.4175 97.4435 88.4016 97.0962 88.3504 96.7531C88.2926 96.376 88.1912 96.0068 88.0482 95.6531C87.8743 95.2215 87.6395 94.817 87.3509 94.452C86.6895 93.618 85.7772 93.019 84.749 92.7435C83.7208 92.468 82.6313 92.5307 81.6414 92.9222C81.2104 93.0945 80.8063 93.3278 80.4415 93.6149C80.1408 93.8497 79.8684 94.1187 79.6299 94.4165C79.4125 94.6874 79.2236 94.9799 79.066 95.2894C78.92 95.5876 78.8025 95.8989 78.7149 96.2192C78.6287 96.5384 78.5752 96.8655 78.5552 97.1956C78.5326 97.5418 78.5485 97.8895 78.6026 98.2322C78.6576 98.609 78.7575 98.9779 78.9002 99.3311C79.0748 99.7659 79.3102 100.174 79.5996 100.542C80.0516 101.118 80.6254 101.587 81.2798 101.915C81.4856 102.018 81.6989 102.106 81.9178 102.178L82.5155 102.338C82.738 102.384 82.9636 102.414 83.1905 102.427C83.9228 102.475 84.6564 102.356 85.3363 102.08C85.7718 101.904 86.181 101.669 86.5521 101.381C86.7314 101.244 86.9 101.092 87.0566 100.929C87.0907 100.894 87.1149 100.85 87.1268 100.803C87.1388 100.755 87.138 100.705 87.1247 100.658C87.1113 100.611 87.0858 100.568 87.0507 100.533C87.0156 100.499 86.9722 100.474 86.9246 100.462L85.2992 100.027C85.1656 99.9915 85.0237 100.009 84.9027 100.076C84.5242 100.288 84.1042 100.415 83.6718 100.449C83.4176 100.469 83.162 100.454 82.9118 100.406L82.8348 100.385L82.5224 100.302L82.4454 100.281C82.2031 100.196 81.9733 100.079 81.7623 99.9329C81.3496 99.6488 81.0151 99.2655 80.7895 98.8182C80.6155 98.4735 80.5116 98.0976 80.4841 97.7124L87.407 99.5674C87.543 99.6031 87.6874 99.5866 87.8119 99.5212C87.9363 99.4557 88.0317 99.346 88.0793 99.2137C88.1362 99.0678 88.1843 98.9187 88.2232 98.767C88.3142 98.448 88.3727 98.1206 88.3977 97.7898ZM81.0084 95.8098C81.1202 95.6496 81.2464 95.4998 81.3855 95.3625C81.5261 95.2292 81.6772 95.1074 81.8373 94.9983C82.3296 94.6782 82.9057 94.5112 83.4928 94.5182C84.08 94.5253 84.6519 94.7061 85.1364 95.0379C85.4685 95.2653 85.7511 95.5577 85.967 95.8975C86.183 96.2373 86.3277 96.6174 86.3925 97.0147C86.3972 97.0408 86.3951 97.0676 86.3864 97.0927C86.3777 97.1177 86.3627 97.14 86.3429 97.1576C86.3231 97.1752 86.2991 97.1874 86.2732 97.1931C86.2474 97.1987 86.2205 97.1976 86.1951 97.1899L81.0084 95.8098Z" fill="#2A2A2A"/>
<path d="M43.874 76.9741L42.4182 82.4075C41.7584 81.5621 40.8409 80.955 39.8048 80.6784C39.482 80.5931 39.1515 80.5403 38.8182 80.5208C38.0887 80.4737 37.358 80.5933 36.6815 80.8703C35.9686 81.1521 35.3315 81.5967 34.821 82.1686C34.3106 82.7404 33.9408 83.4237 33.7414 84.1638C33.4644 85.1937 33.5294 86.2858 33.9267 87.2756C34.0988 87.7152 34.3352 88.1269 34.6282 88.4972C35.0785 89.0725 35.6508 89.5408 36.3038 89.8683C36.5081 89.9713 36.7199 90.0589 36.9373 90.1302L37.5486 90.294C37.7681 90.3394 37.9907 90.3683 38.2146 90.3802C38.9483 90.4296 39.6836 90.3113 40.3648 90.0344L40.1756 90.7407C40.1659 90.777 40.1634 90.8148 40.1683 90.852C40.1732 90.8893 40.1854 90.9251 40.2042 90.9577C40.2229 90.9902 40.2479 91.0187 40.2777 91.0415C40.3075 91.0644 40.3415 91.0812 40.3778 91.0909L41.7044 91.4464C41.7448 91.4572 41.787 91.46 41.8285 91.4545C41.87 91.449 41.91 91.4354 41.9463 91.4145C41.9825 91.3936 42.0143 91.3657 42.0398 91.3325C42.0653 91.2993 42.084 91.2614 42.0948 91.221L45.7696 77.5063C45.7934 77.4175 45.781 77.3228 45.735 77.2431C45.689 77.1635 45.6132 77.1053 45.5244 77.0815L44.2702 76.7454C44.2291 76.7344 44.1863 76.7316 44.1442 76.7372C44.1021 76.7427 44.0615 76.7565 44.0247 76.7778C43.9879 76.799 43.9557 76.8273 43.9298 76.861C43.904 76.8947 43.885 76.9331 43.874 76.9741ZM40.9764 87.1361C40.7246 87.5024 40.3939 87.8076 40.0087 88.0294C39.6234 88.2511 39.1934 88.3838 38.7502 88.4176C38.4976 88.4381 38.2434 88.4238 37.9947 88.3753C37.9151 88.359 37.8365 88.3379 37.7593 88.3122C37.6812 88.2961 37.6041 88.2755 37.5284 88.2504C37.2845 88.1653 37.0532 88.0478 36.8406 87.9011C36.3321 87.5533 35.9451 87.0551 35.7338 86.4764C35.5226 85.8976 35.4976 85.2673 35.6624 84.6737C35.7481 84.3462 35.8903 84.0361 36.0826 83.7575C36.3335 83.3936 36.662 83.0901 37.0444 82.8686C37.4268 82.6471 37.8537 82.5133 38.2941 82.4768C38.6315 82.4524 38.9707 82.4842 39.2976 82.571C39.8926 82.7294 40.424 83.068 40.8187 83.5405C41.2135 84.0129 41.4523 84.596 41.5023 85.2097C41.5272 85.5471 41.4954 85.8863 41.4081 86.2132C41.3203 86.5441 41.1741 86.8566 40.9764 87.1361Z" fill="#2A2A2A"/>
<path d="M79.9357 86.302L78.7132 85.9744C78.5232 85.9235 78.3279 86.0363 78.2769 86.2263L74.6203 99.8731C74.5694 100.063 74.6822 100.258 74.8722 100.309L76.0947 100.637C76.2848 100.688 76.4801 100.575 76.531 100.385L80.1877 86.7383C80.2386 86.5483 80.1258 86.3529 79.9357 86.302Z" fill="#2A2A2A"/>
<path d="M53.9855 88.5739C54.0409 87.6047 53.8113 86.6405 53.3249 85.8004C52.8385 84.9603 52.1167 84.2811 51.2485 83.8466C50.9543 83.6993 50.6457 83.5825 50.3277 83.498C50.005 83.4122 49.6745 83.3594 49.3411 83.3404C48.6102 83.2919 47.8778 83.4111 47.1999 83.6887C46.4885 83.9719 45.853 84.4174 45.3441 84.9896C44.8353 85.5618 44.4671 86.2449 44.2689 86.9846C43.9918 88.0145 44.0569 89.1066 44.4542 90.0964C44.6263 90.536 44.8627 90.9477 45.1556 91.318C45.6069 91.8945 46.1809 92.3632 46.8359 92.6903C47.0403 92.7931 47.252 92.8806 47.4693 92.9522L48.0715 93.1136C48.2925 93.1597 48.5166 93.189 48.742 93.201C49.4758 93.2504 50.2111 93.1321 50.8923 92.8552L50.731 93.4574C50.7076 93.5494 50.7214 93.6469 50.7694 93.7287C50.8174 93.8106 50.8957 93.8703 50.9874 93.8949L52.2144 94.2237C52.3033 94.2475 52.398 94.235 52.4777 94.189C52.5573 94.143 52.6155 94.0672 52.6393 93.9784L53.827 89.5457C53.9122 89.2279 53.9652 88.9023 53.9855 88.5739ZM51.4994 89.9557C51.246 90.3214 50.9143 90.626 50.5284 90.8475C50.1425 91.0689 49.7122 91.2017 49.2686 91.236C49.016 91.2564 48.7619 91.2422 48.5132 91.1937C48.435 91.1776 48.3579 91.157 48.2822 91.1318C48.2026 91.1155 48.124 91.0944 48.0468 91.0688C47.8042 90.9845 47.5744 90.8674 47.3636 90.7207C46.8535 90.3739 46.465 89.8758 46.2528 89.2966C46.0406 88.7175 46.0155 88.0863 46.1808 87.4921C46.2687 87.1653 46.4107 86.8556 46.601 86.5758C46.9493 86.0673 47.4475 85.6801 48.0262 85.4681C48.6049 85.2561 49.2353 85.2298 49.8297 85.393C50.4246 85.5514 50.956 85.89 51.3507 86.3625C51.7455 86.835 51.9843 87.4181 52.0343 88.0317C52.0592 88.3691 52.0274 88.7084 51.9401 89.0353C51.847 89.3651 51.698 89.6764 51.4994 89.9557Z" fill="#2A2A2A"/>
<path d="M94.3988 102.542C94.3973 102.523 94.4025 102.504 94.4134 102.488C94.4221 102.487 94.4311 102.487 94.4396 102.49C94.4482 102.492 94.4562 102.496 94.4632 102.501L96.1837 102.962C96.2081 102.969 96.2294 102.985 96.2441 103.005C96.2589 103.026 96.2661 103.051 96.2648 103.076C96.2133 103.975 96.7159 104.653 97.8886 104.967C99.0612 105.281 99.821 105 100.026 104.235C100.185 103.641 99.9421 103.208 99.0091 102.705L97.5845 101.955C95.9266 101.079 95.2784 100.002 95.6375 98.662C96.0791 97.0139 97.8313 96.2702 99.9639 96.8416C102.096 97.413 103.156 99.0022 102.839 100.601C102.836 100.615 102.831 100.629 102.823 100.64C102.815 100.652 102.805 100.662 102.793 100.669C102.781 100.677 102.767 100.681 102.753 100.683C102.739 100.684 102.725 100.683 102.711 100.679L101.14 100.258C101.109 100.251 101.082 100.233 101.064 100.208C101.046 100.182 101.038 100.151 101.041 100.12C101.067 99.8531 101.028 99.5843 100.926 99.3365C100.795 99.0732 100.605 98.8437 100.37 98.6656C100.136 98.4876 99.8642 98.3658 99.5754 98.3098C98.5521 98.0356 97.7805 98.3433 97.5828 99.0813C97.4299 99.6518 97.7071 100.139 98.622 100.636L100.038 101.384C100.187 101.424 101.663 101.946 102.013 103.302C102.125 103.725 102.115 104.171 101.984 104.589C101.739 105.179 101.31 105.673 100.762 105.999C100.253 106.283 99.6923 106.464 99.1131 106.53C98.5339 106.597 97.9472 106.548 97.3871 106.386C96.5447 106.159 95.7784 105.711 95.1679 105.087C94.7625 104.684 94.477 104.176 94.3432 103.619C94.2716 103.261 94.2907 102.891 94.3988 102.542Z" fill="#2A2A2A"/>
</svg>
