<svg width="15" height="15" viewBox="0 0 15 15" fill="none" xmlns="http://www.w3.org/2000/svg">
<path d="M7.49984 14.5837C3.58782 14.5837 0.416504 11.4123 0.416504 7.50033C0.416504 3.58831 3.58782 0.416992 7.49984 0.416992C11.4119 0.416992 14.5832 3.58831 14.5832 7.50033C14.5789 11.4106 11.4101 14.5794 7.49984 14.5837ZM6.7915 11.042V12.4587H8.20817V11.042H6.7915ZM7.49984 3.95866C8.28224 3.95866 8.9165 4.59292 8.9165 5.37533C8.919 5.75126 8.76807 6.11195 8.49859 6.37408L7.62025 7.26658C7.09002 7.79904 6.79208 8.51972 6.7915 9.27116V9.62533H8.20817C8.15312 8.86387 8.46024 8.12102 9.03692 7.62074L9.67442 6.96908C10.0981 6.54713 10.3353 5.97324 10.3332 5.37533C10.3332 3.81052 9.06464 2.54199 7.49984 2.54199C5.93503 2.54199 4.6665 3.81052 4.6665 5.37533H6.08317C6.08317 4.59292 6.71743 3.95866 7.49984 3.95866Z" fill="#E3E3E3"/>
</svg>
